<?xml version="1.0" standalone="no"?><!DOCTYPE svg PUBLIC "-//W3C//DTD SVG 1.1//EN" "http://www.w3.org/Graphics/SVG/1.1/DTD/svg11.dtd"><svg t="1597283628286" class="icon" viewBox="0 0 1024 1024" version="1.1" xmlns="http://www.w3.org/2000/svg" p-id="3032" xmlns:xlink="http://www.w3.org/1999/xlink" width="64" height="64"><defs><style type="text/css"></style></defs><path d="M837.091556 64c35.84 0 64.995556 28.672 64.995555 64v768c0 35.271111-29.155556 64-64.995555 64H186.88c-35.811556 0-64.995556-28.728889-64.995556-64v-768c0-35.328 29.184-64 64.995556-64H837.12z m0-64H186.88C115.114667 0 56.888889 57.315556 56.888889 128v768C56.888889 966.684444 115.114667 1024 186.908444 1024H837.12C908.885333 1024 967.111111 966.684444 967.111111 896v-768C967.111111 57.315556 908.885333 0 837.091556 0z" fill="#108EE9" p-id="3033"></path><path d="M512 654.222222H256v-65.024h256V654.222222z m256-130.019555H256v-65.024h512v65.024z m0-130.048H256v-65.024h512v65.024z m0-130.019556H256V199.111111h512v65.024z" fill="#108EE9" p-id="3034"></path></svg>