<?xml version="1.0" standalone="no"?><!DOCTYPE svg PUBLIC "-//W3C//DTD SVG 1.1//EN" "http://www.w3.org/Graphics/SVG/1.1/DTD/svg11.dtd"><svg t="1597392922396" class="icon" viewBox="0 0 1024 1024" version="1.1" xmlns="http://www.w3.org/2000/svg" p-id="3704" xmlns:xlink="http://www.w3.org/1999/xlink" width="200" height="200"><defs><style type="text/css"></style></defs><path d="M580.266667 0H307.2h-3.413333-3.413334s-3.413333 3.413333-6.826666 3.413333l-273.066667 273.066667c0 3.413333-3.413333 6.826667-3.413333 10.24v552.96c0 6.826667 6.826667 13.653333 17.066666 13.653333h409.6c10.24 0 17.066667-6.826667 17.066667-17.066666V546.133333H580.266667c10.24 0 17.066667-6.826667 17.066666-17.066666V17.066667c0-10.24-6.826667-17.066667-17.066666-17.066667zM290.133333 58.026667V273.066667H75.093333l215.04-215.04zM1003.52 310.613333c-6.826667-6.826667-17.066667-6.826667-23.893333 0l-37.546667 37.546667V204.8c0-58.026667-44.373333-102.4-102.4-102.4H682.666667c-10.24 0-17.066667 6.826667-17.066667 17.066667s6.826667 17.066667 17.066667 17.066666h153.6c37.546667 0 68.266667 30.72 68.266666 68.266667v146.773333l-37.546666-37.546666c-6.826667-6.826667-17.066667-6.826667-23.893334 0s-6.826667 17.066667 0 23.893333l68.266667 68.266667s3.413333 3.413333 6.826667 3.413333h13.653333c3.413333 0 3.413333-3.413333 6.826667-3.413333l68.266666-68.266667c0-6.826667 0-20.48-3.413333-27.306667zM921.6 580.266667c-10.24 0-17.066667 6.826667-17.066667 17.066666v409.6c0 10.24 6.826667 17.066667 17.066667 17.066667s17.066667-6.826667 17.066667-17.066667v-409.6c0-10.24-6.826667-17.066667-17.066667-17.066666zM853.333333 580.266667c-10.24 0-17.066667 6.826667-17.066666 17.066666v341.333334c0 10.24 6.826667 17.066667 17.066666 17.066666s17.066667-6.826667 17.066667-17.066666v-341.333334c0-10.24-6.826667-17.066667-17.066667-17.066666zM785.066667 580.266667c-10.24 0-17.066667 6.826667-17.066667 17.066666v341.333334c0 10.24 6.826667 17.066667 17.066667 17.066666s17.066667-6.826667 17.066666-17.066666v-341.333334c0-10.24-6.826667-17.066667-17.066666-17.066666zM716.8 580.266667c-10.24 0-17.066667 6.826667-17.066667 17.066666v409.6c0 10.24 6.826667 17.066667 17.066667 17.066667s17.066667-6.826667 17.066667-17.066667v-409.6c0-10.24-6.826667-17.066667-17.066667-17.066666z" fill="" p-id="3705"></path><path d="M512 580.266667c-10.24 0-17.066667 6.826667-17.066667 17.066666v409.6c0 10.24 6.826667 17.066667 17.066667 17.066667s17.066667-6.826667 17.066667-17.066667v-409.6c0-10.24-6.826667-17.066667-17.066667-17.066666zM648.533333 580.266667c-10.24 0-17.066667 6.826667-17.066666 17.066666v341.333334c0 10.24 6.826667 17.066667 17.066666 17.066666s17.066667-6.826667 17.066667-17.066666v-341.333334c0-10.24-6.826667-17.066667-17.066667-17.066666zM580.266667 580.266667c-10.24 0-17.066667 6.826667-17.066667 17.066666v341.333334c0 10.24 6.826667 17.066667 17.066667 17.066666s17.066667-6.826667 17.066666-17.066666v-341.333334c0-10.24-6.826667-17.066667-17.066666-17.066666z" fill="" p-id="3706"></path><path d="M785.066667 1006.933333m-17.066667 0a17.066667 17.066667 0 1 0 34.133333 0 17.066667 17.066667 0 1 0-34.133333 0Z" fill="" p-id="3707"></path><path d="M853.333333 1006.933333m-17.066666 0a17.066667 17.066667 0 1 0 34.133333 0 17.066667 17.066667 0 1 0-34.133333 0Z" fill="" p-id="3708"></path><path d="M580.266667 1006.933333m-17.066667 0a17.066667 17.066667 0 1 0 34.133333 0 17.066667 17.066667 0 1 0-34.133333 0Z" fill="" p-id="3709"></path><path d="M648.533333 1006.933333m-17.066666 0a17.066667 17.066667 0 1 0 34.133333 0 17.066667 17.066667 0 1 0-34.133333 0Z" fill="" p-id="3710"></path></svg>