<?xml version="1.0" standalone="no"?><!DOCTYPE svg PUBLIC "-//W3C//DTD SVG 1.1//EN" "http://www.w3.org/Graphics/SVG/1.1/DTD/svg11.dtd"><svg t="1597304035273" class="icon" viewBox="0 0 1024 1024" version="1.1" xmlns="http://www.w3.org/2000/svg" p-id="11552" xmlns:xlink="http://www.w3.org/1999/xlink" width="200" height="200"><defs><style type="text/css"></style></defs><path d="M113.777778 119.466667h796.444444c34.133333 0 56.888889 22.755556 56.888889 56.888889V398.222222c-39.822222 0-62.577778 22.755556-62.577778 56.888889s22.755556 56.888889 62.577778 56.888889v233.244444c0 34.133333-22.755556 56.888889-56.888889 56.888889H113.777778c-34.133333 0-56.888889-22.755556-56.888889-56.888889V512c39.822222 0 62.577778-17.066667 62.577778-56.888889S96.711111 398.222222 56.888889 398.222222V170.666667c0-28.444444 22.755556-51.2 56.888889-51.2z m733.866666 341.333333c0-51.2 22.755556-85.333333 62.577778-102.4V176.355556H113.777778v182.044444c39.822222 17.066667 62.577778 51.2 62.577778 102.4S153.6 546.133333 113.777778 563.2v182.044444h796.444444V563.2c-39.822222-17.066667-62.577778-51.2-62.577778-102.4zM494.933333 529.066667c0 28.444444-11.377778 51.2-28.444444 73.955555-11.377778 22.755556-39.822222 34.133333-73.955556 34.133334v51.2h-39.822222v-51.2c-56.888889-5.688889-91.022222-39.822222-102.4-96.711112l62.577778-17.066666c5.688889 34.133333 28.444444 56.888889 62.577778 56.888889 17.066667 0 28.444444-5.688889 34.133333-11.377778 5.688889-5.688889 11.377778-17.066667 11.377778-28.444445s-5.688889-22.755556-11.377778-28.444444c-5.688889-5.688889-22.755556-11.377778-51.2-22.755556-22.755556-5.688889-39.822222-17.066667-56.888889-22.755555-11.377778-5.688889-22.755556-17.066667-34.133333-34.133333-5.688889-11.377778-11.377778-28.444444-11.377778-51.2s5.688889-45.511111 22.755556-68.266667c17.066667-17.066667 39.822222-34.133333 68.266666-34.133333v-39.822223h39.822222V284.444444c45.511111 5.688889 79.644444 34.133333 91.022223 79.644445l-56.888889 22.755555C415.288889 358.4 398.222222 341.333333 375.466667 341.333333c-11.377778 0-22.755556 5.688889-28.444445 11.377778-5.688889 5.688889-11.377778 17.066667-11.377778 28.444445s5.688889 17.066667 11.377778 22.755555c5.688889 5.688889 22.755556 11.377778 45.511111 22.755556s45.511111 17.066667 56.888889 28.444444c11.377778 5.688889 22.755556 17.066667 34.133334 34.133333 5.688889 5.688889 11.377778 22.755556 11.377777 39.822223z m85.333334-267.377778h170.666666c17.066667 0 28.444444 11.377778 28.444445 28.444444s-11.377778 28.444444-28.444445 28.444445h-170.666666c-17.066667 0-28.444444-11.377778-28.444445-28.444445s17.066667-28.444444 28.444445-28.444444z m0 170.666667h170.666666c17.066667 0 28.444444 11.377778 28.444445 28.444444s-11.377778 28.444444-28.444445 28.444444h-170.666666c-17.066667 0-28.444444-11.377778-28.444445-28.444444s17.066667-28.444444 28.444445-28.444444z m0 170.666666h170.666666c17.066667 0 28.444444 11.377778 28.444445 28.444445s-11.377778 28.444444-28.444445 28.444444h-170.666666c-17.066667 0-28.444444-11.377778-28.444445-28.444444s17.066667-28.444444 28.444445-28.444445zM256 853.333333h512c17.066667 0 28.444444 11.377778 28.444444 28.444445s-11.377778 28.444444-28.444444 28.444444h-512c-17.066667 0-28.444444-11.377778-28.444444-28.444444s11.377778-28.444444 28.444444-28.444445z" fill="#999999" p-id="11553"></path></svg>