<?xml version="1.0" standalone="no"?><!DOCTYPE svg PUBLIC "-//W3C//DTD SVG 1.1//EN" "http://www.w3.org/Graphics/SVG/1.1/DTD/svg11.dtd"><svg t="1596908816891" class="icon" viewBox="0 0 2457 1024" version="1.1" xmlns="http://www.w3.org/2000/svg" p-id="4387" xmlns:xlink="http://www.w3.org/1999/xlink" width="479.8828125" height="200"><defs><style type="text/css"></style></defs><path d="M1617.92 320.853333l27.306667-17.066666-3.413334-3.413334c-23.893333-34.133333-51.2-54.613333-54.613333-54.613333h-3.413333l-23.893334 17.066667 3.413334 3.413333c3.413333 0 37.546667 30.72 54.613333 54.613333zM1102.506667 382.293333l23.893333-17.066666v-3.413334c-27.306667-34.133333-54.613333-47.786667-58.026667-47.786666l-23.893333 20.48 3.413333 3.413333c0-3.413333 40.96 23.893333 54.613334 44.373333zM1133.226667 409.6l-27.306667-17.066667v3.413334s-17.066667 68.266667-47.786667 112.64v3.413333l27.306667 20.48 3.413333-3.413333c27.306667-51.2 44.373333-116.053333 44.373334-119.466667zM2310.826667 293.546667v-27.306667h-143.36v27.306667zM2071.893333 348.16c23.893333-17.066667 51.2-47.786667 78.506667-88.746667v-3.413333l-20.48-17.066667v3.413334c-20.48 34.133333-47.786667 61.44-78.506667 85.333333l-3.413333 3.413333 23.893333 17.066667zM1716.906667 389.12v30.72h40.96v75.093333c0 6.826667 0 10.24-3.413334 13.653334v3.413333l17.066667 27.306667 58.026667-30.72V477.866667s-30.72 17.066667-37.546667 20.48v-75.093334h40.96v-30.72h-40.96v-27.306666h34.133333v-30.72h-61.44c3.413333-6.826667 6.826667-13.653333 6.826667-17.066667h58.026667v-30.72h-47.786667c3.413333-17.066667 3.413333-34.133333 3.413333-34.133333v-3.413334l-27.306666-6.826666v3.413333c-3.413333 54.613333-20.48 92.16-51.2 119.466667l-3.413334 3.413333c-3.413333-3.413333 13.653333 20.48 13.653334 20.48z m3.413333 0c10.24-10.24 20.48-17.066667 23.893333-27.306667h13.653334v27.306667h-37.546667zM2160.64 341.333333v30.72h81.92v129.706667c0 3.413333 0 3.413333-3.413333 3.413333h-51.2l10.24 30.72h20.48c13.653333 0 23.893333 0 30.72-3.413333 6.826667 0 13.653333-3.413333 17.066666-10.24 3.413333-6.826667 6.826667-10.24 6.826667-20.48v-133.12h58.026667V341.333333h-170.666667z" fill="#143568" p-id="4388"></path><path d="M1652.053333 535.893333l20.48-23.893333h-3.413333c-37.546667-10.24-68.266667-23.893333-95.573333-44.373333 17.066667-20.48 30.72-40.96 44.373333-71.68v-23.893334h-109.226667c0-3.413333 6.826667-17.066667 6.826667-17.066666h143.36v-30.72h-136.533333c3.413333-13.653333 6.826667-37.546667 10.24-68.266667v-3.413333l-30.72-6.826667v3.413333c-3.413333 30.72-6.826667 58.026667-10.24 75.093334h-44.373334c3.413333-6.826667 20.48-58.026667 20.48-58.026667l-27.306666-13.653333-30.72 75.093333v23.893333h71.68c-17.066667 64.853333-51.2 112.64-105.813334 146.773334l-3.413333 3.413333 20.48 23.893333h3.413333c47.786667-34.133333 78.506667-71.68 95.573334-116.053333 10.24 20.48 23.893333 37.546667 37.546666 54.613333-23.893333 20.48-54.613333 34.133333-92.16 44.373334l-3.413333 3.413333 17.066667 23.893333h3.413333c40.96-6.826667 71.68-23.893333 98.986667-51.2 23.893333 17.066667 37.546667 27.306667 51.2 34.133334 13.653333 6.826667 30.72 13.653333 47.786666 17.066666zM1553.066667 443.733333c-10.24-10.24-20.48-23.893333-30.72-44.373333h61.44c-10.24 17.066667-20.48 30.72-30.72 44.373333zM1245.866667 529.066667v-68.266667h44.373333v40.96s-6.826667 3.413333-27.306667 3.413333h-3.413333l10.24 30.72h20.48c6.826667 0 13.653333-3.413333 20.48-6.826666 6.826667-6.826667 10.24-13.653333 10.24-20.48V327.68h-75.093333v-17.066667h95.573333v-27.306666h-27.306667 3.413334v-3.413334c-13.653333-20.48-34.133333-34.133333-37.546667-34.133333h-3.413333l-23.893334 17.066667 3.413334 3.413333s13.653333 10.24 20.48 20.48h-34.133334V238.933333h-30.72v44.373334H1126.4v3.413333c-20.48-20.48-40.96-30.72-40.96-30.72h-3.413333l-20.48 17.066667 3.413333 3.413333s34.133333 23.893333 54.613333 47.786667l3.413334 3.413333s17.066667-10.24 17.066666-13.653333h78.506667v17.066666h-71.68v208.213334h30.72v-75.093334h40.96v68.266667h27.306667z m44.373333-98.986667h-44.373333V409.6h44.373333v20.48z m-44.373333-71.68h44.373333v20.48h-44.373333v-20.48z m-71.68 0h40.96v20.48h-40.96v-20.48z m0 71.68V409.6h40.96v23.893333h-40.96zM1979.733333 529.066667l20.48-27.306667h-3.413333c-30.72-6.826667-47.786667-20.48-61.44-37.546667 17.066667-10.24 30.72-23.893333 44.373333-40.96v-3.413333l-20.48-17.066667h6.826667V256h-133.12v238.933333c0 6.826667-3.413333 10.24-3.413333 10.24h-3.413334l13.653334 27.306667 68.266666-23.893333V477.866667s-40.96 13.653333-47.786666 17.066666v-95.573333h20.48c3.413333 27.306667 13.653333 54.613333 27.306666 78.506667 20.48 27.306667 44.373333 40.96 71.68 51.2z m-116.053333-242.346667h71.68v27.306667h-71.68v-27.306667z m0 85.333333V341.333333h71.68v30.72h-71.68z m61.44 68.266667c-3.413333-10.24-6.826667-23.893333-10.24-37.546667h44.373333c-13.653333 17.066667-23.893333 30.72-34.133333 37.546667zM2167.466667 331.093333l-23.893334-17.066666-3.413333 3.413333c-30.72 44.373333-61.44 75.093333-95.573333 95.573333l-3.413334 3.413334 23.893334 23.893333s23.893333-17.066667 34.133333-23.893333v119.466666h30.72v-146.773333c17.066667-27.306667 30.72-44.373333 37.546667-58.026667zM1440.426667 593.92h-64.853334v184.32H1433.6c30.72 0 58.026667-10.24 75.093333-27.306667 17.066667-17.066667 27.306667-40.96 27.306667-64.853333 3.413333-10.24 0-92.16-95.573333-92.16z m-6.826667 167.253333h-34.133333V614.4h40.96c75.093333 0 78.506667 64.853333 78.506666 75.093333-3.413333 47.786667-44.373333 71.68-85.333333 71.68zM1826.133333 593.92c0 3.413333-78.506667 180.906667-81.92 184.32h23.893334c0-3.413333 20.48-47.786667 20.48-47.786667h95.573333s17.066667 44.373333 20.48 47.786667h23.893333c-3.413333-3.413333-78.506667-184.32-78.506666-184.32h-23.893334z m-34.133333 119.466667l40.96-98.986667 40.96 98.986667h-81.92zM2181.12 679.253333c0-3.413333 75.093333-71.68 92.16-85.333333h-27.306667c-6.826667 6.826667-85.333333 78.506667-88.746666 81.92l-3.413334 3.413333v-85.333333h-20.48v184.32h20.48V682.666667l3.413334 3.413333c3.413333 3.413333 85.333333 88.746667 92.16 95.573333h30.72c-13.653333-17.066667-95.573333-98.986667-98.986667-102.4zM1696.426667 679.253333c20.48-6.826667 30.72-20.48 30.72-40.96 0-27.306667-20.48-44.373333-54.613334-44.373333h-64.853333v184.32H1672.533333c37.546667 0 64.853333-20.48 64.853334-51.2 0-20.48-17.066667-44.373333-40.96-47.786667z m-64.853334-68.266666H1672.533333c23.893333 0 34.133333 17.066667 34.133334 30.72 0 20.48-13.653333 30.72-37.546667 30.72h-37.546667v-61.44z m37.546667 150.186666h-40.96v-71.68H1672.533333c27.306667 0 44.373333 13.653333 44.373334 37.546667-3.413333 34.133333-34.133333 34.133333-47.786667 34.133333zM1157.12 675.84c-20.48-6.826667-40.96-13.653333-40.96-37.546667 0-10.24 6.826667-30.72 40.96-30.72 13.653333 0 27.306667 6.826667 34.133333 17.066667l17.066667-17.066667c-10.24-13.653333-27.306667-20.48-51.2-20.48-44.373333 0-61.44 30.72-61.44 51.2 0 40.96 27.306667 47.786667 54.613333 58.026667 20.48 6.826667 40.96 13.653333 40.96 34.133333 0 23.893333-23.893333 34.133333-40.96 34.133334s-30.72-6.826667-40.96-20.48c-3.413333 0-13.653333 13.653333-17.066666 13.653333 10.24 13.653333 34.133333 23.893333 58.026666 23.893333 37.546667 0 64.853333-23.893333 64.853334-54.613333-6.826667-34.133333-34.133333-40.96-58.026667-51.2zM1300.48 593.92h-64.853333v184.32h20.48v-85.333333h44.373333c51.2 0 58.026667-34.133333 58.026667-51.2 0-13.653333-6.826667-47.786667-58.026667-47.786667z m-6.826667 85.333333h-37.546666v-68.266666h37.546666c10.24 0 44.373333 0 44.373334 34.133333s-34.133333 34.133333-44.373334 34.133333zM2082.133333 754.346667V750.933333c-3.413333-6.826667-98.986667-143.36-105.813333-157.013333H1945.6v184.32h20.48v-160.426667l3.413333 3.413334c3.413333 6.826667 98.986667 143.36 109.226667 157.013333h27.306667v-184.32H2082.133333v160.426667z" fill="#143568" p-id="4389"></path><path d="M610.986667 440.32c47.786667-40.96 105.813333-37.546667 122.88-34.133333-6.826667-20.48-40.96-95.573333-143.36-95.573334-58.026667 0-95.573333 30.72-116.053334 54.613334-23.893333 30.72-30.72 64.853333-34.133333 85.333333-6.826667 88.746667-54.613333 129.706667-61.44 133.12-51.2 44.373333-105.813333 37.546667-122.88 34.133333 10.24 23.893333 44.373333 98.986667 146.773333 95.573334 40.96 0 75.093333-17.066667 105.813334-47.786667 34.133333-34.133333 40.96-85.333333 40.96-98.986667 10.24-71.68 47.786667-112.64 61.44-126.293333z" fill="#143568" p-id="4390"></path><path d="M293.546667 447.146667c58.026667-47.786667 116.053333-44.373333 139.946666-40.96-10.24-23.893333-54.613333-95.573333-150.186666-95.573334-88.746667 0-146.773333 78.506667-146.773334 150.186667v269.653333c0 17.066667 13.653333 27.306667 13.653334 27.306667L228.693333 819.2s17.066667 13.653333 17.066667-6.826667v-245.76-6.826666c-3.413333-17.066667 3.413333-71.68 47.786667-112.64zM863.573333 300.373333c0-17.066667-13.653333-27.306667-13.653333-27.306666l-78.506667-61.44s-17.066667-13.653333-17.066666 6.826666v245.76c0 17.066667-3.413333 71.68-51.2 112.64-58.026667 47.786667-116.053333 44.373333-139.946667 40.96 10.24 23.893333 54.613333 95.573333 150.186667 95.573334 88.746667 0 146.773333-78.506667 146.773333-150.186667 3.413333 0 3.413333-136.533333 3.413333-262.826667z" fill="#143568" p-id="4391"></path></svg>