<?xml version="1.0" standalone="no"?><!DOCTYPE svg PUBLIC "-//W3C//DTD SVG 1.1//EN" "http://www.w3.org/Graphics/SVG/1.1/DTD/svg11.dtd"><svg t="1596909052314" class="icon" viewBox="0 0 3734 1024" version="1.1" xmlns="http://www.w3.org/2000/svg" p-id="11548" xmlns:xlink="http://www.w3.org/1999/xlink" width="729.296875" height="200"><defs><style type="text/css"></style></defs><path d="M1346.732062 75.33515c-25.111717-0.930064-24.181653 4.650318-24.181653 9.300636s4.650318 11.160763 8.370572 25.111716c1.860127 7.440509 8.370572 16.741144 13.02089 71.614896 0.930064 21.391462 0.930064 43.712988 0.930064 57.663942-16.741144 1.860127-121.838329 11.160763-126.488647 12.090826-44.643052-16.741144-74.405086-13.950954-77.195277-1.860127-1.860127 6.510445 1.860127 12.090827 6.510445 22.321526 0 0 24.181653 75.33515 34.412352 156.250681 7.440509 43.712988 18.601272 59.524069 22.321526 62.31426 5.580381 4.650318 10.230699 9.300636 19.531335 4.650318 5.580381-2.790191 13.02089-11.160763 18.601272-31.622162 13.950954-0.930064 80.915531-6.510445 98.586739-8.370572-2.790191 183.222525 10.230699 214.844687 13.02089 226.935513 1.860127 6.510445 4.650318 10.230699 7.440509 9.300636 3.720254 0 8.370572-5.580381 12.090827-11.160763 5.580381-9.300636 12.090827-17.671208 17.671208-64.174387 2.790191-26.04178 4.650318-29.762035 6.510445-72.544959l0.930063-42.782925c0-18.601272 0-35.342416-0.930063-51.153497 57.663942-3.720254 104.167121-4.650318 123.698456-4.650317 26.04178 0 49.29337 5.580381 55.803814 0.930063 7.440509-5.580381 3.720254-15.811081-0.930063-26.04178-2.790191-5.580381-6.510445-13.02089-13.950954-24.181653 32.552225-53.943688 49.29337-94.866485 55.803815-103.237057l7.440508-6.510445c10.230699-9.300636 12.090827-13.02089 13.02089-16.741145 0.930064-3.720254-4.650318-11.160763-4.650317-11.160763-15.811081-19.531335-42.782925-36.27248-81.845595-52.08356l-4.650318-0.930064c-3.720254 0-15.811081 5.580381-15.811081 5.580382-3.720254 1.860127-33.482289 8.370572-127.41871 20.461398 3.720254-72.544959 9.300636-88.35604 11.160763-93.006357 0.930064-1.860127 1.860127-3.720254 3.720254-6.510445 1.860127-3.720254 3.720254-7.440509 3.720254-9.300636 0-2.790191-1.860127-6.510445-3.720254-8.370572-22.321526-30.692098-51.153497-37.202543-72.544959-38.132607m-1.860127 203.683924c0 18.601272-1.860127 114.39782-1.860128 129.278837-14.881017 1.860127-87.425976 7.440509-103.237057 9.300636-1.860127-16.741144-5.580381-109.747502-7.440508-125.558583 15.811081-0.930064 93.936421-10.230699 112.537693-13.02089m179.50227-11.160763c0 0.930064 0.930064 3.720254 0.930064 7.440508 0 6.510445-0.930064 15.811081-3.720254 31.622162-7.440509 31.622162-15.811081 73.475023-20.461399 79.055404-3.720254 1.860127-26.04178 7.440509-100.446867 16.741145 0-18.601272 2.790191-116.257947 2.790191-131.138965 84.635786-8.370572 115.327884-5.580381 120.908265-3.720254M2036.839237 119.048138c-12.090827 3.720254-5.580381 10.230699-5.580381 10.230699 28.831971 35.342416 52.08356 56.733878 90.216167 76.265214h6.510445c8.370572-1.860127 22.321526-10.230699 22.321526-37.202543V167.411444c-0.930064-15.811081-8.370572-29.762035-22.321526-40.922797-8.370572-7.440509-23.251589-12.090827-43.712988-13.950954-20.461399 0.930064-33.482289 2.790191-47.433243 6.510445M1858.26703 120.908265c0 2.790191 0.930064 7.440509 1.860127 18.601272 0 0 0.930064 7.440509-0.930063 14.881017-0.930064 8.370572-19.531335 66.034514-44.643052 107.887375-22.321526 38.132607-57.663942 92.076294-93.006358 132.069028-18.601272 21.391462-22.321526 24.181653-28.831971 30.692098-5.580381 5.580381-13.950954 11.160763-10.230699 14.881018 1.860127 3.720254 26.971844 0 61.384196-22.321526 26.04178-17.671208 53.943688-42.782925 91.146231-88.35604 1.860127 16.741144 3.720254 36.27248 3.720254 58.594005 0.930064 11.160763 0.930064 23.251589 0.930063 34.412353v10.230699c0 13.950954-0.930064 26.04178-1.860127 37.202543-1.860127 35.342416-8.370572 75.33515-17.671208 111.60763l-1.860127 8.370572v0.930063c2.790191 39.06267 26.971844 69.754768 35.342416 71.614896 6.510445 1.860127 15.811081-13.02089 15.811081-13.02089 5.580381-9.300636 13.02089-22.321526 14.881017-56.733878v-0.930064c2.790191-202.75386 4.650318-245.536785 5.580382-251.117166v-1.860127l0.930063-10.2307v-0.930063c0-13.950954-7.440509-28.831971-23.251589-45.573116 0-0.930064 0.930064-1.860127 0.930063-1.860127 13.950954-18.601272 23.251589-33.482289 29.762035-43.712988 10.230699-13.950954 19.531335-27.901907 29.762034-41.852861 9.300636-13.02089 10.230699-13.950954 11.160763-19.531335 0 0 0-2.790191-0.930063-5.580382-7.440509-29.762035-33.482289-47.433243-69.754769-56.733878 1.860127 0.930064-10.230699-1.860127-10.230699 8.370572" fill="#140700" p-id="11549"></path><path d="M2187.509537 217.634877c-20.461399 4.650318-137.64941 26.04178-253.907357 37.202544-13.02089 0.930064-23.251589 1.860127-26.04178 4.650317-3.720254 3.720254-10.230699 8.370572-0.930064 17.671208 0 0 26.971844 24.181653 48.363306 29.762035h3.720254c15.811081-1.860127 24.181653-5.580381 35.342416-8.370572 11.160763-3.720254 36.27248-6.510445 36.27248-6.510445 74.405086-15.811081 106.957312-23.251589 217.634877-20.461399 0 0 24.181653 2.790191 33.482289 2.790191s23.251589 1.860127 29.762035-10.2307c4.650318-9.300636-3.720254-21.391462-11.160763-28.831971-10.230699-10.230699-41.852861-29.762035-72.544959-25.111716-20.461399 2.790191-18.601272 2.790191-39.992734 7.440508M2176.348774 310.641235c-13.02089 0.930064-62.31426 7.440509-93.006358 14.881017-31.622162 8.370572-69.754768 13.02089-86.495913 13.950954-6.510445 0.930064-20.461399 2.790191-24.181653 8.370572-1.860127 2.790191 0.930064 12.090827 8.370572 19.531336 0 0 14.881017 14.881017 44.643052 13.950953 0 0 88.35604-6.510445 148.810173-15.811081l21.391462-2.79019c13.02089-2.790191 26.04178-1.860127 31.622162-7.440509 4.650318-4.650318-1.860127-16.741144-9.300636-25.111717-9.300636-10.230699-22.321526-19.531335-41.852861-19.531335M2173.558583 394.346957c-2.790191 0-62.31426 4.650318-122.768392 19.531335-35.342416 9.300636-42.782925 10.230699-44.643052 10.2307-17.671208 2.790191-29.762035 0.930064-30.692098 10.230699 0 0.930064 0.930064 4.650318 1.860127 6.510445 1.860127 4.650318 6.510445 8.370572 10.230699 12.090827l1.860128 1.860127c12.090827 7.440509 19.531335 9.300636 37.202543 8.370572h0.930063c52.08356-5.580381 146.950045-13.02089 174.851953-19.531335l8.370572-1.860127c10.230699-1.860127 17.671208-1.860127 17.671208-10.2307 0-8.370572-7.440509-16.741144-13.02089-23.251589l-0.930063-0.930064c-7.440509-7.440509-17.671208-16.741144-40.922798-13.02089M2164.257947 483.633061s-95.796549 20.461399-153.46049 23.251589c-1.860127 0-5.580381-0.930064-14.881017-1.860127-25.111717-3.720254-35.342416-2.790191-39.062671 0.930064h-0.930063c-7.440509 7.440509-1.860127 13.950954 0 18.601271l4.650318 10.2307c1.860127 5.580381 6.510445 16.741144 26.04178 97.656675 4.650318 21.391462 11.160763 33.482289 19.531335 40.922798l5.580381 2.790191c4.650318 0.930064 8.370572-1.860127 12.090827-5.580382 3.720254-3.720254 4.650318-10.230699 11.160763-21.391462 49.29337-4.650318 119.978202-7.440509 142.299727-9.300636 46.503179-2.790191 53.013624-5.580381 54.873752-13.950954 1.860127-5.580381-4.650318-17.671208-12.090827-29.762034 18.601272-26.971844 17.671208-27.901907 26.04178-37.202543 8.370572-10.230699 20.461399-17.671208 22.321526-27.901908 1.860127-10.230699-25.111717-36.27248-76.265213-55.803814l-2.790191-0.930064c-2.790191 0.930064-9.300636 3.720254-25.111717 9.300636m-116.257947 61.384196c65.10445-12.090827 120.908265-12.090827 129.278837-11.160763-4.650318 24.181653-5.580381 46.503179-13.02089 62.31426-18.601272 2.790191-83.705722 7.440509-126.488646 13.02089-1.860127-13.950954-6.510445-48.363306-8.370573-61.384196 8.370572-0.930064 18.601272-2.790191 18.601272-2.790191M3286.844687 80.915531c-6.510445-1.860127-12.090827 0-14.881018 2.790191-3.720254 2.790191-6.510445 15.811081-4.650318 26.971844 0.930064 7.440509-1.860127 13.02089-16.741144 37.202543-28.831971 40.922797-70.684832 82.775658-84.635786 96.726612-13.950954 12.090827-45.573115 36.27248-41.852861 41.852861 3.720254 5.580381 42.782925-4.650318 67.894642-16.741144 17.671208-8.370572 44.643052-29.762035 93.006357-75.33515 12.090827-11.160763 25.111717-24.181653 40.922798-35.342416 16.741144-12.090827 15.811081-23.251589 16.741144-26.971844 0.930064-2.790191-0.930064-9.300636-0.930063-9.300636-20.461399-30.692098-41.852861-39.06267-54.873751-41.852861M3547.262489 140.4396c-6.510445 1.860127-15.811081 4.650318-32.552226 12.090827h-0.930063c-14.881017 6.510445-74.405086 25.111717-115.327884 35.342416-17.671208 3.720254-34.412352 5.580381-34.412352 13.02089-0.930064 8.370572 6.510445 14.881017 13.950953 20.461399 8.370572 5.580381 27.901907 18.601272 67.894642 9.300635 26.971844-5.580381 161.831063-39.06267 172.061762-47.433242 0 0 5.580381-2.790191 6.510445-7.440509 1.860127-8.370572-15.811081-22.321526-21.391463-26.971843-21.391462-14.881017-49.29337-10.230699-55.803814-8.370573M3271.963669 231.585831c-6.510445 3.720254-11.160763 14.881017-13.02089 21.391462 0 0-3.720254 26.971844-41.852861 78.125341-38.132607 44.643052-48.363306 61.384196-93.936421 96.726612-25.111717 19.531335-46.503179 31.622162-39.06267 36.27248 5.580381 3.720254 45.573115-4.650318 74.405086-17.671208 23.251589-10.230699 28.831971-9.300636 66.034514-48.363306 0.930064 13.02089 1.860127 25.111717 1.860127 37.202543 0 40.922797 3.720254 88.35604-8.370572 124.628519-2.790191 8.370572-4.650318 14.881017-5.580382 15.811081-0.930064 3.720254-2.790191 7.440509-2.79019 11.160763 0 7.440509 2.790191 18.601272 7.440508 26.971844 5.580381 10.230699 14.881017 25.111717 20.461399 31.622162 6.510445 6.510445 13.02089 13.02089 20.461399 11.160762 7.440509-1.860127 16.741144-35.342416 16.741144-68.824704 0.930064-33.482289 0-57.663942 0-125.558583 0-6.510445 0-19.531335 0.930064-28.831971s2.790191-18.601272 2.79019-24.181653c0-17.671208-7.440509-28.831971-21.391462-47.433243 7.440509-7.440509 17.671208-17.671208 29.762035-32.552225 10.230699-12.090827 20.461399-21.391462 28.831971-27.901908 5.580381-4.650318 9.300636-11.160763 10.230699-13.02089 2.790191-4.650318 0-8.370572 0-8.370572-11.160763-26.971844-34.412352-45.573115-40.922798-48.363306 0-1.860127-6.510445-4.650318-13.02089 0M3574.234332 280.879201c-17.671208 5.580381-98.586739 26.04178-219.495004 46.503179-13.950954 1.860127-26.971844 2.790191-29.762035 9.300635-2.790191 7.440509 3.720254 15.811081 9.300636 19.531336 6.510445 4.650318 22.321526 13.950954 42.782925 16.741144h1.860127c8.370572 0 18.601272-2.790191 30.692098-5.580381l1.860127-0.930064c6.510445-2.790191 13.950954-5.580381 73.475023-14.881017 7.440509 25.111717 11.160763 68.824705 13.02089 128.348774v16.741144c0 56.733878-3.720254 75.33515-6.510445 81.845595-3.720254 0-10.230699-1.860127-23.25159-4.650318-30.692098-7.440509-63.244323-25.111717-59.524069-11.160763 1.860127 6.510445 20.461399 24.181653 36.27248 44.643052 12.090827 15.811081 19.531335 24.181653 28.831971 40.922797 9.300636 16.741144 13.02089 32.552225 27.901907 26.971844 13.950954-5.580381 32.552225-18.601272 44.643052-36.27248 8.370572-11.160763 13.950954-24.181653 15.811081-38.132606 1.860127-21.391462-7.440509-53.943688-9.300636-79.985468-1.860127-32.552225-1.860127-57.663942-1.860127-69.754768V418.52861c0-11.160763 1.860127-18.601272 4.650318-30.692098 2.790191-4.650318 3.720254-10.230699 3.720254-14.881017 0-2.790191-0.930064-6.510445-1.860127-9.300636-2.790191-7.440509-7.440509-14.881017-15.811081-21.391462 30.692098-3.720254 56.733878-5.580381 86.495913-5.580382 20.461399 0 39.992734-1.860127 49.29337-0.930063 9.300636 0 34.412352 0 39.992734-9.300636 9.300636-13.950954-1.860127-32.552225-23.25159-46.503179-14.881017-10.230699-39.992734-17.671208-69.754768-11.160763-5.580381 0.930064-36.27248 7.440509-50.223434 12.090827M3054.328792 549.667575c-2.790191-5.580381-15.811081-6.510445-35.342416-11.160763-63.244323-13.02089-85.565849-31.622162-134.859219-67.894641 19.531335-14.881017 33.482289-23.251589 44.643052-33.482289 7.440509-6.510445 16.741144-13.950954 25.111717-21.391462 7.440509-7.440509 15.811081-5.580381 15.81108-13.950954 0.930064-10.230699-13.02089-24.181653-22.321526-31.622162-17.671208-11.160763-35.342416-13.950954-41.852861-9.300636-6.510445 4.650318-4.650318 4.650318-4.650317 7.440509l-0.930064 15.811081c0 2.790191-8.370572 25.111717-41.852861 68.824705-10.230699-7.440509-58.594005-49.29337-72.544959-61.384196-6.510445-5.580381-12.090827-10.230699-16.741145-14.881018 7.440509-1.860127 15.811081-3.720254 15.811081-3.720254 15.811081-3.720254 62.31426-6.510445 66.964578-7.440509 2.790191 2.790191 9.300636 5.580381 11.160763 6.510445 6.510445 3.720254 15.811081-4.650318 19.531335-10.230699 4.650318-5.580381 13.950954-19.531335 18.601272-34.412352 5.580381-20.461399 11.160763-47.433243 17.671208-79.985468 2.790191-13.950954 4.650318-22.321526 5.580381-25.111717 2.790191-10.230699 10.230699-18.601272 15.811081-28.831971 5.580381-11.160763 12.090827-18.601272 12.090826-25.111716l-2.79019-5.580382c-17.671208-17.671208-39.06267-30.692098-73.475023-35.342416l-5.580382 0.930064c-4.650318 0.930064-6.510445 5.580381-13.02089 10.230699l-2.79019 2.790191c-1.860127 1.860127-52.08356 9.300636-118.118075 35.342416-23.251589-9.300636-42.782925-9.300636-51.153497-4.650318-9.300636 6.510445 1.860127 25.111717 4.650318 33.482289 4.650318 11.160763 10.230699 26.04178 13.950954 66.964578 0 0.930064 2.790191 265.998183 2.790191 266.928247-2.790191 38.132607-2.790191 43.712988-16.741145 59.524069-13.950954 15.811081-13.950954 4.650318-11.160763 20.461398 2.790191 15.811081 14.881017 55.803815 26.971844 59.524069 11.160763 2.790191 23.251589-10.230699 34.412352-22.321526 7.440509-10.230699 28.831971-29.762035 51.153497-54.873751 36.27248-40.922797 52.08356-56.733878 50.223434-63.244323-1.860127-5.580381-16.741144-4.650318-88.35604 26.04178 0-25.111717 0.930064-115.327884 0.930063-150.6703 18.601272 19.531335 35.342416 38.132607 50.223433 53.943688 25.111717 27.901907 61.384196 69.754768 92.076295 101.37693 31.622162 33.482289 52.08356 40.922797 131.138964 6.510445 13.02089-9.300636 29.762035-19.531335 26.971844-26.04178m-304.13079-299.480472s-0.930064 0-0.930064 0.930063v-39.06267c52.08356-19.531335 109.747502-22.321526 117.188011-22.321526v6.510445c0 6.510445 0 15.811081-1.860127 31.622162l-2.790191 19.531335-0.930063-0.930064c-7.440509-7.440509-16.741144-17.671208-29.762035-18.601271 0 0-58.594005 21.391462-80.915531 22.321526m0 44.643051c21.391462-7.440509 96.726612-15.811081 101.37693-18.601271 4.650318-1.860127 4.650318-1.860127 6.510445-4.650318-2.790191 16.741144-5.580381 34.412352-9.300636 53.943687-8.370572-0.930064-15.811081-2.790191-28.831971-1.860127-8.370572 0.930064-53.943688 8.370572-69.754768 13.950954v-42.782925z" fill="#140700" p-id="11550"></path><path d="M2677.653043 509.674841c-1.860127-5.580381-15.811081-1.860127-92.076295 32.552225 0.930064-22.321526 1.860127-66.964578 1.860128-78.12534 4.650318-1.860127 9.300636-2.790191 9.300635-2.790191 29.762035-9.300636 57.663942-18.601272 63.244324-20.461399 5.580381-1.860127 15.811081-0.930064 16.741144-9.300636 0.930064-4.650318-5.580381-15.811081-16.741144-26.04178-11.160763-10.230699-24.181653-10.230699-32.552226-7.440508 0 0-6.510445 1.860127-10.230699 3.720254-3.720254 1.860127-1.860127 0.930064-15.811081 6.510445l-13.950953 4.650318c0-1.860127-0.930064-3.720254 1.860127-8.370572 1.860127-5.580381 2.790191-20.461399 4.650318-24.181653 3.720254-12.090827-6.510445-17.671208-8.370573-18.601272 19.531335-4.650318 53.943688-18.601272 53.943688-18.601272 6.510445-3.720254 18.601272-6.510445 21.391462-13.950953 1.860127-6.510445-2.790191-12.090827-11.160763-20.461399-7.440509-7.440509-18.601272-15.811081-39.06267-9.300636-13.950954 4.650318-32.552225 10.230699-32.552225 10.2307-28.831971 9.300636-45.573115 15.811081-60.454133 20.461398 10.230699-14.881017 22.321526-34.412352 32.552225-54.873751 14.881017 3.720254 33.482289 1.860127 101.37693-18.601271 9.300636-2.790191 22.321526-4.650318 25.111717-12.090827 1.860127-3.720254-0.930064-13.950954-10.230699-22.321526-8.370572-8.370572-18.601272-14.881017-29.762035-13.950953-18.601272 1.860127-33.482289 7.440509-58.594005 16.741144-1.860127 0.930064-2.790191 0.930064-3.720255 1.860127 1.860127-4.650318 4.650318-9.300636 6.510446-14.881017 17.671208-39.06267 24.181653-49.29337 27.901907-52.08356 5.580381-7.440509 10.230699-10.230699 10.230699-16.741145s-8.370572-17.671208-21.391462-26.971844c-17.671208-12.090827-38.132607-18.601272-47.433243-19.531335-4.650318-0.930064-9.300636 0-12.090826 0.930064-5.580381 3.720254-3.720254 22.321526-4.650318 37.202543-1.860127 22.321526-3.720254 31.622162-9.300636 49.29337-26.04178 87.425976-68.824705 153.46049-122.768392 217.634877-10.230699 13.02089-31.622162 28.831971-17.671208 27.901907 6.510445 0 27.901907-6.510445 39.06267-13.02089 17.671208-10.230699 39.992734-22.321526 68.824705-53.013624 2.790191 3.720254 7.440509 6.510445 15.811081 8.370572 4.650318 0.930064 13.950954-0.930064 21.391462-1.860127 1.860127 5.580381 2.790191 13.950954 3.720254 21.391463 0.930064 6.510445 1.860127 25.111717 1.860128 39.06267-23.251589 6.510445-50.223433 13.02089-81.845595 19.531335-10.230699 2.790191-24.181653 2.790191-26.041781 10.230699-0.930064 3.720254 2.790191 12.090827 13.950954 23.25159 7.440509 7.440509 19.531335 15.811081 29.762035 13.950954 7.440509-0.930064 28.831971-6.510445 35.342416-9.300636 6.510445-2.790191 20.461399-5.580381 27.901907-8.370572 0 13.02089-0.930064 29.762035-1.860127 40.922797 0 0-0.930064 9.300636-0.930064 11.160763-4.650318 24.181653-11.160763 36.27248-20.461398 42.782925-8.370572 5.580381-13.950954 9.300636-15.811081 13.02089 0 0-1.860127 1.860127-1.860127 8.370572 0.930064 6.510445 6.510445 35.342416 14.881017 48.363306 3.720254 6.510445 7.440509 9.300636 7.440508 9.300636 10.230699 4.650318 21.391462-4.650318 33.482289-18.601272 8.370572-9.300636 16.741144-16.741144 23.25159-23.251589 12.090827-11.160763 32.552225-30.692098 53.013624-50.223434 21.391462-19.531335 31.622162-30.692098 36.272479-36.272479 13.02089-7.440509 17.671208-11.160763 16.741145-15.811081M1316.970027 902.161671l-0.930063-0.930063-0.930064 0.930063c-7.440509 11.160763-15.811081 18.601272-24.181653 24.181653-8.370572 4.650318-17.671208 7.440509-27.901907 7.440509-17.671208 0-31.622162-6.510445-42.782925-19.531335-11.160763-13.02089-15.811081-29.762035-15.811081-51.153497 0-22.321526 5.580381-39.992734 15.811081-53.013624 10.230699-13.02089 24.181653-19.531335 40.922798-19.531335 12.090827 0 22.321526 3.720254 29.762034 10.230699 8.370572 6.510445 14.881017 16.741144 18.601272 29.762035v0.930063h11.160763v-1.860127l-1.860128-51.153497v-1.860127h-10.230699v0.930064c-0.930064 2.790191-2.790191 4.650318-4.650318 5.580381-1.860127 0.930064-2.790191 1.860127-4.650318 1.860127-0.930064 0-10.230699-3.720254-14.881017-4.650318-9.300636-2.790191-19.531335-4.650318-28.831971-4.650317-12.090827 0-24.181653 2.790191-35.342416 8.370572-11.160763 5.580381-20.461399 13.950954-28.831971 24.181653-6.510445 8.370572-11.160763 17.671208-14.881017 26.971844-3.720254 10.230699-4.650318 20.461399-4.650318 30.692098 0 13.02089 2.790191 25.111717 7.440509 36.272479 4.650318 10.230699 12.090827 20.461399 22.321526 28.831971 7.440509 6.510445 15.811081 12.090827 25.111716 14.881017 9.300636 3.720254 19.531335 4.650318 30.692098 4.650318 15.811081 0 28.831971-3.720254 40.922798-10.230699 11.160763-6.510445 21.391462-17.671208 28.831971-30.692098l0.930063-0.930064-0.930063-0.930063-10.2307-5.580382zM1459.269755 780.323342h-1.860127v12.090827h1.860127c7.440509 0 13.02089 1.860127 15.811081 3.720254 2.790191 2.790191 4.650318 6.510445 4.650317 12.090827v43.712988h-79.985467v-43.712988c0-5.580381 1.860127-10.230699 4.650318-12.090827 2.790191-2.790191 8.370572-3.720254 15.81108-3.720254h1.860128v-12.090827h-71.614896v12.090827h1.860127c6.510445 0 12.090827 1.860127 14.881017 3.720254 2.790191 2.790191 3.720254 6.510445 3.720255 12.090827v111.607629c0 5.580381-0.930064 10.230699-3.720255 12.090827-2.790191 2.790191-7.440509 3.720254-14.881017 3.720254h-1.860127v12.090827h71.614896v-12.090827h-1.860128c-7.440509 0-13.02089-1.860127-15.81108-3.720254-2.790191-2.790191-4.650318-6.510445-4.650318-13.02089v-51.153497h79.985467v51.153497c0 5.580381-0.930064 10.230699-4.650317 13.02089-2.790191 2.790191-8.370572 3.720254-15.811081 3.720254h-1.860127v12.090827H1528.09446v-12.090827h-1.860128c-7.440509 0-12.090827-1.860127-14.881017-3.720254-2.790191-2.790191-3.720254-6.510445-3.720254-12.090827v-111.607629c0-5.580381 1.860127-10.230699 3.720254-12.090827 2.790191-2.790191 7.440509-3.720254 14.881017-3.720254h1.860128v-12.090827h-68.824705zM1553.206176 780.323342h-1.860127v12.090827h1.860127c7.440509 0 13.02089 1.860127 15.811081 3.720254 2.790191 2.790191 4.650318 6.510445 4.650318 12.090827v111.607629c0 6.510445-1.860127 10.230699-4.650318 12.090827-2.790191 2.790191-8.370572 3.720254-15.811081 3.720254h-1.860127v12.090827H1623.891008v-12.090827h-1.860127c-7.440509 0-13.02089-1.860127-15.811081-3.720254-2.790191-1.860127-4.650318-6.510445-4.650318-13.02089v-111.60763c0-5.580381 1.860127-10.230699 4.650318-12.090826 2.790191-2.790191 8.370572-3.720254 15.811081-3.720255h1.860127v-11.160763H1553.206176zM1768.050863 780.323342h-0.930064v12.090827h1.860127c7.440509 0 12.090827 1.860127 14.881018 4.650318 2.790191 2.790191 4.650318 7.440509 4.650318 13.950954v88.356039L1693.645777 781.253406l-0.930064-0.930064h-46.503179v12.090827h1.860127c4.650318 0 8.370572 0.930064 11.160763 2.790191 2.790191 0.930064 5.580381 2.790191 7.440509 5.580381v118.118075c0 6.510445-1.860127 11.160763-4.650318 13.02089-2.790191 2.790191-7.440509 3.720254-13.950954 3.720254H1645.28247v12.090827h60.454133v-12.090827h-3.720254c-6.510445 0-11.160763-0.930064-13.950954-3.720254-2.790191-2.790191-4.650318-7.440509-4.650318-13.02089V815.665758l108.817439 134.859219 0.930063 0.930064h12.090827V810.085377c0-6.510445 1.860127-10.230699 4.650318-13.950954 2.790191-2.790191 7.440509-4.650318 14.881017-4.650318h1.860127v-11.160763h-58.594005zM2007.077203 931.923706c-3.720254-2.790191-7.440509-7.440509-10.2307-14.881018L1935.462307 781.253406v-0.930064H1923.37148v0.930064L1860.127157 917.042688c-2.790191 6.510445-6.510445 11.160763-9.300636 13.950954-2.790191 2.790191-7.440509 4.650318-12.090826 4.650318h-1.860127v12.090827h60.454132V936.574024h-1.860127c-7.440509-0.930064-12.090827-2.790191-13.950954-4.650318-1.860127-1.860127-2.790191-3.720254-2.79019-6.510445 0-1.860127 0-3.720254 0.930063-4.650318 0-1.860127 0.930064-3.720254 1.860127-5.580382l8.370573-20.461398h66.034514l9.300636 20.461398c0.930064 1.860127 1.860127 3.720254 1.860127 6.510445 0 1.860127 0.930064 3.720254 0.930063 5.580382 0 2.790191-0.930064 5.580381-3.720254 6.510445-2.790191 1.860127-7.440509 2.790191-13.950954 2.790191h-1.860127v12.090826h76.265214v-12.090826h-1.860128c-7.440509-0.930064-12.090827-1.860127-15.81108-4.650318m-60.454133-54.873751h-51.153497l26.971844-57.663942 24.181653 57.663942zM2289.81653 902.161671h-1.860127l-0.930063 0.930064c-7.440509 11.160763-15.811081 18.601272-24.181653 24.181653-8.370572 4.650318-17.671208 7.440509-27.901908 7.440508-17.671208 0-31.622162-6.510445-42.782924-19.531335-11.160763-13.02089-16.741144-29.762035-16.741145-51.153497 0-22.321526 5.580381-39.992734 15.811081-53.013623 10.230699-13.02089 24.181653-19.531335 40.922798-19.531336 12.090827 0 22.321526 3.720254 29.762034 10.2307 8.370572 6.510445 14.881017 16.741144 18.601272 29.762034v0.930064h11.160763v-1.860127l-1.860128-51.153497v-1.860127h-10.230699v0.930063c-0.930064 2.790191-2.790191 3.720254-4.650318 5.580382-1.860127 0.930064-2.790191 1.860127-4.650318 1.860127-0.930064 0-10.230699-2.790191-14.881017-4.650318-9.300636-2.790191-19.531335-4.650318-28.831971-4.650318-12.090827 0-24.181653 2.790191-35.342416 8.370572-11.160763 5.580381-20.461399 13.950954-28.831971 24.181653-6.510445 8.370572-11.160763 17.671208-14.881017 26.971844-3.720254 10.230699-4.650318 20.461399-4.650318 30.692098 0 13.02089 2.790191 25.111717 7.440509 36.27248 4.650318 11.160763 12.090827 20.461399 22.321526 28.831971 7.440509 6.510445 15.811081 12.090827 25.111716 14.881017 9.300636 3.720254 19.531335 4.650318 30.692098 4.650318 15.811081 0 29.762035-3.720254 40.922798-10.230699 11.160763-6.510445 21.391462-16.741144 28.831971-30.692099l0.930063-0.930063-0.930063-0.930064-8.370573-6.510445zM2323.298819 780.323342h-1.860127v12.090827h1.860127c7.440509 0 13.02089 1.860127 15.811081 3.720254 2.790191 2.790191 4.650318 6.510445 4.650318 12.090827v111.607629c0 5.580381-1.860127 10.230699-4.650318 12.090827-2.790191 2.790191-8.370572 3.720254-15.811081 3.720254h-1.860127v12.090827H2393.983651v-12.090827h-1.860127c-7.440509 0-13.02089-1.860127-15.811081-3.720254-2.790191-2.790191-4.650318-6.510445-4.650318-13.02089v-111.60763c0-5.580381 1.860127-10.230699 4.650318-12.090826 2.790191-2.790191 8.370572-3.720254 15.811081-3.720255h1.860127v-11.160763H2323.298819zM2561.395095 782.18347v-1.860128H2413.514986v1.860128l-1.860127 39.992733v1.860128h12.090827v-0.930064c1.860127-10.230699 5.580381-17.671208 10.230699-21.391462 4.650318-3.720254 13.02089-5.580381 24.181653-5.580382h15.811081V920.762943c0 5.580381-1.860127 10.230699-4.650318 13.02089-2.790191 2.790191-8.370572 3.720254-15.811081 3.720254h-1.860127v12.090827H2524.192552v-12.090827h-1.860127c-7.440509 0-13.02089-1.860127-15.811081-3.720254-2.790191-2.790191-4.650318-6.510445-4.650318-12.090827V796.134423h14.881018c11.160763 0 19.531335 1.860127 24.181653 5.580382 4.650318 3.720254 8.370572 11.160763 10.230699 21.391462v0.930064h11.160763v-1.860128l-0.930064-39.992733zM2583.716621 780.323342h-1.860127v12.090827h1.860127c7.440509 0 13.02089 1.860127 15.811081 3.720254 2.790191 2.790191 4.650318 6.510445 4.650318 12.090827v111.607629c0 5.580381-1.860127 10.230699-4.650318 12.090827-2.790191 2.790191-8.370572 3.720254-15.811081 3.720254h-1.860127v12.090827H2654.401453v-12.090827h-1.860127c-7.440509 0-13.02089-1.860127-15.811081-3.720254-2.790191-2.790191-3.720254-6.510445-3.720254-13.02089v-111.60763c0-5.580381 0.930064-10.230699 4.650318-12.090826 2.790191-2.790191 8.370572-3.720254 15.811081-3.720255h1.860127v-11.160763h-71.614896zM2825.533152 902.161671l-0.930064-0.930063-0.930063 0.930063c-7.440509 11.160763-15.811081 18.601272-24.181654 24.181653-8.370572 4.650318-17.671208 7.440509-27.901907 7.440509-17.671208 0-31.622162-6.510445-42.782924-19.531335-11.160763-13.02089-16.741144-29.762035-16.741145-51.153497 0-22.321526 5.580381-39.992734 15.811081-53.013624 10.230699-13.02089 24.181653-19.531335 40.922797-19.531335 12.090827 0 22.321526 3.720254 29.762035 10.230699 8.370572 6.510445 14.881017 16.741144 18.601271 29.762035v0.930063h11.160763v-1.860127l-1.860127-51.153497v-1.860127H2817.162579v0.930064c-1.860127 2.790191-2.790191 4.650318-4.650317 5.580381-1.860127 0.930064-2.790191 1.860127-4.650318 1.860127-0.930064 0-11.160763-3.720254-14.881018-4.650318-9.300636-2.790191-19.531335-4.650318-28.831971-4.650317-12.090827 0-24.181653 2.790191-35.342415 8.370572-11.160763 5.580381-20.461399 13.950954-28.831971 24.181653-6.510445 8.370572-11.160763 17.671208-14.881018 26.971844-3.720254 10.230699-4.650318 20.461399-4.650318 30.692098 0 13.02089 2.790191 25.111717 7.440509 36.272479 4.650318 11.160763 12.090827 20.461399 21.391462 28.831971 7.440509 6.510445 16.741144 12.090827 26.041781 14.881017 9.300636 3.720254 19.531335 4.650318 30.692098 4.650318 15.811081 0 29.762035-3.720254 40.922797-10.230699 11.160763-6.510445 21.391462-17.671208 28.831971-30.692098l0.930064-0.930064-0.930064-0.930063-10.230699-5.580382zM3064.559491 859.378747c10.230699-2.790191 17.671208-7.440509 22.321526-13.020891 6.510445-6.510445 10.230699-14.881017 10.2307-25.111716 0-13.02089-5.580381-23.251589-15.811081-29.762035-10.230699-7.440509-24.181653-10.230699-43.712988-10.230699H2957.60218v11.160763h1.860127c6.510445 0 12.090827 1.860127 14.881017 3.720254 2.790191 2.790191 3.720254 6.510445 3.720255 12.090827v111.607629c0 5.580381-1.860127 10.230699-3.720255 12.090827-2.790191 2.790191-7.440509 3.720254-14.881017 3.720254h-1.860127v12.090827h85.565849c17.671208 0 32.552225-4.650318 43.712988-13.020891 12.090827-8.370572 17.671208-20.461399 17.671208-33.482288 0-12.090827-3.720254-21.391462-12.090826-28.831971-6.510445-6.510445-15.811081-10.230699-27.901908-13.02089m-33.482288-63.244324c12.090827 0 21.391462 2.790191 27.901907 7.440509 6.510445 4.650318 9.300636 11.160763 9.300636 20.461399 0 9.300636-3.720254 16.741144-10.2307 22.321525-6.510445 4.650318-16.741144 7.440509-29.762034 7.440509h-20.461399v-56.733878h23.25159z m-23.25159 72.544959h27.901907c12.090827 0 22.321526 2.790191 28.831971 8.370573 6.510445 5.580381 10.230699 13.950954 10.2307 23.251589 0 10.230699-3.720254 17.671208-11.160763 23.25159-7.440509 5.580381-19.531335 8.370572-34.412353 8.370572-9.300636 0-14.881017-0.930064-17.671208-2.790191-1.860127-0.930064-3.720254-4.650318-3.720254-13.02089v-47.433243zM3286.844687 931.923706c-3.720254-2.790191-7.440509-7.440509-10.2307-14.881018L3215.229791 781.253406l-0.930063-0.930064H3202.208901v0.930064l-63.244323 135.789282c-2.790191 6.510445-6.510445 11.160763-9.300636 13.950954-2.790191 2.790191-7.440509 4.650318-12.090827 4.650318h-1.860127v12.090827h60.454133V936.574024h-1.860127c-7.440509-0.930064-12.090827-2.790191-14.881018-4.650318-1.860127-1.860127-2.790191-3.720254-2.79019-6.510445 0-1.860127 0-3.720254 0.930063-4.650318 0-1.860127 0.930064-3.720254 1.860127-5.580382l8.370573-20.461398h66.034514l9.300635 20.461398c0.930064 1.860127 1.860127 3.720254 1.860128 6.510445 0 1.860127 0.930064 3.720254 0.930063 5.580382 0 2.790191-0.930064 5.580381-3.720254 6.510445-2.790191 1.860127-7.440509 2.790191-13.950954 2.790191h-1.860127v12.090826h76.265213v-12.090826h-1.860127c-5.580381-0.930064-10.230699-1.860127-13.950953-4.650318m-59.524069-54.873751h-51.153497l26.971844-57.663942 24.181653 57.663942zM3436.584923 780.323342h-1.860127v12.090827h1.860127c7.440509 0 12.090827 1.860127 14.881017 4.650318 2.790191 2.790191 4.650318 7.440509 4.650318 13.950954v88.356039L3361.249773 781.253406v-0.930064h-46.503179v12.090827h1.860127c4.650318 0 8.370572 0.930064 11.160763 2.790191 2.790191 0.930064 5.580381 2.790191 7.440509 5.580381v118.118075c0 6.510445-1.860127 11.160763-4.650318 13.02089-2.790191 2.790191-7.440509 3.720254-13.950954 3.720254H3313.81653v12.090827h60.454133v-12.090827h-3.720254c-6.510445 0-11.160763-0.930064-13.950954-3.720254-2.790191-2.790191-4.650318-7.440509-4.650318-13.02089V815.665758l108.817439 134.859219v0.930064h12.090826V810.085377c0-6.510445 1.860127-11.160763 4.650318-13.950954 2.790191-2.790191 7.440509-4.650318 13.950954-4.650318h1.860127v-11.160763H3436.584923zM3687.702089 936.574024c-5.580381 0-11.160763-1.860127-14.881017-4.650318-4.650318-2.790191-9.300636-9.300636-15.811081-18.601272l-43.712988-66.964578 43.712988-39.06267c4.650318-4.650318 9.300636-7.440509 14.881017-10.230699 4.650318-2.790191 9.300636-3.720254 14.881017-4.650318h0.930064v-12.090827h-73.475023v12.090827h1.860127c9.300636 0.930064 13.02089 1.860127 14.881018 2.790191 1.860127 0.930064 2.790191 2.790191 2.79019 5.580381 0 0.930064-0.930064 2.790191-1.860127 4.650318-1.860127 1.860127-3.720254 4.650318-7.440508 8.370572l-57.663942 52.083561v-57.663942c0-5.580381 0.930064-10.230699 3.720254-12.090827 2.790191-2.790191 7.440509-3.720254 14.881017-3.720254h1.860128v-12.090827h-69.754769v12.090827h1.860127c6.510445 0 12.090827 1.860127 14.881018 3.720254 2.790191 2.790191 3.720254 6.510445 3.720254 12.090827v111.607629c0 5.580381-0.930064 10.230699-3.720254 12.090827-2.790191 2.790191-7.440509 3.720254-14.881018 3.720254h-1.860127v12.090827h69.754769v-12.090827h-1.860128c-7.440509 0-12.090827-1.860127-14.881017-3.720254-2.790191-2.790191-3.720254-6.510445-3.720254-12.090827v-31.622161l24.181653-22.321526 33.482289 51.153496c3.720254 4.650318 4.650318 7.440509 5.580381 9.300636 0.930064 1.860127 0.930064 3.720254 0.930064 4.650318 0 0.930064 0 1.860127-3.720255 3.720254-2.790191 0.930064-7.440509 1.860127-12.090826 1.860128h-1.860127v12.090826h76.265213v-12.090826h-1.860127z" fill="#140700" p-id="11551"></path><path d="M614.772025 319.011807v618.49228c29.762035-7.440509 59.524069-17.671208 86.495913-31.622161V198.103542c-9.300636 4.650318-26.971844 13.02089-41.852861 24.181653-29.762035 23.251589-44.643052 53.943688-44.643052 96.726612M360.864668 222.285195c-14.881017-11.160763-32.552225-19.531335-41.852861-24.181653v707.778384c27.901907 13.02089 56.733878 24.181653 86.495913 31.622161V319.011807c0-42.782925-14.881017-73.475023-44.643052-96.726612" fill="#D7000F" p-id="11552"></path><path d="M682.666667 112.537693c-53.013624-23.251589-111.607629-35.342416-172.991826-35.342416-61.384196 0-119.048138 13.02089-172.061762 35.342416-8.370572 4.650318-19.531335 12.090827-19.531335 25.111717 0 23.251589 31.622162 18.601272 72.544959 50.223433 37.202543 29.762035 55.803815 71.614896 55.803815 118.118074v638.953679c20.461399 2.790191 41.852861 4.650318 63.244323 4.650318s42.782925-1.860127 63.244323-4.650318V305.990917c0-46.503179 19.531335-88.35604 56.733879-118.118074 39.992734-31.622162 72.544959-26.971844 72.544959-50.223433 0-12.090827-11.160763-20.461399-19.531335-25.111717" fill="#D7000F" p-id="11553"></path><path d="M510.604905 981.217075C252.04723 981.217075 41.852861 771.95277 41.852861 513.395095 41.852861 254.837421 251.117166 45.573115 509.674841 45.573115c258.557675 0 467.82198 209.264305 467.82198 467.82198 0.930064 258.557675-209.264305 467.82198-466.891916 467.82198M510.604905 3.720254C228.79564 3.720254 0 231.585831 0 513.395095c0 281.809264 228.79564 510.604905 510.604905 510.604905 281.809264 0 510.604905-228.79564 510.604904-510.604905C1020.279746 231.585831 792.414169 3.720254 510.604905 3.720254" fill="#D7000F" p-id="11554"></path><path d="M74.405086 513.395095c0 155.320618 80.915531 291.1099 202.75386 368.305177V547.807448c-49.29337 0.930064-67.894641 31.622162-73.475022 42.782924-4.650318 9.300636-7.440509 19.531335-15.811081 19.531336-13.950954 0-26.04178-41.852861-26.04178-93.006358s12.090827-93.006358 26.04178-93.006358c8.370572 0 11.160763 10.230699 15.811081 19.531335 5.580381 12.090827 24.181653 41.852861 73.475022 42.782925V145.089918C154.390554 222.285195 74.405086 358.074478 74.405086 513.395095M875.189827 590.590372c-4.650318 9.300636-7.440509 19.531335-15.81108 19.531336-14.881017 0-26.04178-41.852861-26.041781-93.006358s11.160763-93.006358 26.041781-93.006358c8.370572 0 11.160763 10.230699 15.81108 19.531335 5.580381 11.160763 23.251589 40.922797 70.684832 42.782925-8.370572-144.159855-86.495913-268.788374-201.823796-342.263397v736.610354c112.537693-71.614896 190.663034-193.453224 200.893733-333.892825-46.503179 3.720254-64.174387 32.552225-69.754769 43.712988" fill="#D7000F" p-id="11555"></path></svg>