<?xml version="1.0" standalone="no"?><!DOCTYPE svg PUBLIC "-//W3C//DTD SVG 1.1//EN" "http://www.w3.org/Graphics/SVG/1.1/DTD/svg11.dtd"><svg t="1596908927340" class="icon" viewBox="0 0 2560 1024" version="1.1" xmlns="http://www.w3.org/2000/svg" p-id="8022" xmlns:xlink="http://www.w3.org/1999/xlink" width="500" height="200"><defs><style type="text/css"></style></defs><path d="M368.64 286.72s40.96-30.72 112.64-7.68c0 0 23.04 7.68 51.2 33.28l84.48 89.6L570.88 448 440.32 314.88c0-2.56-20.48-28.16-71.68-28.16zM555.52 460.8L501.76 512s-7.68 12.8-15.36 0l-99.84-97.28s-7.68-12.8-15.36-2.56l-99.84 102.4s-7.68 10.24 2.56 15.36l97.28 97.28s7.68 12.8 15.36 2.56l99.84-102.4s2.56-7.68 17.92-7.68h102.4s5.12 104.96-74.24 168.96c0 0-102.4 102.4-245.76 40.96 0 0-138.24-48.64-135.68-225.28 0 0 2.56-117.76 112.64-181.76 0 0 79.36-58.88 140.8-15.36l151.04 153.6z" fill="#003B90" p-id="8023"></path><path d="M1904.64 368.64c7.68 2.56 17.92 7.68 25.6 10.24-2.56 5.12-2.56 10.24-5.12 15.36h43.52v17.92c-23.04 0-46.08-7.68-61.44 5.12 0 2.56-2.56 5.12-2.56 5.12v2.56h61.44v17.92h-35.84v15.36c12.8 0 25.6 2.56 38.4 2.56 0 7.68 0 15.36-2.56 17.92-10.24-2.56-33.28-5.12-38.4 5.12 2.56 7.68-2.56 23.04 2.56 33.28 12.8-7.68 23.04-12.8 35.84-20.48v23.04c0 2.56-2.56 5.12-2.56 7.68-12.8 5.12-51.2 33.28-66.56 23.04-7.68-2.56-10.24-12.8-15.36-17.92 5.12-2.56 10.24-5.12 15.36-5.12v-46.08c-7.68 0-20.48 2.56-25.6-2.56v-15.36c7.68 0 17.92-2.56 25.6-2.56v-15.36c-12.8-2.56-17.92 0-28.16 0-5.12-5.12-10.24-12.8-15.36-17.92 5.12-7.68 15.36-10.24 20.48-15.36 15.36-10.24 23.04-23.04 30.72-43.52z m296.96 2.56c7.68 2.56 17.92 10.24 20.48 17.92-10.24 20.48-38.4 61.44-64 61.44-2.56-5.12-7.68-12.8-10.24-17.92l5.12-5.12c20.48-17.92 38.4-30.72 48.64-56.32z m-1159.68 5.12c43.52 0 89.6 2.56 133.12 2.56 17.92 2.56 48.64-5.12 56.32 7.68 12.8 15.36 2.56 104.96 5.12 135.68 2.56 12.8 2.56 30.72-5.12 35.84-74.24 0-148.48-2.56-220.16-2.56 0-10.24-5.12-79.36-2.56-130.56 0-12.8-2.56-25.6 0-33.28s10.24-12.8 12.8-15.36h20.48z m-209.92 0h20.48c0 7.68 2.56 12.8 2.56 20.48 33.28 5.12 58.88-2.56 89.6 5.12 5.12 17.92 7.68 133.12 0 130.56H857.6v20.48h-38.4c-2.56-2.56 0 0 0-2.56v-17.92h-92.16c0-33.28-2.56-122.88 2.56-128 28.16-15.36 61.44-2.56 87.04-7.68 2.56-5.12 2.56-12.8 5.12-20.48H832z m698.88 58.88h-15.36v30.72c-17.92 0-48.64-5.12-61.44 2.56v7.68c20.48 0 46.08-5.12 64 2.56v17.92h-58.88c0 2.56-2.56 2.56-2.56 5.12h2.56c17.92 7.68 46.08-5.12 58.88 5.12 2.56 5.12 0 12.8 0 17.92h-61.44v7.68h74.24v15.36l-5.12 5.12c-43.52-10.24-104.96 2.56-145.92 0-20.48 0-33.28-10.24-48.64-12.8-10.24 7.68-20.48 12.8-38.4 12.8v-25.6c7.68-2.56 12.8-2.56 17.92-7.68-7.68-10.24-12.8-25.6-12.8-40.96h17.92c2.56 7.68 5.12 20.48 12.8 23.04 5.12-12.8 7.68-30.72 2.56-40.96h-35.84v-20.48c17.92-5.12 35.84-17.92 35.84-38.4h-7.68c-7.68 2.56-23.04 2.56-33.28-2.56 0-5.12 2.56-12.8 2.56-17.92h71.68c0 28.16-10.24 38.4-17.92 53.76h12.8v53.76c-2.56 7.68-12.8 25.6-10.24 30.72 2.56 12.8 56.32 15.36 71.68 10.24v-7.68h-53.76v-17.92c17.92 0 35.84-2.56 53.76-2.56v-5.12h-48.64v-5.12c2.56-7.68-2.56-17.92 7.68-15.36 10.24-2.56 30.72 0 40.96-2.56v-5.12l-2.56-2.56c-15.36 2.56-23.04 0-43.52 0V448h2.56c15.36 0 28.16-2.56 43.52-2.56v-7.68h-51.2v-20.48c15.36 0 43.52 5.12 51.2-5.12-2.56-2.56 0-2.56-2.56-2.56-12.8-5.12-33.28 2.56-43.52-2.56v-17.92c15.36 0 33.28 2.56 46.08-2.56v-7.68h35.84c2.56 7.68 2.56 7.68 10.24 10.24 15.36-2.56 43.52-5.12 51.2 12.8 0 5.12 2.56 10.24 2.56 17.92 7.68 0 12.8 0 15.36 2.56-5.12 2.56-5.12 7.68-5.12 12.8z m286.72-5.12V448c-12.8 0-25.6 2.56-35.84 0-5.12 0-7.68-5.12-12.8-5.12-2.56-5.12-7.68-12.8-7.68-17.92 0-7.68 2.56-17.92 0-25.6h-46.08c-2.56 15.36 0 33.28-10.24 43.52-12.8 2.56-33.28 5.12-46.08 2.56 0-5.12 2.56-10.24 2.56-17.92 25.6 0 15.36-38.4 17.92-53.76h115.2l7.68 7.68c0 15.36-2.56 30.72 0 38.4 0 2.56 2.56 2.56 5.12 5.12 2.56 5.12 5.12 5.12 10.24 5.12z m189.44-53.76c30.72 0 58.88 2.56 89.6 2.56 20.48 15.36 5.12 64 12.8 87.04l-2.56 2.56h-89.6c0 17.92-5.12 46.08 2.56 58.88 12.8-5.12 20.48-10.24 25.6-5.12 2.56 2.56 0 10.24 2.56 17.92-5.12 10.24-58.88 15.36-69.12 12.8 0-5.12-2.56-17.92-2.56-20.48 0-2.56 5.12 0 7.68-2.56v-153.6h23.04z m248.32 23.04v-17.92c40.96-2.56 107.52-5.12 143.36 0v17.92h-143.36z m-604.16 2.56h-71.68c0-10.24 0-15.36 2.56-17.92h69.12v17.92z m-593.92-5.12c-2.56 2.56-7.68 2.56-10.24 10.24-2.56 10.24 0 25.6 0 40.96v87.04h2.56c5.12 2.56 140.8 2.56 148.48 0V401.92h-2.56c-46.08-2.56-92.16-5.12-138.24-5.12z m967.68 0h-7.68v15.36h56.32c0-7.68 0-12.8-2.56-15.36h-46.08z m166.4 158.72c0-17.92 2.56-64-5.12-69.12-5.12 2.56-10.24 5.12-17.92 7.68-5.12-10.24-10.24-15.36-12.8-25.6 35.84-7.68 51.2-43.52 76.8-64 7.68 5.12 12.8 10.24 20.48 17.92-5.12 12.8-23.04 23.04-25.6 35.84v99.84c-12.8-2.56-23.04-2.56-35.84-2.56z m-737.28-140.8h25.6v-7.68h-23.04c-2.56 2.56-2.56 5.12-2.56 7.68z m-266.24 53.76h-30.72v2.56c12.8-2.56 17.92 10.24 30.72 15.36v12.8h-20.48v2.56c7.68 0 17.92-2.56 20.48 2.56v12.8c-5.12 7.68-117.76 7.68-135.68 2.56v-17.92c15.36-2.56 33.28 2.56 43.52-2.56v-35.84c-15.36 0-35.84 2.56-43.52-2.56v-17.92c15.36 0 33.28 5.12 43.52-2.56v-15.36h-43.52v-20.48h133.12v5.12c2.56 5.12 2.56 10.24-2.56 15.36-7.68 2.56-35.84-2.56-43.52 2.56v15.36c15.36 0 28.16 2.56 43.52 2.56 5.12 10.24 5.12 17.92 5.12 23.04z m-401.92-51.2c-7.68 2.56-20.48 0-25.6 5.12 2.56 15.36-5.12 81.92 2.56 92.16 7.68 2.56 38.4 5.12 51.2 0 2.56-10.24 0-30.72 0-51.2 0-17.92 0-35.84-2.56-43.52-7.68 0-15.36 0-25.6-2.56z m74.24 0h-2.56v48.64c0 15.36 0 28.16 2.56 46.08 15.36 2.56 38.4 2.56 53.76 0v-94.72h-53.76z m704 25.6v-17.92h61.44v89.6c10.24-7.68 17.92-15.36 28.16-23.04 0 10.24 2.56 20.48 0 30.72-7.68 12.8-46.08 43.52-66.56 33.28-2.56-5.12-7.68-10.24-10.24-15.36v-2.56c5.12 0 7.68-2.56 12.8-2.56v-53.76c0-12.8 2.56-25.6 0-33.28-5.12-5.12-15.36-5.12-25.6-5.12z m450.56-10.24v12.8l2.56 2.56c7.68 2.56 51.2 0 53.76 0v-12.8h-2.56c-17.92 0-35.84 0-53.76-2.56z m-560.64 2.56c0 5.12 0 7.68 2.56 12.8h23.04v-10.24c-10.24 0-17.92 0-25.6-2.56z m793.6 2.56h156.16v2.56c-2.56 5.12 2.56 12.8 0 15.36-7.68 2.56-23.04-2.56-28.16 0v48.64c0 10.24 2.56 20.48 0 30.72-10.24 25.6-61.44 20.48-89.6 17.92v-17.92c17.92 0 33.28 2.56 48.64-5.12 2.56-25.6 2.56-53.76 0-76.8-25.6-5.12-64 0-89.6 0 2.56-2.56 2.56-10.24 2.56-15.36z m-591.36 35.84c0-10.24 0-17.92 5.12-20.48 51.2 0 102.4 2.56 156.16 2.56v23.04l-40.96 40.96c17.92 5.12 30.72 10.24 53.76 10.24v25.6c-17.92 0-38.4-2.56-56.32-7.68-10.24-2.56-20.48-12.8-33.28-10.24-20.48 5.12-64 28.16-81.92 17.92v-23.04c17.92-2.56 33.28-5.12 48.64-10.24v-2.56c-12.8-12.8-28.16-17.92-38.4-33.28l2.56-2.56c33.28-7.68 46.08 10.24 69.12 20.48 15.36-5.12 28.16-17.92 35.84-28.16v-2.56h-120.32z m-512-5.12c-2.56 7.68-2.56 15.36 0 25.6 7.68 7.68 10.24 7.68 20.48 10.24-5.12-10.24-7.68-17.92-12.8-28.16l5.12-5.12v-2.56h-12.8z m947.2 7.68h23.04v5.12c-7.68 12.8-17.92 25.6-25.6 38.4 10.24 2.56 20.48 7.68 30.72 10.24v25.6c-46.08 0-81.92-40.96-89.6-79.36h25.6c2.56 10.24 10.24 20.48 17.92 25.6 5.12-5.12 10.24-17.92 17.92-25.6z m-888.32 140.8c-7.68 0-10.24 0-15.36-2.56-7.68-33.28-74.24-15.36-61.44 33.28 5.12 17.92 28.16 33.28 48.64 23.04 7.68-5.12 10.24-17.92 17.92-20.48h10.24c-15.36 46.08-81.92 43.52-92.16-5.12-10.24-56.32 56.32-69.12 89.6-33.28 2.56 0 2.56 2.56 2.56 5.12z m483.84-28.16l5.12 5.12v7.68h-12.8v-10.24s5.12-2.56 7.68-2.56z m-872.96 58.88c0 23.04-35.84 48.64-61.44 33.28 0-5.12-25.6-15.36-28.16-43.52v-2.56c2.56-53.76 87.04-61.44 89.6-17.92h-12.8c-10.24-35.84-64-15.36-64 20.48 0 40.96 58.88 48.64 64 10.24h12.8z m23.04-58.88v30.72h7.68c5.12-5.12 20.48-7.68 30.72-5.12 12.8 10.24 7.68 20.48 7.68 35.84 0 12.8 5.12 28.16 0 33.28h-10.24c0-17.92-2.56-35.84-2.56-53.76-15.36-7.68-20.48-2.56-30.72 2.56-5.12 10.24 2.56 46.08-5.12 51.2h-10.24v-89.6c5.12-5.12 7.68-5.12 12.8-5.12z m64 0h7.68v12.8h-10.24v-10.24c0-2.56 0-2.56 2.56-2.56z m1008.64 0c17.92 0 38.4 0 51.2 10.24 5.12 15.36 2.56 20.48-5.12 33.28 5.12 5.12 10.24 10.24 15.36 17.92 0 7.68-2.56 12.8-5.12 20.48-5.12 2.56-7.68 7.68-15.36 7.68-17.92 5.12-38.4 2.56-56.32-2.56 0-30.72-2.56-69.12 0-89.6 2.56 2.56 10.24 2.56 15.36 2.56z m217.6 0h10.24v48.64c2.56 0 2.56-2.56 5.12-2.56 7.68-7.68 17.92-15.36 25.6-20.48h12.8l-2.56 2.56c-7.68 2.56-15.36 10.24-20.48 17.92V640c7.68 5.12 28.16 30.72 25.6 38.4-2.56 0-7.68-2.56-10.24-2.56-7.68-10.24-12.8-20.48-20.48-30.72-5.12 2.56-7.68 5.12-12.8 5.12 0 10.24-2.56 17.92-2.56 28.16-5.12 0-7.68 0-10.24-2.56-2.56-7.68-2.56-76.8 0-87.04z m-701.44 25.6v-17.92c5.12 0 7.68 0 10.24 2.56 0 5.12 2.56 10.24 2.56 15.36 5.12 0 7.68 0 10.24 2.56v5.12h-10.24c0 15.36-5.12 35.84 2.56 46.08 2.56 2.56 5.12 2.56 10.24 2.56v7.68c-10.24 2.56-17.92 2.56-20.48-5.12-7.68-12.8-2.56-33.28-2.56-51.2-2.56 0-5.12-2.56-10.24-2.56 0-5.12-2.56-5.12 7.68-5.12z m220.16-17.92h12.8v15.36h10.24v7.68c-5.12 0-7.68 2.56-12.8 2.56 0 15.36-2.56 35.84 2.56 46.08h10.24v7.68l-2.56 2.56c-10.24 0-15.36 0-17.92-5.12-7.68-12.8-2.56-40.96-2.56-53.76h-10.24v-7.68h10.24v-15.36z m258.56 2.56c-2.56 7.68-2.56 17.92 0 28.16 15.36 0 35.84 2.56 46.08-10.24 0-20.48-23.04-17.92-46.08-17.92z m-171.52 10.24c15.36 2.56 23.04 7.68 33.28 15.36 2.56 28.16 5.12 48.64-25.6 53.76-5.12 2.56-20.48 2.56-28.16-2.56-15.36-10.24-17.92-46.08-2.56-58.88 5.12-2.56 12.8-5.12 23.04-7.68z m-709.12 0c12.8 0 23.04 2.56 28.16 10.24 7.68 10.24 2.56 35.84 2.56 46.08 2.56 0 5.12 2.56 7.68 2.56v5.12c-10.24 2.56-15.36-2.56-20.48-7.68-15.36 7.68-25.6 10.24-43.52 2.56-2.56-5.12-5.12-10.24-5.12-17.92 12.8-20.48 35.84-7.68 51.2-23.04 0-2.56-2.56-5.12-2.56-7.68-12.8-2.56-20.48-5.12-33.28 2.56-2.56 5.12 0 5.12-7.68 5.12h-2.56l7.68-15.36c5.12 2.56 10.24 0 17.92-2.56z m261.12 5.12h10.24v5.12c7.68-2.56 28.16-15.36 40.96-2.56 15.36 10.24 10.24 43.52 7.68 61.44h-12.8c0-12.8 2.56-58.88-12.8-53.76h-15.36c-2.56 5.12-7.68 7.68-7.68 12.8-2.56 12.8 2.56 30.72 0 40.96h-10.24c0-10.24 0-28.16-2.56-33.28 0 46.08-64 48.64-74.24 7.68-10.24-40.96 53.76-61.44 74.24-10.24h2.56V614.4z m92.16-2.56c15.36 0 35.84 0 35.84 17.92h-10.24c-5.12-10.24-20.48-10.24-30.72-7.68 0 2.56-2.56 2.56-2.56 5.12s2.56 5.12 2.56 7.68c15.36 5.12 33.28 10.24 46.08 17.92v12.8c-7.68 23.04-56.32 20.48-58.88-5.12h10.24c5.12 10.24 10.24 10.24 17.92 15.36 10.24-2.56 17.92-2.56 20.48-15.36-15.36-10.24-30.72-10.24-46.08-17.92 0-7.68-2.56-10.24 0-17.92 2.56-7.68 7.68-10.24 15.36-12.8z m435.2 0c10.24 0 15.36 2.56 23.04 7.68 2.56 12.8 7.68 40.96 2.56 58.88h-10.24c0-17.92 2.56-46.08-7.68-53.76-5.12-5.12-12.8-2.56-20.48 0-2.56 2.56-5.12 7.68-10.24 10.24v43.52h-5.12c-5.12 2.56-5.12-2.56-7.68-7.68V614.4h10.24c0 2.56 2.56 5.12 2.56 5.12l23.04-7.68z m-862.72 0c12.8 0 20.48 2.56 28.16 5.12 7.68 17.92 5.12 38.4 5.12 58.88H972.8c-5.12-20.48 2.56-38.4-5.12-53.76l-2.56-2.56c-7.68 0-12.8 2.56-20.48 2.56-10.24 15.36-2.56 43.52-10.24 53.76h-10.24v-64h7.68c2.56 2.56 2.56 2.56 2.56 5.12 5.12 0 10.24-2.56 15.36-5.12z m540.16 0c5.12 2.56 5.12 7.68 0 12.8-7.68-2.56-12.8 2.56-17.92 5.12 0 5.12-2.56 7.68-2.56 12.8 0 12.8 2.56 28.16-2.56 35.84-2.56 0-5.12-2.56-7.68-2.56V614.4h7.68c0 2.56 2.56 5.12 2.56 7.68 7.68-5.12 12.8-5.12 20.48-10.24z m110.08 0c17.92 0 28.16 5.12 33.28 17.92v2.56h-10.24c-5.12-12.8-23.04-15.36-35.84-7.68-10.24 20.48-7.68 33.28 10.24 46.08 7.68 0 15.36-2.56 20.48-7.68 2.56-2.56 5.12-7.68 7.68-10.24 2.56-2.56 5.12 0 10.24 0-5.12 25.6-43.52 35.84-58.88 12.8-12.8-20.48-7.68-40.96 2.56-51.2 5.12 0 12.8 0 20.48-2.56z m396.8 0c17.92 0 28.16 2.56 38.4 7.68 0 10.24 0 35.84 2.56 43.52s5.12 0 7.68 5.12c0 0-2.56 2.56 0 5.12l-2.56 2.56c-7.68 2.56-15.36-2.56-17.92-7.68-15.36 10.24-35.84 10.24-48.64 0v-12.8c12.8-20.48 33.28-10.24 51.2-20.48v-7.68c-2.56 0-5.12-2.56-5.12-2.56-15.36-7.68-25.6 2.56-35.84 10.24h-5.12v-2.56c2.56-5.12 2.56-7.68 7.68-10.24 2.56-5.12 5.12-7.68 7.68-10.24z m87.04 0c10.24 0 15.36 2.56 23.04 5.12 5.12 12.8 10.24 46.08 2.56 61.44h-10.24c0-20.48 2.56-40.96-7.68-53.76h-2.56c-12.8 0-17.92 2.56-25.6 7.68-2.56 12.8-2.56 30.72-2.56 46.08-2.56 0-5.12 2.56-5.12 2.56h-2.56c-5.12-15.36-2.56-40.96-2.56-64 5.12 0 10.24-2.56 10.24 2.56 5.12 2.56 12.8 0 23.04-7.68zM896 614.4c5.12 0 10.24 0 12.8 2.56v64H896V614.4z m783.36 0h12.8v64h-12.8v-64z m-179.2 0h10.24c0 25.6-5.12 61.44 28.16 53.76 5.12-12.8 10.24-35.84 7.68-53.76h12.8c2.56 10.24 5.12 51.2-2.56 64h-7.68v-7.68c-5.12 2.56-7.68 5.12-12.8 7.68-5.12 2.56-12.8 2.56-20.48 2.56-2.56-2.56-7.68-5.12-10.24-7.68-7.68-10.24-10.24-40.96-5.12-58.88z m225.28 5.12c-15.36 10.24-20.48 28.16-10.24 46.08 5.12 2.56 7.68 5.12 12.8 5.12 10.24-2.56 17.92-2.56 20.48-12.8 7.68-12.8 2.56-28.16-2.56-35.84-5.12 0-10.24-2.56-20.48-2.56z m-483.84 2.56c-2.56 0-5.12 2.56-7.68 2.56-15.36 10.24-12.8 30.72-2.56 46.08 15.36 5.12 20.48 5.12 33.28-5.12 2.56-15.36 2.56-23.04 0-35.84-10.24-5.12-15.36-7.68-23.04-7.68z m663.04 15.36v28.16c0 2.56 2.56 2.56 2.56 5.12 25.6 0 40.96 2.56 48.64-15.36-2.56-5.12-2.56-7.68-5.12-12.8-15.36-5.12-28.16-5.12-46.08-5.12z m-865.28 7.68c-12.8 5.12-25.6 2.56-35.84 7.68v10.24c15.36 7.68 25.6 2.56 35.84-5.12 2.56-2.56 5.12-7.68 0-12.8z m983.04 2.56c-10.24 2.56-20.48 5.12-33.28 5.12-2.56 7.68-2.56 12.8 5.12 17.92 12.8 7.68 30.72-5.12 33.28-12.8v-10.24h-5.12z" fill="#231815" p-id="8024"></path></svg>