<?xml version="1.0" standalone="no"?><!DOCTYPE svg PUBLIC "-//W3C//DTD SVG 1.1//EN" "http://www.w3.org/Graphics/SVG/1.1/DTD/svg11.dtd"><svg t="1596908784298" class="icon" viewBox="0 0 2560 1024" version="1.1" xmlns="http://www.w3.org/2000/svg" p-id="3648" xmlns:xlink="http://www.w3.org/1999/xlink" width="500" height="200"><defs><style type="text/css"></style></defs><path d="M715.776 500.736h46.592v23.552h-46.592v70.144h75.776v-23.552h-52.224V547.84h46.592v-70.656h-46.592v-23.552h52.224V430.08h-75.776z" fill="#C6000B" p-id="3649"></path><path d="M796.672 360.448c-83.456 0-151.552 67.584-151.552 151.552 0 83.968 68.096 151.552 151.552 152.064 83.968 0 152.064-68.096 152.064-152.064 0-83.456-68.096-151.552-152.064-151.552z m0.512 280.064c-71.168 0-128.512-57.856-128.512-128.512s57.344-128.512 128.512-128.512c70.656 0 128.512 57.344 128.512 128.512 0 70.656-57.344 128.512-128.512 128.512z" fill="#C6000B" p-id="3650"></path><path d="M803.328 453.632h52.224v23.552H808.96V547.84h46.592v23.552h-52.224v22.528h75.776v-70.656h-46.592v-23.552h46.592V430.08h-75.776z" fill="#C6000B" p-id="3651"></path><path d="M340.48 593.408c19.456 0 34.304-4.608 44.032-14.336 9.728-9.728 11.776-22.016 11.776-30.72 0-18.944-8.192-32.256-23.552-39.424l-0.512-0.512 0.512-0.512c7.168-3.584 16.384-11.264 16.384-33.792 0-12.288-4.608-23.552-13.312-31.232-9.216-8.704-23.04-13.312-39.424-13.312H250.88v163.328l89.6 0.512zM281.6 494.08v-34.304h51.712c9.216 0 24.576 0 24.576 17.92 0 6.656-3.072 11.264-8.704 13.824-5.12 2.56-11.264 2.56-15.872 2.56H281.6z m0 30.208l56.32-0.512c5.12 0 12.8 1.024 18.432 4.608s8.192 9.216 8.192 15.872c0 5.632-1.536 9.728-4.608 12.8-5.632 5.632-15.36 5.632-22.016 5.632h-57.344v-0.512l1.024-37.888zM25.6 430.08h32.768v163.328H25.6V430.08z m58.88 80.384c0 15.872 2.56 28.672 8.192 39.936 4.608 9.216 11.264 16.896 20.48 24.576 14.336 11.776 34.816 17.408 60.928 17.408h44.544v-30.72h-41.984c-23.552 0-40.448-5.632-50.688-17.408-7.168-8.192-10.752-18.944-10.752-32.768 0-14.336 4.096-26.112 12.288-34.304 10.24-10.24 26.624-15.36 49.152-15.36h41.984v-30.72h-43.008c-14.336 0-26.624 1.536-37.376 4.608-10.752 3.072-18.944 7.168-26.112 13.312-10.24 8.704-27.648 28.16-27.648 61.44z m331.776 0c0 15.872 2.56 29.696 8.192 41.472 4.608 10.24 11.776 18.944 20.48 25.6 13.824 10.752 33.28 15.872 60.928 15.872h47.104v-30.72h-44.544c-23.552 0-40.448-6.144-50.688-17.92-7.168-8.192-10.752-19.456-10.752-33.28 0-14.848 4.096-26.624 12.288-35.328 10.24-10.24 26.624-15.36 49.152-15.36h44.544v-30.72h-45.568c-14.336 0-26.624 1.536-37.376 4.608-10.752 3.072-18.944 7.168-26.112 13.312-8.704 7.168-27.648 27.136-27.648 62.464z" fill="#231815" p-id="3652"></path><path d="M1053.184 631.808H2534.4v8.192H1053.184v-8.192z" fill="#C6000B" p-id="3653"></path><path d="M2297.856 417.792h91.136v27.648h-91.136zM1635.328 442.88h61.44v-29.184h-158.72v29.184h62.464v109.056h-67.072v29.696h168.96v-29.696h-67.072zM1186.304 406.528c0.512-2.048 2.56-2.048 2.56-4.096 0-1.024-1.536-2.56-2.048-2.56l-30.208-1.024v34.304h-67.584v110.592h29.184v-10.24h38.4v58.88h30.208v-58.88h38.4v9.728h29.696v-110.592h-68.608v-26.112z m-29.696 99.84h-38.4v-44.032h38.4v44.032z m30.208-44.544h39.424v44.032h-39.424v-44.032zM1427.456 498.688h7.68v-20.992h-29.184v-13.824h33.28v-20.48h-91.136v19.968h33.28v13.824h-28.672v21.504h28.672v27.648h-35.84v19.968h95.744v-20.992c-5.632 0.512-2.048 0.512-8.192 0.512l10.752-9.216c-7.68-10.24-16.384-17.92-16.384-17.92z m-7.168 27.648h-14.336v-27.648h14.336l-11.264 11.264s7.68 8.192 13.312 16.384h-2.048zM2058.752 557.056c0 0.512-3.584-10.24-6.144-23.04-8.704 6.144-14.848 8.192-14.848 8.192v-20.48h23.04v-23.552H2037.76v-14.848h18.944v-24.064h-47.104l9.216-13.312h40.96l0.512-24.576H2032.64c2.048-4.608 4.608-7.168 5.632-7.68 1.536-1.024 3.072-3.072 1.024-5.632-11.264-3.584-17.92-7.168-25.6-9.728-7.68 19.968-19.968 43.52-36.352 61.44 9.216 10.24 11.264 22.528 11.264 22.528 7.168-7.168 9.728-10.24 9.728-10.24v10.752h14.336v14.336h-22.016v23.552h22.528v32.768c-9.216 5.12-22.528 10.752-22.528 10.752 6.656 14.336 9.216 20.992 10.24 23.552 3.072 2.56 5.632-1.536 8.192-2.56 21.504-13.312 42.496-24.576 49.152-28.672l0.512 0.512z" fill="#231815" p-id="3654"></path><path d="M1311.744 589.312h26.112v-7.68h112.128v7.68h26.112v-181.248h-164.352v181.248z m26.112-156.16H1448.96v123.392h-111.104v-123.392zM1858.56 408.064c0-2.048 2.048-2.048 2.048-4.096 0-1.024-1.536-2.56-2.048-2.56 0 0-15.36-0.512-30.72-0.512v16.896h-70.144v24.576h36.352s0.512 1.536 3.584 5.632c0.512 0.512 5.12 9.728 6.144 12.288h-38.4V588.8h26.624v-73.728s5.632 4.608 9.216 13.312c0 0 4.096-0.512 6.656-4.608v47.616h20.992v-4.096h31.232v4.096h19.456c4.608 9.728 4.096 18.432 4.096 18.432h5.632c19.968-0.512 32.768-8.192 32.768-22.528v-107.52h-36.352l8.192-18.432h36.352v-24.576h-71.68v-8.704zM1791.488 506.88v-20.992h26.624c-6.144 8.192-26.624 20.992-26.624 20.992z m67.072 40.448h-30.208v-15.872h30.208v15.872z m4.096-36.864H1827.84s2.56-1.536 9.216-8.704c3.584-0.512 5.12-2.048 3.072-5.12l-11.264-11.264h33.792s-4.608 7.168-12.288 13.824c6.656 5.12 9.728 9.216 12.288 11.264z m33.28 45.568c0 1.024-2.56 4.608-4.608 4.608h-11.264v-36.352l6.144 5.632c5.632-7.168 9.728-13.312 9.728-13.312v39.424z m0-70.144v20.48s-14.336-11.776-28.16-20.48h28.16z m-31.744-42.496l-8.704 17.408h-23.04l-7.68-17.408h39.424zM2137.088 538.112c6.144-4.096 15.36-11.264 18.432-13.312 1.024-0.512 3.584-3.072 4.096-3.072 0.512 0 1.024-1.024 0.512-1.536-3.072-4.096-12.8-16.896-12.8-17.408l-20.992 16.896c-3.072-6.656-5.12-17.92-5.12-17.92l29.184-0.512 0.512-92.672h-86.016v151.552l-12.288 6.144c8.192 14.848 9.728 23.04 9.728 23.04 1.024 1.024 1.024 1.024 1.536 1.024s0 1.024 4.096-2.56c9.728-4.608 35.328-19.456 40.96-23.04 8.192-4.608 1.024-0.512 3.072-2.56-2.56-9.216-1.536-19.456-1.536-19.456 13.312 24.064 28.672 39.424 36.864 46.08 8.192-12.8 19.456-23.04 19.456-23.04-24.576-11.264-29.696-27.648-29.696-27.648z m-47.616-107.008h36.864v14.336h-36.864v-14.336z m0 117.76V501.76h5.632c0 2.56 4.608 22.016 12.288 38.912 0.512 0-9.728 4.608-17.92 8.192z m0-69.632v-13.824h36.864v13.824h-36.864zM2226.688 470.528c13.312-9.216 28.16-24.576 30.208-26.624 2.56-2.048 13.824-14.336 13.824-14.336 5.632-4.096 5.12-3.072 7.68-3.584 3.072-1.024 2.56-3.072 3.072-3.072 1.024-2.048-1.024-3.584-8.704-11.776-3.072-3.072-11.776-11.264-11.776-11.264-12.8 19.456-34.304 37.888-46.08 46.592 6.656 6.656 11.776 24.064 11.776 24.064zM2294.272 467.968c1.024-1.024 3.072-2.048 3.072-2.048 2.048-0.512 3.072-3.072 3.584-4.096 0-1.024-1.536-2.56-10.752-10.24 0 0-1.024-1.024-8.704-9.728-16.896 24.576-41.472 48.128-63.488 62.464 7.168 6.656 12.288 25.6 12.288 25.6l13.824-11.264h0.512v71.168h27.136v-94.208c7.68-7.68 19.456-23.04 19.456-23.04v23.04h50.688v63.488c0 4.608-5.12 5.12-5.12 5.12h-16.384c10.752 12.8 8.704 24.576 9.216 28.672h3.072c17.408-1.024 37.376-1.536 38.4-25.088v-72.704h24.064v-27.136h-100.864z" fill="#231815" p-id="3655"></path></svg>