<?xml version="1.0" standalone="no"?><!DOCTYPE svg PUBLIC "-//W3C//DTD SVG 1.1//EN" "http://www.w3.org/Graphics/SVG/1.1/DTD/svg11.dtd"><svg t="1596909028577" class="icon" viewBox="0 0 2560 1024" version="1.1" xmlns="http://www.w3.org/2000/svg" p-id="10670" xmlns:xlink="http://www.w3.org/1999/xlink" width="500" height="200"><defs><style type="text/css"></style></defs><path d="M391.68 683.52l23.04-102.4h53.76l7.68-35.84h-74.24l-23.04 102.4H240.64l5.12-17.92h120.32l23.04-102.4h92.16l7.68-33.28h-112.64l-23.04 102.4H253.44l5.12-15.36h76.8l17.92-87.04h-79.36l5.12-17.92h120.32l12.8-53.76h89.6l7.68-33.28h-112.64l-15.36 51.2h-97.28l5.12-20.48h79.36l15.36-48.64h128l7.68-33.28h-151.04l-12.8 51.2h-79.36l-23.04 104.96H171.52L153.6 581.12h81.92l-20.48 102.4h176.64z m-209.92-135.68l5.12-17.92h58.88l-5.12 17.92H181.76z m81.92 0l5.12-17.92h58.88l-2.56 17.92h-61.44z" fill="#108C3E" p-id="10671"></path><path d="M622.08 683.52v-76.8h40.96c2.56 0 7.68 2.56 10.24 2.56 2.56 2.56 5.12 5.12 5.12 7.68 2.56 2.56 2.56 7.68 2.56 10.24 0 7.68-2.56 12.8-5.12 17.92-5.12 5.12-12.8 7.68-23.04 7.68h-20.48v30.72h-10.24z m10.24-40.96h20.48c7.68 0 10.24 0 15.36-2.56 2.56-2.56 5.12-5.12 5.12-10.24 0-2.56 0-5.12-2.56-7.68-2.56-2.56-2.56-2.56-7.68-5.12H632.32v25.6zM691.2 645.12c0-12.8 2.56-23.04 10.24-30.72 7.68-7.68 15.36-10.24 25.6-10.24 7.68 0 12.8 2.56 20.48 5.12 5.12 2.56 10.24 7.68 12.8 15.36 2.56 5.12 5.12 12.8 5.12 20.48 0 7.68-2.56 15.36-5.12 20.48-2.56 5.12-7.68 10.24-12.8 15.36-5.12 2.56-12.8 5.12-17.92 5.12-7.68 0-12.8-2.56-20.48-5.12-5.12-2.56-10.24-7.68-12.8-15.36-2.56-7.68-5.12-12.8-5.12-20.48z m12.8 0c0 10.24 2.56 17.92 7.68 23.04 5.12 5.12 10.24 7.68 17.92 7.68 7.68 0 15.36-2.56 17.92-7.68s7.68-12.8 7.68-23.04c0-5.12 0-12.8-2.56-15.36-2.56-5.12-5.12-7.68-10.24-10.24-5.12-2.56-7.68-5.12-12.8-5.12-7.68 0-12.8 2.56-17.92 7.68-5.12 2.56-7.68 12.8-7.68 23.04zM775.68 657.92h10.24c0 5.12 2.56 7.68 2.56 10.24 2.56 2.56 5.12 5.12 7.68 5.12 2.56 2.56 7.68 2.56 12.8 2.56s7.68 0 10.24-2.56c2.56 0 5.12-2.56 7.68-5.12 2.56-2.56 2.56-5.12 2.56-7.68 0-2.56 0-5.12-2.56-5.12-2.56-2.56-2.56-2.56-7.68-5.12-2.56 0-7.68-2.56-12.8-2.56-7.68-2.56-12.8-2.56-15.36-5.12-2.56-2.56-7.68-5.12-7.68-7.68-2.56-2.56-2.56-5.12-2.56-10.24s0-7.68 2.56-10.24c2.56-2.56 5.12-5.12 10.24-7.68 5.12-2.56 10.24-2.56 15.36-2.56 5.12 0 10.24 0 15.36 2.56 5.12 2.56 7.68 5.12 10.24 7.68 2.56 2.56 2.56 7.68 2.56 12.8h-10.24c0-5.12-2.56-7.68-5.12-10.24-5.12-2.56-10.24-2.56-15.36-2.56-5.12 0-10.24 0-12.8 2.56-2.56 2.56-5.12 5.12-5.12 7.68 0 2.56 0 5.12 2.56 7.68 2.56 2.56 7.68 2.56 15.36 5.12s12.8 2.56 17.92 5.12c5.12 2.56 7.68 5.12 10.24 7.68 2.56 2.56 2.56 7.68 2.56 10.24 0 5.12 0 7.68-2.56 12.8-2.56 2.56-5.12 7.68-10.24 7.68-5.12 2.56-10.24 2.56-15.36 2.56-7.68 0-12.8 0-17.92-2.56-5.12-2.56-7.68-5.12-10.24-10.24-2.56-2.56-5.12-7.68-5.12-12.8zM870.4 683.52V614.4h-25.6v-10.24h61.44v10.24h-25.6v69.12H870.4zM901.12 683.52l30.72-76.8h10.24l30.72 76.8h-12.8l-10.24-23.04H921.6l-7.68 23.04h-12.8z m23.04-33.28h25.6l-7.68-20.48c-2.56-7.68-5.12-12.8-5.12-15.36 0 5.12-2.56 10.24-5.12 15.36l-7.68 20.48zM983.04 683.52v-76.8h10.24v69.12h38.4v10.24h-48.64zM1064.96 657.92h10.24c0 5.12 2.56 7.68 2.56 10.24 2.56 2.56 5.12 5.12 7.68 5.12 2.56 2.56 7.68 2.56 12.8 2.56s7.68 0 10.24-2.56c2.56 0 5.12-2.56 7.68-5.12 2.56-2.56 2.56-5.12 2.56-7.68 0-2.56 0-5.12-2.56-5.12-2.56-2.56-2.56-2.56-7.68-5.12-2.56 0-7.68-2.56-12.8-2.56-7.68-2.56-12.8-2.56-15.36-5.12-2.56-2.56-7.68-5.12-7.68-7.68-2.56-2.56-2.56-5.12-2.56-10.24s0-7.68 2.56-10.24c2.56-2.56 5.12-5.12 10.24-7.68 5.12-2.56 10.24-2.56 15.36-2.56 5.12 0 10.24 0 15.36 2.56 5.12 2.56 7.68 5.12 10.24 7.68 2.56 2.56 2.56 7.68 2.56 12.8h-10.24c0-5.12-2.56-7.68-5.12-10.24-5.12-2.56-10.24-2.56-15.36-2.56-5.12 0-10.24 0-12.8 2.56-2.56 2.56-5.12 5.12-5.12 7.68 0 2.56 0 5.12 2.56 7.68 2.56 2.56 7.68 2.56 15.36 5.12s12.8 2.56 17.92 5.12c5.12 2.56 7.68 5.12 10.24 7.68 2.56 2.56 2.56 7.68 2.56 10.24 0 5.12 0 7.68-2.56 12.8-2.56 2.56-5.12 7.68-10.24 7.68-5.12 2.56-10.24 2.56-15.36 2.56-7.68 0-12.8 0-17.92-2.56-5.12-2.56-7.68-5.12-10.24-10.24-2.56-2.56-5.12-7.68-5.12-12.8zM1131.52 683.52l30.72-76.8h10.24l30.72 76.8h-12.8l-10.24-23.04H1152l-7.68 23.04h-12.8z m23.04-33.28h25.6l-7.68-20.48c-2.56-7.68-5.12-12.8-5.12-15.36 0 5.12-2.56 10.24-5.12 15.36l-7.68 20.48zM1226.24 683.52l-30.72-76.8h10.24l20.48 56.32c2.56 5.12 2.56 7.68 5.12 12.8 0-5.12 2.56-7.68 5.12-12.8l20.48-56.32h10.24l-30.72 76.8h-10.24zM1280 683.52v-76.8h10.24v76.8H1280zM1308.16 683.52v-76.8h10.24l40.96 61.44v-61.44h10.24v76.8H1356.8l-40.96-61.44v61.44h-7.68zM1420.8 652.8v-10.24h33.28v28.16c-5.12 5.12-10.24 7.68-15.36 10.24-5.12 2.56-10.24 2.56-15.36 2.56-7.68 0-15.36-2.56-20.48-5.12-5.12-2.56-10.24-7.68-15.36-15.36-2.56-5.12-5.12-12.8-5.12-20.48 0-7.68 2.56-15.36 5.12-20.48 2.56-7.68 7.68-10.24 12.8-15.36 5.12-2.56 12.8-5.12 20.48-5.12 5.12 0 10.24 0 15.36 2.56 5.12 2.56 7.68 5.12 10.24 7.68 2.56 2.56 5.12 7.68 5.12 12.8l-10.24 2.56c0-5.12-2.56-7.68-5.12-10.24-2.56-2.56-5.12-5.12-7.68-5.12-2.56-2.56-7.68-2.56-10.24-2.56-5.12 0-7.68 0-12.8 2.56-2.56 2.56-5.12 2.56-7.68 5.12-2.56 2.56-2.56 5.12-5.12 7.68-2.56 5.12-2.56 10.24-2.56 15.36 0 7.68 0 12.8 2.56 17.92 2.56 5.12 5.12 7.68 10.24 10.24 5.12 2.56 10.24 2.56 15.36 2.56 5.12 0 7.68 0 12.8-2.56s7.68-2.56 10.24-5.12v-15.36h-20.48zM1466.88 657.92h10.24c0 5.12 2.56 7.68 2.56 10.24 2.56 2.56 5.12 5.12 7.68 5.12 2.56 2.56 7.68 2.56 12.8 2.56s7.68 0 10.24-2.56c2.56 0 5.12-2.56 7.68-5.12 2.56-2.56 2.56-5.12 2.56-7.68 0-2.56 0-5.12-2.56-5.12-2.56-2.56-2.56-2.56-7.68-5.12-2.56 0-7.68-2.56-12.8-2.56-7.68-2.56-12.8-2.56-15.36-5.12-2.56-2.56-7.68-5.12-7.68-7.68-2.56-2.56-2.56-5.12-2.56-10.24s0-7.68 2.56-10.24c2.56-2.56 5.12-5.12 10.24-7.68 5.12-2.56 10.24-2.56 15.36-2.56 5.12 0 10.24 0 15.36 2.56 5.12 2.56 7.68 5.12 10.24 7.68 2.56 2.56 2.56 7.68 2.56 12.8h-10.24c0-5.12-2.56-7.68-5.12-10.24-5.12-2.56-10.24-2.56-15.36-2.56-5.12 0-10.24 0-12.8 2.56-2.56 2.56-5.12 5.12-5.12 7.68 0 2.56 0 5.12 2.56 7.68 2.56 2.56 7.68 2.56 15.36 5.12s12.8 2.56 17.92 5.12c5.12 2.56 7.68 5.12 10.24 7.68 2.56 2.56 2.56 7.68 2.56 10.24 0 5.12 0 7.68-2.56 12.8-2.56 2.56-5.12 7.68-10.24 7.68-5.12 2.56-10.24 2.56-15.36 2.56-7.68 0-12.8 0-17.92-2.56-5.12-2.56-7.68-5.12-10.24-10.24-5.12-2.56-5.12-7.68-5.12-12.8zM1571.84 683.52v-76.8h28.16c5.12 0 10.24 0 15.36 2.56l7.68 7.68c2.56 2.56 2.56 7.68 2.56 10.24 0 2.56 0 7.68-2.56 10.24l-7.68 7.68c5.12 2.56 7.68 2.56 10.24 7.68 2.56 2.56 2.56 7.68 2.56 12.8 0 2.56 0 7.68-2.56 10.24-2.56 2.56-2.56 5.12-5.12 7.68-2.56 2.56-5.12 2.56-7.68 2.56-2.56 0-7.68 2.56-12.8 2.56h-28.16z m10.24-46.08h28.16c2.56 0 5.12-2.56 5.12-5.12 2.56-2.56 2.56-5.12 2.56-7.68 0-2.56 0-5.12-2.56-7.68 0-2.56-2.56-2.56-5.12-5.12h-28.16v25.6z m0 35.84h28.16c2.56 0 5.12 0 5.12-2.56 2.56 0 2.56-2.56 5.12-5.12 0-2.56 2.56-5.12 2.56-7.68 0-2.56 0-5.12-2.56-7.68l-5.12-5.12c-2.56 0-7.68-2.56-10.24-2.56H1587.2v30.72zM1635.84 683.52l30.72-76.8h10.24l30.72 76.8h-12.8l-10.24-23.04h-33.28l-7.68 23.04h-7.68z m23.04-33.28h25.6l-7.68-20.48c-2.56-7.68-5.12-12.8-5.12-15.36 0 5.12-2.56 10.24-5.12 15.36l-7.68 20.48zM1715.2 683.52v-76.8h10.24l40.96 61.44v-61.44h10.24v76.8H1766.4l-40.96-61.44v61.44H1715.2zM1794.56 683.52v-76.8h10.24v38.4l38.4-38.4h12.8l-33.28 30.72 33.28 46.08H1843.2l-25.6-38.4-12.8 12.8v25.6h-10.24zM1894.4 645.12c0-12.8 2.56-23.04 10.24-30.72 7.68-7.68 15.36-10.24 25.6-10.24 7.68 0 12.8 2.56 20.48 5.12 5.12 2.56 10.24 7.68 12.8 15.36 2.56 5.12 5.12 12.8 5.12 20.48 0 7.68-2.56 15.36-5.12 20.48-2.56 5.12-7.68 10.24-12.8 15.36-5.12 2.56-12.8 5.12-17.92 5.12-7.68 0-12.8-2.56-20.48-5.12-5.12-2.56-10.24-7.68-12.8-15.36-5.12-7.68-5.12-12.8-5.12-20.48z m10.24 0c0 10.24 2.56 17.92 7.68 23.04 5.12 5.12 10.24 7.68 17.92 7.68 7.68 0 15.36-2.56 17.92-7.68 5.12-5.12 7.68-12.8 7.68-23.04 0-5.12 0-12.8-2.56-15.36-2.56-5.12-5.12-7.68-10.24-10.24-5.12-2.56-7.68-5.12-12.8-5.12-7.68 0-12.8 2.56-17.92 7.68-5.12 2.56-7.68 12.8-7.68 23.04zM1981.44 683.52v-76.8h51.2v7.68h-40.96v25.6h35.84v10.24h-35.84v35.84h-10.24zM2132.48 655.36l10.24 2.56c-2.56 7.68-5.12 15.36-12.8 20.48-5.12 5.12-12.8 7.68-20.48 7.68-7.68 0-15.36-2.56-20.48-5.12-5.12-2.56-10.24-7.68-12.8-15.36-2.56-7.68-5.12-12.8-5.12-20.48 0-7.68 2.56-15.36 5.12-20.48 2.56-5.12 7.68-10.24 12.8-12.8 5.12-2.56 12.8-5.12 17.92-5.12 7.68 0 15.36 2.56 20.48 5.12 5.12 5.12 10.24 10.24 10.24 17.92l-10.24 2.56c-2.56-5.12-5.12-10.24-7.68-12.8-2.56-2.56-7.68-5.12-12.8-5.12s-10.24 2.56-15.36 5.12c-5.12 2.56-7.68 7.68-7.68 12.8-2.56 5.12-2.56 10.24-2.56 15.36 0 7.68 0 12.8 2.56 17.92 2.56 5.12 5.12 7.68 10.24 10.24 5.12 2.56 7.68 2.56 12.8 2.56s10.24-2.56 15.36-5.12c7.68-5.12 10.24-10.24 10.24-17.92zM2155.52 683.52v-76.8h10.24v30.72h40.96v-30.72h10.24v76.8h-10.24v-35.84h-40.96v35.84h-10.24zM2234.88 683.52v-76.8h10.24v76.8h-10.24zM2263.04 683.52v-76.8h10.24l40.96 61.44v-61.44h10.24v76.8h-10.24l-40.96-61.44v61.44h-10.24zM2334.72 683.52l30.72-76.8h10.24l30.72 76.8h-12.8l-10.24-23.04h-33.28l-7.68 23.04h-7.68z m20.48-33.28h25.6l-7.68-20.48c-2.56-7.68-5.12-12.8-5.12-15.36 0 5.12-2.56 10.24-5.12 15.36l-7.68 20.48z" fill="#108C3E" p-id="10672"></path><path d="M798.72 414.72c0 2.56 0 2.56-2.56 2.56s-5.12 2.56-7.68 5.12l-7.68 7.68c-2.56 2.56-2.56 5.12-2.56 5.12l-2.56 2.56c-2.56 2.56-5.12 5.12-5.12 12.8v5.12H739.84c-7.68 0-10.24 0-12.8 2.56-2.56 0-2.56 2.56-2.56 5.12s0 12.8-2.56 23.04c0 12.8-2.56 25.6-2.56 35.84 0 12.8 0 17.92 2.56 20.48v2.56c0 2.56-2.56 5.12-10.24 5.12h-5.12l-2.56-2.56v-7.68c2.56-7.68 2.56-17.92 2.56-30.72V478.72 460.8v-2.56h-2.56s-5.12 0-10.24 2.56-10.24 2.56-12.8 2.56c-2.56 0-2.56 2.56-5.12 2.56s-2.56-2.56-5.12-5.12c-2.56-5.12-5.12-10.24-10.24-15.36-5.12-5.12-7.68-12.8-10.24-20.48-2.56-7.68-5.12-12.8-5.12-15.36 0-2.56 0-5.12 2.56-5.12s5.12-2.56 10.24-2.56 12.8-2.56 23.04-5.12c2.56 0 7.68-2.56 17.92-5.12 2.56 0 2.56-2.56 2.56-7.68v-30.72-5.12s2.56-2.56 5.12-2.56 7.68 0 12.8 2.56c5.12 0 7.68 2.56 7.68 2.56l2.56 2.56s0 2.56-2.56 2.56-2.56 2.56-2.56 5.12V381.44h2.56c10.24 0 17.92-2.56 25.6-2.56s12.8 2.56 20.48 5.12c7.68 2.56 12.8 5.12 17.92 7.68 5.12 15.36 7.68 17.92 7.68 23.04z m-92.16 28.16v-12.8-15.36c0-2.56 0-2.56-2.56-2.56s-5.12 2.56-15.36 5.12c-7.68 2.56-12.8 5.12-15.36 7.68-2.56 2.56-2.56 2.56-2.56 5.12s0 5.12 2.56 10.24c0 5.12 2.56 7.68 2.56 10.24 0 0 2.56 2.56 5.12 2.56s5.12 0 7.68-2.56c2.56 0 7.68-2.56 12.8-2.56 0 0 2.56 0 2.56-2.56 2.56 0 2.56-2.56 2.56-2.56z m20.48 0l17.92-2.56c5.12 0 7.68-2.56 10.24-2.56 2.56 0 2.56-5.12 5.12-7.68 2.56-5.12 2.56-7.68 2.56-12.8 0-2.56 0-5.12-2.56-7.68-2.56-2.56-7.68-2.56-12.8-2.56h-20.48v30.72c-2.56 2.56-2.56 5.12 0 5.12zM1008.64 394.24s0 2.56-2.56 5.12-2.56 10.24-2.56 15.36v128c0 2.56-2.56 5.12-5.12 5.12s-7.68-2.56-15.36-5.12c-7.68-5.12-12.8-7.68-17.92-12.8l-7.68-7.68H980.48c2.56 0 2.56-2.56 2.56-5.12v-7.68-10.24c0-5.12-2.56-15.36-2.56-25.6V435.2c0-15.36-2.56-25.6-2.56-28.16 0-2.56-2.56-7.68-2.56-10.24-2.56-2.56-2.56-5.12-5.12-7.68-2.56-2.56-5.12-2.56-10.24-2.56-10.24 0-23.04 2.56-35.84 5.12-12.8 2.56-20.48 7.68-25.6 10.24-5.12 2.56-7.68 7.68-10.24 10.24 0 2.56-5.12 17.92-7.68 46.08-2.56 12.8-2.56 23.04-2.56 28.16 0 2.56 0 5.12 2.56 10.24 0 2.56 2.56 5.12 2.56 5.12s2.56 2.56 5.12 2.56 5.12 0 10.24-2.56c5.12 0 10.24-2.56 15.36-2.56 5.12-2.56 10.24-2.56 17.92-2.56h33.28c2.56 0 2.56 0 2.56 2.56v12.8c0 2.56-2.56 2.56-5.12 2.56h-20.48c-12.8 0-20.48 0-25.6 2.56-5.12 2.56-12.8 2.56-20.48 2.56-2.56 0-5.12 0-10.24 2.56s-7.68 2.56-7.68 5.12l-2.56 2.56c-5.12 0-7.68-10.24-7.68-28.16v-10.24-28.16-25.6c0-12.8 2.56-20.48 2.56-23.04 0-2.56 2.56-5.12 2.56-7.68 2.56-2.56 2.56-2.56 7.68-5.12l23.04-7.68c15.36-5.12 35.84-7.68 61.44-7.68 10.24 0 17.92 2.56 25.6 5.12 15.36-2.56 17.92 0 17.92 2.56z m-28.16 79.36c0 5.12-2.56 10.24-7.68 7.68h-35.84c-5.12 0-12.8 0-20.48 2.56-7.68 2.56-12.8 2.56-15.36 2.56h-2.56c-2.56 0-5.12-2.56-5.12-5.12s0-5.12 2.56-5.12 5.12 0 10.24-2.56 10.24-2.56 10.24-2.56c2.56 0 2.56-2.56 2.56-5.12s2.56-5.12 2.56-7.68c0-2.56-2.56-2.56-5.12-2.56h-15.36c-2.56 0-2.56 0-2.56-2.56v-5.12c0-5.12 2.56-5.12 5.12-5.12s7.68 0 10.24-2.56c5.12 0 5.12-2.56 7.68-2.56V435.2c0-2.56 0-5.12-2.56-7.68 0-2.56-2.56-2.56-5.12-2.56h-5.12-2.56c-2.56 0-5.12-2.56-5.12-7.68 0-2.56 2.56-5.12 5.12-5.12 5.12 0 10.24-2.56 12.8-5.12 5.12-2.56 10.24-2.56 17.92-5.12 7.68-2.56 12.8-2.56 17.92-2.56 5.12 0 7.68 2.56 7.68 5.12V412.16c0 2.56 0 2.56-2.56 5.12 0 0-2.56 2.56-5.12 2.56s-5.12 0-7.68 2.56c-2.56 2.56-5.12 2.56-7.68 5.12v5.12c0 2.56 0 2.56 2.56 2.56 5.12 0 7.68-2.56 12.8-2.56h7.68s2.56 2.56 2.56 5.12 0 5.12-2.56 7.68c-2.56 0-2.56 2.56-2.56 2.56v2.56c0 2.56 0 5.12 2.56 7.68 2.56 2.56 2.56 5.12 5.12 7.68 0 2.56 2.56 2.56 2.56 2.56 7.68 0 10.24 2.56 10.24 5.12z m-23.04-7.68s0-2.56-2.56-5.12-2.56-5.12-2.56-7.68c0-2.56 0-2.56-2.56-2.56H947.2c-2.56 0-2.56 0-2.56 2.56v10.24c0 2.56 0 2.56 2.56 2.56h5.12c0 2.56 2.56 2.56 5.12 0 0 2.56 0 2.56 0 0zM1169.92 419.84v2.56c-2.56 5.12-2.56 12.8-5.12 23.04-2.56 12.8-2.56 20.48-5.12 25.6-2.56 2.56-2.56 5.12-2.56 10.24 0 2.56-2.56 5.12-2.56 5.12s-2.56 0-5.12-2.56-5.12-2.56-7.68-2.56c-2.56 0-5.12-2.56-7.68-2.56-2.56-2.56-5.12-2.56-5.12-2.56-2.56 0-5.12 0-12.8 2.56s-10.24 2.56-12.8 5.12c-2.56 0-2.56 2.56-2.56 2.56-2.56 0-5.12-5.12-10.24-12.8-5.12-10.24-7.68-17.92-10.24-25.6 0-5.12-2.56-7.68-2.56-10.24 0-2.56-2.56-5.12-2.56-5.12 0-2.56 2.56-2.56 5.12-5.12s12.8-5.12 25.6-7.68c2.56 0 2.56-2.56 2.56-5.12v-7.68-25.6c0-5.12 0-7.68 2.56-7.68h2.56c2.56 0 2.56 0 7.68 2.56 2.56 0 5.12 2.56 7.68 2.56l2.56 2.56v2.56c-2.56 7.68-2.56 15.36-2.56 25.6v7.68l2.56 2.56h5.12c7.68 0 12.8 0 17.92 2.56 10.24-7.68 15.36-5.12 15.36-2.56z m-56.32 12.8c0-5.12 0-5.12-2.56-5.12 0 0-2.56 0-7.68 2.56-2.56 2.56-5.12 2.56-5.12 2.56v2.56c0 2.56 0 5.12 2.56 5.12s5.12 0 7.68-2.56c2.56 0 5.12-2.56 5.12-2.56v-2.56z m-7.68 35.84c2.56 0 2.56 0 5.12-2.56 2.56 0 2.56-2.56 5.12-2.56v-5.12c0-2.56 0-5.12-2.56-5.12s-2.56 0-5.12 2.56c-2.56 0-5.12 2.56-5.12 2.56v2.56c-2.56 5.12 0 7.68 2.56 7.68z m33.28-2.56s2.56 0 2.56-2.56 2.56-5.12 2.56-12.8 2.56-12.8 2.56-20.48c0-7.68-2.56-10.24-10.24-10.24-2.56 0-2.56 0-2.56 2.56v10.24h2.56c2.56 0 2.56 0 2.56 2.56v5.12c0 2.56 0 5.12-2.56 7.68-2.56 0-5.12 2.56-5.12 2.56v7.68c0 2.56 0 2.56 2.56 5.12 0-2.56 2.56 0 5.12 2.56-2.56 0-2.56 0 0 0z m99.84 2.56v10.24l-2.56 7.68c0 2.56 0 5.12-2.56 5.12h-2.56c-2.56 0-5.12 0-10.24-2.56s-7.68-2.56-10.24-2.56c-2.56 0-5.12-2.56-7.68-2.56-2.56 0-5.12-2.56-7.68-2.56s-2.56 0-2.56 2.56c0 0 0 7.68-2.56 17.92v28.16c0 7.68 0 12.8 2.56 17.92 0 5.12 2.56 7.68 2.56 10.24 0 5.12-2.56 7.68-5.12 7.68h-5.12c-2.56 0-5.12 0-5.12-2.56v-2.56-2.56-33.28-48.64-48.64c0-10.24-2.56-17.92-5.12-23.04 0-2.56-2.56-2.56-2.56-2.56s0-2.56 2.56-2.56 5.12-2.56 10.24-2.56c5.12-2.56 10.24-2.56 12.8-2.56 2.56 0 7.68-2.56 10.24-5.12 2.56-2.56 5.12-2.56 10.24-2.56s7.68 0 12.8 2.56 5.12 2.56 5.12 5.12c0 0 0 2.56-2.56 5.12s-2.56 5.12-5.12 10.24-2.56 10.24-5.12 15.36c0 2.56-2.56 2.56-2.56 5.12s0 5.12 2.56 7.68c5.12 7.68 7.68 15.36 10.24 20.48 5.12 0 5.12 5.12 5.12 10.24z m-17.92-7.68c0-5.12 0-10.24-2.56-15.36-2.56-5.12-2.56-10.24-5.12-12.8-2.56-2.56-2.56-5.12-2.56-7.68v-5.12c2.56-5.12 2.56-10.24 2.56-12.8 0-2.56 0-5.12-2.56-7.68l-2.56-2.56s-2.56 0-7.68 2.56c-2.56 2.56-5.12 5.12-7.68 12.8v51.2s0 2.56 2.56 2.56 2.56 2.56 7.68 2.56h7.68c2.56 0 5.12 0 5.12-2.56 5.12 0 5.12-2.56 5.12-5.12zM1377.28 404.48c2.56 0 5.12 2.56 5.12 7.68v2.56l-5.12 5.12c-2.56 2.56-5.12 2.56-7.68 5.12-2.56 0-2.56 2.56-5.12 7.68 0 5.12-2.56 7.68-2.56 7.68v2.56h2.56c5.12 0 7.68-2.56 10.24-2.56h2.56v2.56c0 2.56 0 5.12-2.56 5.12 0 2.56-2.56 2.56-5.12 5.12-2.56 0-5.12 2.56-7.68 5.12l-5.12 5.12v12.8c0 2.56 0 2.56 2.56 2.56h2.56c5.12-2.56 10.24-5.12 12.8-5.12 2.56 0 2.56 0 2.56 2.56s-2.56 5.12-5.12 7.68c-2.56 5.12-7.68 7.68-15.36 12.8-15.36 7.68-28.16 15.36-35.84 20.48-2.56 0-2.56 2.56-5.12 2.56s-2.56-2.56-5.12-5.12l-5.12-5.12s0-2.56 2.56-2.56c5.12-2.56 7.68-2.56 7.68-5.12l2.56-2.56v-17.92-15.36-12.8c0-2.56 2.56-5.12 2.56-5.12 2.56 0 5.12 0 7.68 2.56 2.56 2.56 5.12 2.56 5.12 5.12v2.56c-2.56 5.12-2.56 12.8-2.56 20.48v12.8h2.56s2.56 0 5.12-2.56c2.56 0 2.56-2.56 2.56-5.12s0-7.68 2.56-15.36c0-10.24 2.56-17.92 2.56-23.04v-12.8c0-2.56-2.56-5.12-5.12-5.12H1331.2h-2.56s-2.56-2.56-5.12-7.68c-2.56-5.12-2.56-7.68-2.56-7.68s2.56-2.56 5.12-2.56c10.24 0 17.92-2.56 23.04-5.12 5.12-2.56 10.24-2.56 15.36-5.12 7.68 5.12 10.24 5.12 12.8 5.12z m48.64 76.8c0 5.12 5.12 10.24 15.36 17.92 10.24 7.68 23.04 15.36 40.96 23.04 5.12 2.56 10.24 5.12 12.8 7.68l5.12 5.12c0 2.56-2.56 2.56-5.12 2.56H1484.8c-12.8 0-23.04-2.56-33.28-7.68-5.12-2.56-7.68-2.56-10.24-2.56-2.56 0-5.12-2.56-5.12-5.12 0-7.68 0-12.8-2.56-15.36l-7.68-7.68c-5.12-2.56-7.68-2.56-7.68-2.56s-2.56 0-2.56 2.56c-7.68 10.24-12.8 15.36-17.92 20.48-5.12 2.56-10.24 5.12-15.36 5.12-2.56 0-7.68 0-15.36-2.56-5.12-2.56-7.68-2.56-7.68-5.12 0 0 0-2.56 2.56-2.56 12.8-2.56 25.6-7.68 33.28-12.8 7.68-5.12 12.8-10.24 12.8-12.8 0-2.56-2.56-5.12-5.12-7.68-2.56-2.56-5.12-5.12-7.68-5.12-2.56 0-5.12-2.56-5.12-5.12v-2.56-2.56c0-2.56 0-2.56-2.56-2.56 0 0-2.56 0-2.56 2.56-2.56 0-2.56 2.56-5.12 2.56s-2.56 0-2.56-2.56v-2.56c5.12-7.68 12.8-23.04 17.92-40.96 7.68-20.48 12.8-35.84 15.36-51.2 0-2.56 2.56-5.12 5.12-5.12s5.12 0 7.68 2.56c2.56 2.56 5.12 2.56 5.12 2.56s0 2.56-2.56 2.56c0 2.56-2.56 5.12-5.12 12.8l-7.68 23.04c-2.56 10.24-5.12 15.36-5.12 15.36 0 2.56 2.56 5.12 5.12 5.12s5.12 0 10.24-2.56l20.48-10.24h2.56l5.12 5.12c2.56 2.56 2.56 5.12 2.56 7.68 0 2.56-2.56 2.56-5.12 5.12-10.24 2.56-15.36 7.68-15.36 12.8-2.56 12.8-5.12 23.04-10.24 33.28 5.12-2.56 2.56-2.56 2.56 0z m-5.12-23.04v-10.24c0-2.56-2.56-5.12-2.56-5.12H1408c-2.56 0-2.56 2.56-5.12 5.12s-2.56 5.12-2.56 5.12c0 2.56 0 2.56 2.56 7.68 2.56 2.56 5.12 5.12 7.68 10.24l5.12 5.12h2.56s0-2.56 2.56-5.12v-12.8zM1656.32 435.2s0 2.56 0 0c2.56 2.56 2.56 0 5.12 0s5.12-5.12 10.24-12.8 10.24-12.8 10.24-15.36c2.56-2.56 2.56-5.12 5.12-5.12s2.56 0 5.12 2.56l2.56 2.56s0 2.56-2.56 2.56l-7.68 10.24c-5.12 7.68-7.68 10.24-7.68 12.8v2.56H1702.4s2.56 2.56 2.56 5.12c2.56 2.56 2.56 5.12 2.56 5.12v5.12c0 2.56 0 2.56-2.56 2.56s-2.56 0-5.12-2.56c-5.12-2.56-10.24-5.12-17.92-5.12-10.24 0-15.36 2.56-17.92 5.12l-10.24 12.8h2.56c7.68-2.56 12.8-2.56 17.92-2.56h10.24c2.56 0 5.12 2.56 5.12 2.56v5.12s0 2.56-2.56 5.12V537.6c0 5.12-2.56 7.68-5.12 7.68s-5.12-2.56-10.24-5.12-10.24-7.68-12.8-10.24c-2.56-2.56-2.56-2.56-5.12 0-2.56 0-2.56 0-5.12 2.56-2.56 0-2.56 0-5.12 2.56h-2.56s-2.56 0-2.56-2.56c0 0-2.56-2.56-2.56-7.68v-33.28s0-2.56-2.56-2.56l-5.12 5.12c-2.56 2.56-2.56 5.12-2.56 7.68 0 2.56 0 5.12-2.56 5.12-2.56 2.56-5.12 5.12-10.24 7.68l-15.36 7.68c-5.12 2.56-7.68 2.56-7.68 2.56s-2.56 0-2.56-2.56 2.56-5.12 7.68-10.24l12.8-12.8c5.12-2.56 7.68-7.68 12.8-12.8s10.24-10.24 15.36-17.92c5.12-5.12 7.68-10.24 7.68-10.24 0-2.56 0-2.56-2.56-2.56s-7.68 0-12.8 2.56-10.24 2.56-12.8 5.12c0-2.56-2.56-2.56-2.56-2.56-2.56 0-2.56 0-2.56-2.56 0 0 0-2.56-2.56-2.56l-2.56-2.56c-2.56 0-5.12 2.56-7.68 10.24-2.56 7.68-5.12 12.8-5.12 15.36 0 2.56 0 2.56 2.56 2.56s5.12 0 7.68-2.56c2.56-2.56 2.56-5.12 5.12-10.24v2.56c0 2.56 0 5.12-2.56 7.68-2.56 5.12-2.56 7.68-5.12 10.24l-7.68 7.68-5.12 5.12c-2.56 0-2.56-2.56-5.12-5.12s-2.56-5.12-2.56-7.68v-5.12-7.68c0-10.24-2.56-15.36-5.12-15.36s-2.56 0-5.12 2.56c-2.56 0-2.56 2.56-2.56 2.56s0 5.12-2.56 10.24c0 5.12-2.56 10.24-2.56 15.36v30.72c0 5.12 0 7.68-2.56 7.68h-10.24v-2.56-7.68-17.92c0-7.68 0-15.36-2.56-20.48 0-7.68-2.56-10.24-2.56-10.24l-2.56-2.56h-2.56c-5.12 2.56-7.68 7.68-12.8 7.68-5.12 2.56-7.68 2.56-7.68 2.56s-2.56 0-2.56-2.56l5.12-10.24c2.56-5.12 7.68-12.8 12.8-17.92 5.12-5.12 7.68-10.24 7.68-15.36l7.68-20.48c2.56-10.24 5.12-15.36 7.68-20.48 2.56-2.56 2.56-5.12 2.56-7.68 0-2.56 0-2.56 2.56-2.56 0 0 2.56 2.56 7.68 5.12 5.12 2.56 5.12 5.12 5.12 5.12s0 2.56-2.56 2.56c0 0-2.56 2.56-5.12 7.68-2.56 5.12-5.12 10.24-10.24 17.92-5.12 7.68-7.68 12.8-7.68 12.8v5.12c0 5.12 2.56 7.68 5.12 7.68 7.68 0 17.92-2.56 30.72-10.24 2.56 0 2.56-2.56 5.12-2.56 0 0 2.56 0 2.56 2.56l5.12 5.12c0 2.56 2.56 2.56 5.12 2.56 5.12 0 10.24 0 17.92-2.56 7.68-2.56 10.24-2.56 12.8-5.12v-5.12c0-2.56 0-5.12-2.56-5.12h-10.24c-2.56 0-2.56 0-2.56-2.56s0-5.12-2.56-5.12c0-2.56-2.56-2.56-2.56-2.56 0-2.56 2.56-5.12 5.12-5.12 7.68 0 12.8-2.56 12.8-2.56 0-2.56 0-7.68 2.56-20.48v-20.48c0-2.56 0-2.56 2.56-2.56h2.56l10.24 2.56c2.56 0 5.12 2.56 5.12 2.56s0 2.56-2.56 2.56c0 0-2.56 5.12-2.56 10.24s-2.56 10.24-2.56 15.36v7.68h5.12c5.12-2.56 7.68-2.56 12.8-2.56 2.56 0 2.56 0 5.12 2.56v5.12c0 2.56 0 5.12-2.56 5.12-2.56 2.56-2.56 2.56-5.12 2.56s-2.56 0-5.12 2.56-5.12 2.56-5.12 2.56l-2.56 2.56v10.24z m-61.44-33.28c2.56 0 2.56 0 2.56 2.56s2.56 2.56 2.56 5.12 2.56 2.56 5.12 5.12 5.12 5.12 5.12 10.24c0 2.56 0 5.12-2.56 5.12h-7.68c-2.56 0-5.12 0-7.68-2.56-2.56-2.56-5.12-2.56-5.12-5.12v-7.68c0-2.56 0-7.68 2.56-10.24 2.56-2.56 5.12-2.56 5.12-2.56z m69.12 117.76c2.56 0 2.56 0 0 0 2.56-2.56 2.56-5.12 2.56-10.24v-20.48c0-7.68-2.56-12.8-2.56-15.36-2.56 0-2.56-2.56-5.12-2.56s-2.56 0-7.68 2.56c-2.56 2.56-5.12 2.56-5.12 7.68 0 0 0 2.56 2.56 2.56h7.68s2.56 0 2.56 2.56v5.12c0 2.56 0 5.12-2.56 5.12 0 0-2.56 0-5.12 2.56-2.56 0-2.56 2.56-5.12 2.56 0 0-2.56 2.56-2.56 5.12s0 2.56 2.56 2.56h10.24s2.56 0 2.56 2.56 0 5.12 2.56 5.12l2.56 2.56zM1930.24 430.08c0 5.12 0 7.68-2.56 7.68s-2.56 0-5.12-2.56c-5.12-2.56-15.36-5.12-33.28-5.12h-10.24c-2.56 0-2.56 0-2.56 2.56 0 0 0 2.56 2.56 2.56 0 2.56 2.56 2.56 2.56 5.12s-2.56 2.56-5.12 5.12-10.24 7.68-17.92 15.36c-7.68 7.68-12.8 12.8-12.8 15.36H1853.44c2.56 0 2.56-2.56 5.12-2.56 5.12-7.68 10.24-12.8 15.36-12.8 5.12 0 10.24 2.56 12.8 7.68 5.12 5.12 7.68 12.8 7.68 17.92 0 2.56 0 2.56-2.56 5.12 0 0-2.56 2.56-5.12 2.56s-5.12-2.56-10.24-5.12-7.68-5.12-7.68-7.68c0-2.56 0-2.56 2.56-2.56 7.68 0 10.24-2.56 10.24-5.12 0 0 0-2.56-2.56-5.12s-2.56-2.56-5.12-2.56-5.12 0-7.68 2.56c-2.56 2.56-2.56 5.12-5.12 10.24 0 5.12-2.56 7.68-2.56 7.68s-2.56 2.56-5.12 2.56c-7.68 0-15.36 0-23.04 2.56-7.68 2.56-12.8 2.56-17.92 5.12-2.56 0-2.56 2.56-5.12 2.56s-2.56 0-2.56-2.56-2.56-5.12-2.56-5.12v-2.56s2.56-2.56 5.12-2.56 5.12-2.56 5.12-2.56 2.56-2.56 7.68-5.12c5.12-2.56 7.68-5.12 7.68-7.68l2.56-2.56h-2.56s-5.12 0-10.24 2.56-7.68 2.56-10.24 5.12c-2.56 2.56-5.12 2.56-5.12 2.56-2.56 0-2.56-2.56-5.12-5.12-2.56-5.12-2.56-5.12-2.56-7.68 0 0 0-2.56 2.56-2.56 5.12 0 7.68-2.56 10.24-2.56 2.56 0 5.12-2.56 7.68-7.68l5.12-5.12H1817.6c-10.24 2.56-17.92 2.56-23.04 5.12-5.12 0-12.8 2.56-17.92 2.56-5.12 0-7.68 2.56-10.24 2.56-2.56 0-5.12 2.56-5.12 2.56s-2.56-2.56-2.56-5.12-2.56-5.12-2.56-5.12v-2.56h2.56c2.56 0 12.8-2.56 30.72-7.68 17.92-5.12 33.28-7.68 43.52-10.24 2.56 0 2.56 0 2.56-2.56v-2.56-7.68c0-2.56 0-5.12 2.56-7.68 0-2.56 2.56-2.56 5.12-2.56s2.56 0 5.12 2.56 2.56 5.12 5.12 5.12c2.56 2.56 2.56 2.56 2.56 5.12s0 2.56 2.56 2.56h64c2.56 0 5.12 0 5.12 2.56s2.56 5.12 2.56 5.12c0-7.68 0-5.12 0 0z m-25.6-51.2c2.56 0 2.56 2.56 2.56 5.12s0 5.12-2.56 7.68c-2.56 2.56-5.12 2.56-7.68 5.12-5.12 0-7.68 2.56-12.8 2.56h-7.68s-2.56 2.56-2.56 5.12c-2.56 2.56-2.56 5.12-5.12 5.12s-5.12 2.56-5.12 2.56c-2.56 0-2.56 0-2.56-2.56s0-2.56 2.56-5.12c0-2.56 2.56-2.56 2.56-5.12l-2.56-2.56c-5.12 0-7.68 0-7.68-2.56H1843.2c-2.56 0-5.12 0-5.12 2.56V404.48c0 2.56 0 5.12-2.56 5.12-2.56 2.56-2.56 2.56-5.12 2.56s-2.56-2.56-5.12-7.68c0 0 0-2.56-2.56-2.56 0 0-2.56 0-5.12 2.56s-5.12 2.56-7.68 5.12c-2.56 2.56-2.56 2.56-5.12 2.56s-2.56-2.56-7.68-5.12c-2.56-5.12-5.12-7.68-5.12-7.68 0-2.56 2.56-2.56 5.12-5.12l12.8-2.56h7.68c0-2.56-2.56-7.68-5.12-12.8v-5.12c0-2.56 2.56-2.56 5.12-2.56h7.68c2.56 0 5.12 0 7.68 2.56 2.56 0 2.56 2.56 2.56 5.12v12.8h2.56c10.24 0 15.36-2.56 20.48-2.56H1873.92s2.56-2.56 2.56-7.68c2.56-5.12 2.56-7.68 2.56-12.8 0-2.56 2.56-5.12 2.56-7.68 0-2.56 2.56-2.56 2.56-2.56 2.56 0 5.12 0 7.68 2.56 5.12 2.56 7.68 2.56 7.68 5.12s0 2.56-2.56 5.12c-2.56 0-2.56 2.56-5.12 7.68-2.56 2.56-2.56 5.12-2.56 5.12h12.8c-2.56-5.12 0-5.12 2.56-5.12-2.56 0 0 0 0 0z m0 122.88s0 2.56-2.56 2.56c0 2.56-2.56 2.56-2.56 2.56s-2.56 5.12-2.56 10.24-2.56 12.8-5.12 20.48c-2.56 7.68-5.12 12.8-5.12 12.8 0 2.56-2.56 2.56-2.56 2.56s-2.56 0-5.12-2.56-5.12-2.56-7.68-2.56c-2.56 0-5.12-2.56-7.68-2.56h-5.12c-2.56 0-7.68 0-15.36 2.56-7.68 0-12.8 2.56-15.36 2.56-2.56 0-2.56 2.56-5.12 2.56s-2.56 0-5.12-2.56c0-2.56-2.56-5.12-7.68-7.68-2.56-2.56-7.68-10.24-10.24-17.92-2.56-7.68-5.12-12.8-5.12-17.92v-5.12s2.56-2.56 5.12-2.56 5.12 0 10.24-2.56c5.12 0 12.8-2.56 28.16-5.12 15.36-2.56 25.6-5.12 30.72-5.12 5.12 0 10.24 0 15.36 2.56 5.12 2.56 10.24 5.12 12.8 5.12l7.68 7.68zM1822.72 537.6h7.68c2.56 0 5.12-2.56 7.68-2.56 0 0 2.56-2.56 2.56-5.12v-2.56H1832.96h-2.56s-2.56 0-5.12-2.56-2.56-5.12-2.56-5.12c0-2.56 0-2.56 2.56-2.56s5.12-2.56 12.8-2.56c2.56 0 2.56 0 2.56-2.56v-5.12c0-2.56-2.56-2.56-2.56-2.56-2.56 0-5.12 0-10.24 2.56-7.68 2.56-10.24 5.12-12.8 5.12 0 0-2.56 2.56-2.56 5.12s0 7.68 2.56 12.8 5.12 7.68 7.68 7.68z m15.36-89.6h10.24c2.56 0 2.56-2.56 5.12-5.12l5.12-5.12c0-2.56 2.56-2.56 2.56-2.56h-12.8c-2.56 0-5.12 0-7.68 2.56-2.56 0-2.56 2.56-5.12 5.12l2.56 5.12c-2.56 0-2.56 0 0 0z m30.72 92.16c2.56 0 5.12 0 5.12-2.56s2.56-5.12 2.56-12.8c2.56-7.68 2.56-12.8 2.56-15.36 0-5.12 0-7.68-2.56-7.68-2.56-2.56-5.12-2.56-7.68-2.56h-7.68c-2.56 0-5.12 0-5.12 2.56V509.44h10.24c2.56 0 5.12 2.56 5.12 7.68 0 2.56-2.56 5.12-5.12 5.12h-7.68c-2.56 0-2.56 2.56-2.56 2.56V532.48h5.12c2.56 0 5.12 0 5.12 2.56-2.56 5.12 0 5.12 2.56 5.12zM2055.68 407.04c0 2.56-2.56 5.12-5.12 7.68-2.56 2.56-5.12 5.12-7.68 5.12-2.56 0-5.12 0-5.12-2.56-2.56-5.12-7.68-5.12-10.24-5.12H2022.4s-2.56 2.56-5.12 7.68c-2.56 2.56-5.12 7.68-7.68 10.24-2.56 2.56-2.56 5.12-2.56 5.12 0 2.56 0 2.56 2.56 2.56h2.56s2.56 0 5.12-2.56c10.24-5.12 15.36-7.68 20.48-7.68 2.56 0 5.12 2.56 5.12 5.12v2.56s-2.56 2.56-2.56 5.12c-2.56 2.56-2.56 5.12-5.12 7.68-2.56 2.56-2.56 5.12-2.56 5.12h7.68c2.56 0 2.56 0 2.56 2.56s-2.56 7.68-7.68 10.24c-5.12 5.12-10.24 7.68-12.8 10.24l-2.56 2.56v5.12c0 2.56 0 2.56 2.56 5.12 0 2.56 2.56 2.56 5.12 2.56s5.12-2.56 10.24-5.12l10.24-10.24c2.56-2.56 2.56-5.12 5.12-5.12v2.56c0 2.56 0 2.56-2.56 7.68-2.56 5.12-5.12 7.68-7.68 15.36-5.12 5.12-7.68 10.24-10.24 10.24-2.56 2.56-5.12 2.56-7.68 5.12-2.56 0-5.12 2.56-5.12 2.56-2.56 0-2.56 2.56-5.12 2.56h-2.56s0-2.56-2.56-7.68V486.4c0-2.56 0-2.56-2.56-2.56-5.12 0-10.24 0-12.8 2.56h-2.56s-2.56 0-2.56-2.56c0 0 0-2.56-2.56-5.12v-7.68c0-2.56 0-2.56 2.56-2.56H1996.8c2.56 0 5.12 0 7.68-2.56 2.56-2.56 5.12-2.56 5.12-2.56V460.8c0-2.56 0-5.12-2.56-7.68-2.56-2.56-2.56-5.12-5.12-10.24h-2.56-2.56c-5.12 5.12-10.24 7.68-15.36 10.24-2.56 7.68-7.68 7.68-7.68 7.68s-2.56 0-2.56-2.56l5.12-10.24c5.12-5.12 7.68-10.24 12.8-15.36 2.56-2.56 7.68-10.24 17.92-23.04 10.24-12.8 17.92-25.6 23.04-35.84 0-2.56 2.56-5.12 5.12-5.12s5.12 2.56 7.68 5.12c2.56 2.56 5.12 5.12 5.12 7.68 0 2.56 0 2.56-2.56 5.12s-5.12 2.56-7.68 5.12l-5.12 5.12v2.56s0 2.56 2.56 2.56H2050.56s2.56 0 2.56 2.56c2.56 0 2.56 2.56 2.56 2.56z m128 107.52l-5.12 5.12c-2.56 2.56-5.12 2.56-10.24 2.56h-15.36l-15.36-2.56c-5.12 0-7.68 0-7.68-2.56 0 0-2.56-2.56-2.56-5.12s-2.56-7.68-5.12-10.24c-2.56-2.56-5.12-5.12-10.24-7.68-5.12-2.56-7.68-2.56-7.68-2.56s-2.56 0-2.56 2.56c-5.12 10.24-12.8 20.48-20.48 28.16-7.68 7.68-15.36 12.8-17.92 12.8-2.56 0-2.56-2.56-2.56-5.12s-2.56-7.68-2.56-17.92c0-10.24-2.56-20.48-2.56-35.84 0-5.12 0-10.24 2.56-15.36 0-5.12 2.56-12.8 2.56-23.04s2.56-17.92 2.56-20.48V409.6v-5.12c0-2.56 0-2.56 2.56-2.56s5.12-2.56 10.24-5.12 10.24-5.12 17.92-7.68c7.68-2.56 12.8-2.56 17.92-2.56 5.12 0 10.24 0 12.8 2.56l5.12 5.12s0 2.56-2.56 5.12c0 2.56-2.56 5.12-2.56 12.8-2.56 7.68-5.12 15.36-7.68 20.48-2.56 7.68-7.68 12.8-12.8 15.36-10.24 5.12-15.36 7.68-17.92 10.24-2.56 0-2.56 2.56-2.56 2.56s0 2.56 2.56 2.56 7.68-2.56 15.36-5.12c7.68-5.12 17.92-10.24 28.16-17.92 2.56-2.56 2.56-2.56 5.12-2.56 0 0 2.56 0 2.56 2.56 2.56 2.56 2.56 5.12 2.56 5.12s0 2.56-2.56 5.12l-7.68 7.68c-10.24 10.24-17.92 15.36-25.6 17.92 0 0-2.56 0-2.56 2.56v2.56s2.56 2.56 10.24 5.12c5.12 2.56 12.8 7.68 20.48 10.24 7.68 2.56 12.8 5.12 15.36 5.12 10.24 2.56 17.92 5.12 25.6 7.68 5.12 0 10.24 2.56 10.24 5.12z m-112.64-7.68c2.56 0 7.68 0 10.24-2.56 5.12-2.56 7.68-5.12 12.8-7.68 5.12-5.12 5.12-7.68 5.12-7.68V486.4l-15.36-7.68c-2.56 0-5.12-2.56-7.68-2.56h-5.12s-2.56 2.56-2.56 7.68v20.48c0 2.56 0 2.56 2.56 2.56z m5.12-58.88s2.56-2.56 7.68-5.12c5.12-2.56 7.68-5.12 10.24-5.12 2.56 0 2.56-5.12 5.12-7.68 2.56-5.12 2.56-7.68 2.56-12.8v-10.24c0-2.56 0-5.12-2.56-7.68 0-2.56-2.56-2.56-5.12-2.56s-7.68 2.56-12.8 7.68c-5.12 5.12-7.68 7.68-7.68 12.8 0 2.56 0 2.56 2.56 2.56 5.12-2.56 10.24-5.12 12.8-5.12 2.56 0 2.56 0 2.56 2.56s-2.56 5.12-5.12 10.24-5.12 7.68-10.24 10.24c-2.56 2.56-5.12 2.56-7.68 5.12 0 0-2.56 2.56-2.56 5.12 10.24-2.56 10.24 0 10.24 0zM2275.84 430.08c0 2.56 0 2.56-2.56 5.12s-2.56 5.12-5.12 5.12v2.56c0 5.12 0 12.8-2.56 23.04v38.4c0 7.68 0 12.8-2.56 15.36 0 2.56-2.56 2.56-5.12 2.56H2252.8s-2.56-2.56-2.56-5.12v-17.92-23.04-10.24c0-2.56 0-5.12-2.56-5.12h-2.56c-2.56 0-2.56 2.56-5.12 5.12-2.56 5.12-5.12 7.68-5.12 7.68v2.56l-5.12 5.12c-2.56 2.56-5.12 5.12-7.68 5.12-2.56 2.56-5.12 2.56-7.68 2.56H2206.72V486.4s2.56-5.12 7.68-7.68l10.24-10.24c2.56-2.56 5.12-7.68 10.24-15.36s10.24-12.8 12.8-20.48c2.56-5.12 5.12-10.24 7.68-12.8 2.56-2.56 2.56-2.56 5.12-2.56s2.56 0 5.12 2.56c10.24 7.68 10.24 10.24 10.24 10.24z m5.12-38.4v2.56l-7.68 7.68-12.8 12.8c-5.12 2.56-10.24 7.68-12.8 12.8h-2.56-2.56v-2.56-5.12s2.56-5.12 7.68-12.8c5.12-7.68 7.68-12.8 10.24-17.92 2.56-2.56 5.12-7.68 5.12-7.68l2.56-2.56s2.56 0 5.12 2.56 5.12 2.56 5.12 5.12c2.56 0 2.56 2.56 2.56 5.12z m107.52 46.08c0 5.12-2.56 5.12-5.12 5.12H2360.32c-2.56 0-2.56 2.56-5.12 5.12 0 2.56-2.56 5.12-2.56 5.12v69.12c0 7.68 2.56 10.24 2.56 12.8v5.12c0 2.56 0 5.12-2.56 5.12h-2.56c-2.56 0-7.68-2.56-17.92-5.12-7.68-2.56-15.36-5.12-17.92-7.68-5.12-2.56-7.68-5.12-12.8-10.24l-7.68-7.68h2.56c17.92 5.12 28.16 7.68 33.28 7.68 5.12 0 7.68 0 7.68-2.56 2.56-2.56 2.56-5.12 2.56-7.68v-25.6c0-12.8-2.56-23.04-2.56-28.16 0-5.12-2.56-7.68-2.56-10.24l-2.56-2.56h-5.12c-5.12 0-10.24 0-15.36 2.56-7.68 2.56-12.8 2.56-17.92 5.12-2.56 0-2.56 2.56-5.12 2.56l-5.12-5.12c-2.56-5.12-2.56-7.68-2.56-7.68v-2.56s2.56 0 7.68-2.56c5.12 0 7.68-2.56 10.24-2.56 2.56 0 7.68 0 12.8-2.56s10.24-2.56 15.36-5.12c5.12-2.56 7.68-2.56 10.24-2.56h15.36c2.56 0 5.12 0 7.68-2.56h12.8c2.56 0 5.12 0 5.12 2.56 0 0 2.56 2.56 5.12 7.68 2.56-2.56 5.12 2.56 5.12 5.12z m-38.4-56.32c2.56 0 5.12 2.56 5.12 5.12 2.56 2.56 2.56 5.12 2.56 7.68v5.12c0 2.56-5.12 5.12-12.8 7.68-7.68 2.56-12.8 2.56-15.36 5.12h-23.04c-2.56 0-2.56-2.56-5.12-5.12 0-2.56-2.56-5.12-2.56-7.68v-2.56c0-2.56 2.56-2.56 5.12-2.56 5.12 0 10.24-2.56 12.8-2.56 5.12-2.56 10.24-2.56 17.92-5.12 7.68-2.56 12.8-5.12 15.36-5.12z" fill="#108C3E" p-id="10673"></path></svg>