<?xml version="1.0" standalone="no"?><!DOCTYPE svg PUBLIC "-//W3C//DTD SVG 1.1//EN" "http://www.w3.org/Graphics/SVG/1.1/DTD/svg11.dtd"><svg t="1596909107449" class="icon" viewBox="0 0 2560 1024" version="1.1" xmlns="http://www.w3.org/2000/svg" p-id="13817" xmlns:xlink="http://www.w3.org/1999/xlink" width="500" height="200"><defs><style type="text/css"></style></defs><path d="M153.6 327.68h189.44s35.84 0 43.52 10.24h-35.84v10.24H404.48s7.68 5.12 7.68 10.24H348.16v10.24h69.12s7.68 5.12 5.12 12.8H209.92v10.24h220.16s2.56 7.68 2.56 10.24H209.92v10.24h222.72s2.56 7.68-2.56 10.24l-220.16 2.56v10.24l217.6-2.56s0 7.68-5.12 10.24L209.92 445.44v15.36l204.8-2.56s0 10.24-7.68 12.8H209.92v10.24l179.2-2.56s-5.12 12.8-30.72 12.8h-33.28v10.24H378.88s23.04 0 25.6 10.24l-81.92 2.56v10.24h94.72s7.68 7.68 7.68 10.24l-220.16 2.56v12.8l222.72-2.56s7.68 5.12 7.68 12.8l-225.28 2.56v10.24h235.52s2.56 2.56 2.56 10.24l-238.08 2.56v10.24h238.08s2.56 5.12 0 10.24L209.92 609.28v10.24h235.52s2.56 7.68-2.56 12.8H209.92v7.68h227.84s0 10.24-5.12 10.24H353.28v10.24h69.12s-5.12 10.24-10.24 12.8h-61.44v10.24h40.96s-5.12 12.8-58.88 10.24H153.6V327.68z" fill="#FCEA00" p-id="13818"></path><path d="M640 509.44h51.2v20.48s28.16-28.16 51.2-25.6c0 0 53.76-10.24 66.56 53.76l2.56 138.24h-51.2v-125.44s-15.36-35.84-51.2-12.8c0 0-15.36 5.12-12.8 48.64V696.32h-51.2l-5.12-186.88zM824.32 435.2h46.08l2.56 140.8 56.32-74.24H988.16l-53.76 74.24 64 117.76-58.88 2.56-40.96-76.8-25.6 33.28v40.96h-51.2l2.56-258.56zM624.64 675.84l-2.56-122.88c-2.56-64-107.52-43.52-107.52-43.52-56.32 7.68-51.2 58.88-51.2 58.88l53.76 2.56c2.56-30.72 46.08-20.48 46.08-20.48 30.72 25.6-5.12 30.72-5.12 30.72-15.36 0-69.12 15.36-69.12 15.36-33.28 12.8-30.72 46.08-30.72 46.08 0 53.76 46.08 56.32 46.08 56.32 43.52 10.24 71.68-17.92 71.68-17.92l2.56 17.92 53.76-2.56-7.68-20.48z m-53.76-52.224s-3.072 21.504-20.48 32.256-40.448 14.336-46.08-7.68c0 0-5.12-15.36 10.24-20.48 2.56 0 53.76-12.8 56.32-20.48v16.384z" fill="#6B1685" p-id="13819"></path><path d="M1172.48 524.8V435.2h64v-38.4h30.72v2.56c-2.56 5.12-2.56 10.24-2.56 15.36v20.48h69.12v89.6H1305.6V512h-38.4v66.56H1239.04v-66.56h-38.4v15.36H1172.48v-2.56z m28.16-69.12v33.28h38.4V455.68h-38.4z m104.96 35.84v-33.28h-38.4v33.28h38.4z m79.36 87.04v-179.2h163.84v176.64h-25.6V568.32H1408v10.24h-23.04z m138.24-156.16H1408V547.84h112.64v-125.44h2.56zM1418.24 471.04h33.28v-17.92h-35.84v-20.48H1515.52v20.48h-38.4v17.92h35.84v20.48h-10.24c5.12 10.24 10.24 17.92 10.24 17.92L1500.16 517.12h15.36v20.48h-102.4v-20.48h35.84v-25.6h-33.28v-20.48h2.56z m61.44 25.6l12.8-7.68h-15.36v25.6h15.36c-2.56-5.12-7.68-10.24-12.8-17.92z m110.08-10.24v-23.04H1664v-66.56h23.04c2.56 0 5.12 0 5.12 2.56v5.12c0 7.68-2.56 15.36-2.56 23.04v38.4h76.8v20.48h-58.88v53.76c0 5.12 2.56 7.68 7.68 7.68h10.24c7.68 0 12.8-7.68 12.8-25.6 10.24 5.12 20.48 7.68 28.16 7.68-2.56 17.92-5.12 28.16-10.24 33.28-2.56 5.12-10.24 7.68-17.92 7.68H1704.96c-17.92 0-25.6-7.68-23.04-20.48V486.4h-10.24c2.56 43.52-17.92 74.24-64 92.16-5.12-10.24-12.8-17.92-17.92-20.48 20.48-7.68 33.28-17.92 40.96-25.6s10.24-23.04 12.8-46.08h-53.76z m130.56-25.6l-20.48-12.8c10.24-12.8 17.92-25.6 25.6-43.52 12.8 7.68 20.48 12.8 25.6 15.36 0 0 2.56 2.56 0 2.56-5.12 5.12-12.8 15.36-23.04 28.16-2.56 5.12-5.12 7.68-7.68 10.24z m-112.64-35.84l23.04-15.36c5.12 7.68 15.36 20.48 25.6 35.84l-23.04 15.36c-7.68-12.8-15.36-25.6-25.6-35.84z m194.56 43.52V445.44h71.68v-51.2h17.92c10.24 0 15.36 0 15.36 2.56v51.2H1976.32v23.04h-69.12c5.12 40.96 30.72 66.56 76.8 81.92-10.24 7.68-15.36 15.36-20.48 28.16-35.84-12.8-58.88-35.84-71.68-66.56-10.24 28.16-35.84 51.2-74.24 69.12-5.12-10.24-12.8-17.92-20.48-23.04 48.64-17.92 71.68-46.08 74.24-87.04H1802.24v-5.12z m256-51.2h30.72v20.48h-40.96l-5.12 15.36h46.08v20.48h-23.04v15.36h25.6v23.04h-25.6v23.04c2.56-2.56 7.68-5.12 10.24-7.68 5.12-5.12 7.68-7.68 10.24-7.68 2.56 5.12 2.56 12.8 5.12 17.92-20.48 15.36-33.28 25.6-38.4 30.72l-5.12 5.12c-2.56-2.56-7.68-10.24-12.8-23.04 0 0 0-2.56 2.56-5.12 5.12-5.12 5.12-7.68 5.12-10.24v-25.6h-28.16v-20.48h28.16v-15.36h-7.68c0 2.56-2.56 2.56-2.56 5.12s-2.56 2.56-2.56 5.12c-2.56-2.56-7.68-7.68-17.92-12.8 0 0-2.56 0-2.56-2.56 15.36-28.16 23.04-51.2 23.04-66.56 2.56-5.12 2.56-7.68 2.56-10.24 5.12 0 12.8 2.56 25.6 5.12 0 0 0 2.56-2.56 5.12v15.36z m35.84 120.32v-133.12h87.04v89.6h-7.68c5.12 5.12 10.24 10.24 12.8 15.36s2.56 7.68 0 7.68h-2.56c-7.68 5.12-12.8 10.24-17.92 12.8 7.68 10.24 17.92 15.36 30.72 20.48-5.12 5.12-12.8 12.8-20.48 23.04l-2.56-2.56C2155.52 558.08 2145.28 547.84 2140.16 537.6v15.36c-20.48 10.24-33.28 17.92-35.84 20.48l-5.12 5.12c-2.56-2.56-5.12-10.24-12.8-25.6 0 0 0-2.56 2.56-2.56 5.12-5.12 5.12-7.68 5.12-12.8z m23.04-112.64v15.36h35.84v-15.36h-35.84z m38.4 48.64v-15.36h-35.84v15.36h35.84z m-30.72 20.48h-7.68v46.08c10.24-2.56 15.36-7.68 17.92-10.24-5.12-12.8-10.24-25.6-10.24-35.84z m43.52 0H2145.28v2.56c2.56 7.68 5.12 12.8 7.68 15.36 7.68-5.12 12.8-12.8 15.36-17.92z m56.32-48.64c17.92-15.36 33.28-30.72 48.64-51.2 2.56 2.56 5.12 2.56 10.24 5.12l15.36 7.68-2.56 2.56c-2.56 2.56-5.12 5.12-7.68 5.12-17.92 17.92-30.72 33.28-46.08 43.52-5.12-2.56-10.24-7.68-17.92-12.8z m168.96-38.4v20.48H2309.12v-20.48h84.48z m-117.76 71.68v97.28h-25.6V501.76c-2.56 5.12-7.68 7.68-12.8 15.36l-17.92-15.36c20.48-15.36 38.4-35.84 53.76-61.44 15.36 7.68 23.04 12.8 23.04 15.36 0 0 0 2.56-2.56 2.56-2.56 2.56-10.24 10.24-17.92 20.48z m20.48-23.04H2406.4v23.04h-30.72v81.92c0 10.24-10.24 17.92-38.4 17.92-2.56-10.24-5.12-17.92-7.68-25.6 15.36 0 20.48 0 20.48-5.12v-69.12h-53.76V455.68zM1228.8 647.68h-15.36c0-7.68-5.12-12.8-12.8-12.8s-12.8 7.68-12.8 23.04 5.12 23.04 12.8 23.04 12.8-5.12 12.8-12.8h15.36c0 15.36-10.24 20.48-28.16 20.48s-25.6-10.24-25.6-33.28 10.24-33.28 25.6-33.28c17.92 5.12 25.6 12.8 28.16 25.6z m25.6 43.52h-12.8v-64h12.8v25.6h25.6v-25.6h12.8V691.2H1280v-28.16h-25.6v28.16z m69.12-64V691.2H1310.72v-64h12.8zM1397.76 691.2h-20.48l-25.6-53.76V691.2h-12.8v-64h20.48l25.6 51.2v-51.2h12.8V691.2z m25.6 0h-15.36l23.04-64h15.36L1469.44 691.2h-12.8l-5.12-12.8h-25.6l-2.56 12.8z m7.68-23.04h17.92l-7.68-28.16-10.24 28.16z m71.68 23.04v-64h43.52v10.24h-28.16v15.36h28.16v10.24h-28.16v17.92h30.72v10.24h-46.08z m76.8 0l-23.04-64h15.36l17.92 51.2 17.92-51.2h12.8l-25.6 64h-15.36z m51.2 0v-64h43.52v10.24h-28.16v15.36h28.16v10.24h-28.16v17.92h30.72v10.24h-46.08z m71.68-53.76v17.92h12.8c5.12 0 10.24-2.56 10.24-10.24 0-5.12-2.56-7.68-10.24-7.68h-12.8z m0 28.16v25.6H1689.6v-64h28.16c15.36 0 23.04 5.12 23.04 17.92 0 7.68-5.12 12.8-12.8 15.36 5.12 0 10.24 5.12 10.24 15.36v2.56c0 7.68 2.56 12.8 2.56 15.36h-15.36c-2.56-5.12-2.56-10.24-2.56-17.92 0-5.12-2.56-7.68-5.12-7.68h-15.36v-2.56z m66.56 15.36h10.24c7.68 0 10.24-2.56 10.24-7.68s-2.56-7.68-10.24-7.68h-10.24v15.36z m0-28.16h10.24c5.12 0 7.68-2.56 10.24-7.68 0-5.12-2.56-7.68-10.24-7.68h-10.24v15.36z m10.24 38.4h-25.6v-64h25.6c15.36 0 23.04 5.12 23.04 17.92 0 7.68-5.12 10.24-10.24 12.8 10.24 2.56 12.8 7.68 15.36 17.92-5.12 10.24-12.8 15.36-28.16 15.36z m51.2-53.76v17.92h12.8c5.12 0 10.24-2.56 10.24-10.24 0-5.12-2.56-7.68-10.24-7.68h-12.8z m0 28.16v25.6H1817.6v-64h28.16c15.36 0 23.04 5.12 23.04 17.92 0 7.68-5.12 12.8-12.8 15.36 5.12 0 10.24 5.12 10.24 15.36v2.56c0 7.68 2.56 12.8 2.56 15.36h-15.36c-2.56-5.12-2.56-10.24-2.56-17.92 0-5.12-2.56-7.68-5.12-7.68h-15.36v-2.56z m64-38.4V691.2h-12.8v-64h12.8z m61.44 40.96h-12.8v-10.24h25.6v33.28h-30.72c-20.48 0-30.72-12.8-30.72-33.28s10.24-33.28 30.72-33.28 30.72 7.68 30.72 20.48h-15.36c0-7.68-5.12-10.24-12.8-10.24-12.8 0-17.92 7.68-17.92 23.04s5.12 23.04 17.92 23.04h12.8v-12.8h2.56z m43.52 23.04H1986.56v-64h12.8v25.6h25.6v-25.6h12.8V691.2h-12.8v-28.16h-25.6v28.16z m51.2-53.76v-10.24h51.2v10.24H2083.84V691.2h-12.8v-53.76h-20.48z m97.28 43.52h10.24c7.68 0 10.24-2.56 10.24-7.68s-2.56-7.68-10.24-7.68h-10.24v15.36z m0-28.16h10.24c5.12 0 7.68-2.56 10.24-7.68 0-5.12-2.56-7.68-10.24-7.68h-10.24v15.36z m10.24 38.4h-25.6v-64h25.6c15.36 0 23.04 5.12 23.04 17.92 0 7.68-5.12 10.24-10.24 12.8 10.24 2.56 12.8 7.68 15.36 17.92-2.56 10.24-12.8 15.36-28.16 15.36z m48.64 0h-12.8l23.04-64h15.36l23.04 64H2242.56l-5.12-12.8h-25.6l-5.12 12.8z m7.68-23.04h17.92l-7.68-28.16-10.24 28.16zM2324.48 691.2h-20.48l-25.6-53.76V691.2h-12.8v-64h20.48l25.6 51.2v-51.2h12.8V691.2z m30.72-64v28.16l20.48-28.16h15.36l-23.04 28.16 25.6 35.84H2375.68l-20.48-33.28v33.28h-12.8v-64h12.8z" fill="#231815" p-id="13820"></path></svg>