<?xml version="1.0" standalone="no"?><!DOCTYPE svg PUBLIC "-//W3C//DTD SVG 1.1//EN" "http://www.w3.org/Graphics/SVG/1.1/DTD/svg11.dtd"><svg t="1596905393991" class="icon" viewBox="0 0 2560 1024" version="1.1" xmlns="http://www.w3.org/2000/svg" p-id="776" xmlns:xlink="http://www.w3.org/1999/xlink" width="500" height="200"><defs><style type="text/css"></style></defs><path d="M832 499.2c-2.56-102.4-66.56-171.52-66.56-171.52-99.84-115.2-225.28-104.96-225.28-104.96-133.12-5.12-217.6 97.28-215.04 99.84-56.32 69.12-64 130.56-64 130.56-23.04 104.96 28.16 194.56 28.16 194.56 38.4 69.12 79.36 102.4 145.92 133.12s166.4 25.6 230.4-5.12c61.44-33.28 99.84-66.56 135.68-133.12s30.72-143.36 30.72-143.36z m-320 235.52s-104.96-5.12-163.84-107.52c0 0-51.2-71.68-28.16-161.28 20.48-89.6 69.12-125.44 79.36-133.12 10.24-10.24 71.68-48.64 115.2-46.08v107.52h-46.08s-61.44 2.56-64 71.68v97.28s2.56 61.44 64 66.56h43.52v104.96z m-33.28-166.4s-10.24 2.56-12.8-10.24v-94.72s0-10.24 7.68-10.24h133.12s10.24-2.56 12.8 10.24v92.16s2.56 15.36-7.68 12.8h-133.12z m256 69.12c-43.52 64-122.88 94.72-161.28 97.28v-104.96h51.2s53.76-10.24 56.32-66.56v-112.64s-7.68-56.32-69.12-58.88h-38.4v-104.96s66.56 5.12 120.32 56.32c53.76 48.64 69.12 99.84 74.24 125.44s10.24 102.4-33.28 168.96z" fill="#B81C22" p-id="777"></path><path d="M1512.96 532.48h-7.68c-7.68 10.24-25.6 28.16-38.4 33.28-20.48-15.36-46.08-25.6-71.68-35.84h-43.52c-7.68-2.56-25.6-5.12-33.28-7.68v12.8c5.12 2.56 7.68 15.36 7.68 23.04-56.32-2.56-40.96-207.36-15.36-238.08 2.56 2.56 2.56 0 5.12 5.12 2.56 7.68-2.56 25.6-7.68 33.28-5.12 15.36-5.12 115.2 0 125.44h2.56c0-2.56 2.56-5.12 2.56-7.68h2.56c0 12.8 2.56 35.84 10.24 38.4 5.12-5.12 17.92 0 25.6-5.12 12.8-7.68 61.44-53.76 64-69.12 0 0-2.56 0-2.56-2.56-7.68 5.12-53.76 43.52-66.56 35.84 2.56-33.28 25.6-46.08 35.84-69.12h-2.56c-5.12 5.12-5.12 7.68-15.36 7.68 0-25.6 12.8-25.6 15.36-46.08-2.56-5.12 2.56-7.68-5.12-10.24 0-2.56-2.56-2.56-2.56-5.12-5.12 2.56-10.24 7.68-17.92 7.68v-10.24l12.8-12.8c0-10.24-5.12-30.72-12.8-38.4 0 0-2.56 0-2.56 2.56 0 10.24 0 20.48-5.12 25.6-2.56 0-2.56 0-5.12 2.56 0 0-2.56 0-2.56-2.56-5.12-7.68-7.68-10.24-7.68-23.04 12.8-7.68 17.92-28.16 30.72-35.84s30.72-15.36 43.52-20.48c133.12-51.2 120.32 197.12 107.52 286.72z m627.2-289.28c2.56 10.24 10.24 15.36 12.8 25.6 12.8 28.16 0 56.32-7.68 76.8-33.28 5.12-51.2 23.04-71.68 38.4 0 0 0 2.56 2.56 2.56 10.24 5.12 48.64 12.8 43.52 23.04 0 2.56 0 7.68 2.56 10.24-15.36 10.24-40.96 35.84-48.64 51.2 25.6 10.24 51.2 61.44 25.6 87.04v2.56s-2.56 0-2.56-2.56c-10.24-12.8-25.6-12.8-28.16-33.28 5.12-2.56 7.68-33.28 7.68-38.4-38.4 2.56-35.84 43.52-58.88 25.6-2.56-2.56-7.68-2.56-10.24-5.12-2.56-5.12-2.56-10.24-7.68-17.92 5.12-7.68 5.12-12.8 10.24-20.48 15.36-20.48 38.4-38.4 53.76-58.88 0-2.56 0-2.56-2.56-5.12-15.36 0-38.4-7.68-43.52-17.92 0-5.12 0-10.24 2.56-15.36 25.6-15.36 64-69.12 81.92-94.72 10.24-12.8 12.8-28.16 25.6-35.84 0 2.56 7.68 2.56 12.8 2.56z m-980.48 156.16c5.12 0 7.68 0 12.8 2.56v2.56c-2.56 10.24-7.68 12.8-7.68 25.6-7.68 0-12.8 5.12-17.92 10.24-10.24 10.24-17.92 76.8-25.6 94.72-10.24 20.48 5.12 43.52-5.12 53.76-10.24 2.56-12.8 7.68-23.04 10.24 0-2.56 0-5.12-2.56-7.68-15.36-17.92-2.56-53.76-15.36-66.56 0 0-2.56 0-2.56 2.56 0 23.04-2.56 48.64 5.12 61.44 2.56 7.68 10.24 7.68 12.8 20.48h-7.68c-20.48-40.96-15.36-92.16-28.16-140.8h-2.56c-2.56 0-5.12 0-7.68 2.56 0 12.8-2.56 15.36-12.8 15.36-10.24-5.12-23.04-7.68-33.28-15.36-23.04-17.92-40.96-69.12-35.84-102.4h7.68l30.72 30.72c2.56 0 5.12 0 7.68-2.56 17.92-12.8 33.28-25.6 51.2-38.4 0-40.96 0-74.24 12.8-102.4h12.8c23.04 15.36 40.96 35.84 48.64 64 23.04 0 43.52-15.36 71.68-7.68 5.12 35.84-40.96 58.88-46.08 87.04z m248.32 122.88c23.04 0 64 10.24 74.24 7.68 53.76-30.72 20.48-243.2-17.92-266.24-35.84-20.48-99.84 15.36-107.52 33.28 10.24 5.12 15.36 17.92 17.92 28.16 15.36 0 17.92-7.68 33.28-10.24 2.56 2.56 2.56 5.12 5.12 7.68 0 17.92-12.8 28.16-20.48 40.96 12.8 7.68 33.28 30.72 33.28 56.32-7.68 2.56-10.24 5.12-5.12 12.8 15.36-12.8 28.16-38.4 38.4-56.32 0 0 2.56 0 2.56 2.56l5.12 5.12c-2.56 25.6-25.6 43.52-40.96 58.88v10.24c7.68 5.12 12.8 10.24 25.6 12.8 7.68-12.8 10.24-25.6 17.92-43.52h2.56c0 28.16-7.68 40.96-15.36 58.88 7.68 0 12.8 0 20.48 2.56v15.36c-10.24 7.68-5.12 17.92-28.16 17.92-2.56-5.12-30.72 0-40.96 5.12 0-5.12 0-2.56 0 0z m212.48-40.96c-7.68 0-10.24 0-15.36-5.12v-28.16c23.04-2.56 25.6-38.4 35.84-56.32 20.48-43.52 38.4-99.84 69.12-133.12h7.68c7.68 10.24 20.48 15.36 23.04 30.72-15.36 7.68-40.96 15.36-48.64 30.72-20.48 33.28-71.68 122.88-71.68 161.28z m161.28-25.6c0-33.28 15.36-40.96 23.04-64h-7.68c-2.56 5.12-7.68 5.12-12.8 10.24-10.24 20.48-12.8 40.96-12.8 61.44h5.12c10.24-15.36 48.64 2.56 66.56-5.12 23.04-7.68 28.16-28.16 56.32-28.16v2.56l-5.12 5.12c-2.56 7.68-7.68 10.24-15.36 10.24-2.56 12.8-15.36 28.16-23.04 38.4 15.36 15.36 66.56 23.04 89.6 35.84l-5.12 5.12v2.56c-23.04 0-48.64 15.36-71.68 5.12-10.24-5.12-15.36-15.36-35.84-15.36-10.24 17.92-35.84 46.08-61.44 46.08-10.24-7.68-17.92-10.24-28.16-17.92 0-10.24 0-20.48-2.56-30.72h-7.68c-10.24 33.28-53.76 38.4-79.36 53.76-2.56-7.68-2.56-15.36-5.12-23.04 7.68-5.12 15.36-12.8 20.48-20.48 0-2.56 0-2.56-2.56-5.12-7.68 0-10.24 0-12.8-5.12 15.36 0 17.92-5.12 15.36-17.92 0 0 0-2.56-2.56-2.56 0 0-2.56 0-2.56 2.56-7.68 10.24-23.04 38.4-38.4 40.96-2.56-7.68-7.68-7.68-10.24-17.92 0 0 0-2.56 2.56-2.56 17.92-2.56 28.16-20.48 43.52-30.72 0 0 0-2.56-2.56-2.56h-7.68c-2.56-28.16-7.68-35.84 12.8-53.76 0-12.8-5.12-17.92-10.24-25.6 10.24-7.68 20.48-12.8 30.72-20.48 5.12 5.12 10.24 12.8 17.92 17.92v5.12c-5.12 7.68-15.36 10.24-20.48 17.92 0 5.12 0 12.8 2.56 17.92h5.12c2.56-5.12 2.56-7.68 12.8-7.68 0-5.12 0-5.12 2.56-7.68h2.56c2.56 7.68 2.56 15.36 5.12 23.04-5.12 2.56-10.24 7.68-12.8 12.8h28.16c2.56 5.12 5.12 5.12 5.12 15.36-10.24 7.68-46.08 46.08-51.2 56.32h2.56l2.56 2.56c25.6-7.68 46.08-33.28 61.44-51.2 0-33.28 2.56-64 12.8-89.6 5.12-12.8 0-23.04 2.56-33.28 5.12-15.36 15.36-30.72 20.48-48.64 7.68 0 7.68 2.56 15.36 2.56l5.12-5.12v-7.68h7.68c7.68-12.8 30.72-15.36 33.28-30.72 5.12 0 10.24 0 15.36-2.56 2.56 12.8-28.16 120.32-38.4 133.12-7.68 2.56-12.8 5.12-20.48 7.68-2.56 5.12-2.56 10.24-5.12 15.36l2.56 2.56c7.68-5.12 15.36-7.68 23.04-10.24 0-7.68-2.56-12.8 2.56-15.36 2.56 5.12 5.12 10.24 10.24 15.36 0 5.12 0 7.68-2.56 12.8-20.48 0-30.72 17.92-51.2 20.48z m30.72-143.36c-2.56 20.48-25.6 35.84-17.92 61.44h7.68c10.24-10.24 23.04-20.48 33.28-30.72 2.56-17.92 7.68-33.28 10.24-51.2l-2.56-2.56-5.12 5.12c-7.68 5.12-15.36 17.92-25.6 17.92z m-394.24-2.56c23.04 0 25.6 10.24 43.52 12.8 0 23.04-7.68 33.28-30.72 30.72-7.68-12.8-12.8-23.04-12.8-43.52z m320 7.68l7.68 23.04c-15.36 0-20.48 10.24-33.28 12.8l-2.56-2.56c0-5.12 2.56-33.28 7.68-35.84 2.56-2.56 5.12-2.56 10.24-2.56 5.12 5.12 5.12 5.12 10.24 5.12z m532.48 5.12c2.56 0 5.12 0 7.68 2.56 0 0 0 2.56-2.56 2.56-7.68 5.12-10.24 12.8-12.8 20.48-40.96 0-69.12 15.36-92.16 35.84h-5.12l-5.12-5.12c0-10.24-2.56-10.24-5.12-17.92 5.12-2.56 5.12-7.68 10.24-12.8 17.92 15.36 48.64-10.24 64-17.92 15.36-5.12 28.16-2.56 40.96-7.68z m-1105.92 0c-17.92 17.92-40.96 17.92-28.16 64h7.68c5.12-12.8 30.72-46.08 38.4-58.88l-7.68-7.68c-2.56 2.56-5.12 2.56-10.24 2.56z m220.16 17.92v7.68h7.68v-7.68h-7.68z m839.68 87.04c0 10.24-5.12 40.96-2.56 48.64 10.24 20.48 12.8 61.44 12.8 92.16-12.8 7.68-17.92 17.92-38.4 17.92-5.12-10.24-7.68-25.6-17.92-30.72-15.36-10.24-40.96-15.36-48.64-35.84h10.24c7.68 15.36 35.84 20.48 56.32 20.48 5.12-28.16 10.24-84.48 2.56-115.2 0 0-2.56 0-2.56 2.56-5.12 5.12-53.76 33.28-64 33.28 0 0-2.56 0-2.56-2.56v-15.36c51.2-23.04 102.4-58.88 168.96-61.44 2.56 5.12 2.56 5.12 5.12 12.8-20.48 10.24-76.8 17.92-89.6 30.72v2.56l5.12 5.12c0-5.12 2.56-5.12 5.12-5.12z m-1159.68-38.4c-12.8 0-33.28 12.8-33.28 30.72 5.12 7.68 10.24 17.92 17.92 25.6 7.68-2.56 12.8-10.24 17.92-15.36-2.56-12.8-2.56-25.6-2.56-40.96z m350.72 28.16v-7.68c-5.12-2.56-7.68-5.12-12.8-7.68v12.8c5.12 0 5.12 2.56 12.8 2.56z m-48.64 28.16c15.36 0 28.16-10.24 35.84-17.92v-7.68c-5.12-2.56-5.12-7.68-10.24-12.8-10.24 10.24-25.6 25.6-25.6 38.4z m309.76 0s0 2.56 0 0c0 2.56 2.56 2.56 5.12 5.12v-2.56c-2.56 0-2.56 0-5.12-2.56z m-2.56 5.12s-2.56 0 0 0c0 2.56 0 2.56 2.56 5.12 0 0 2.56 0 2.56-2.56-2.56-2.56-5.12-2.56-5.12-2.56z m-258.56 2.56c-10.24 23.04-40.96 30.72-51.2 53.76h17.92c15.36-10.24 53.76-17.92 69.12-23.04v-5.12s0-2.56-2.56-2.56c-17.92 0-17.92-17.92-33.28-23.04z m435.2 15.36c-2.56 5.12-7.68 5.12-12.8 10.24 2.56 5.12 2.56 5.12 10.24 7.68h2.56c2.56-5.12 7.68-10.24 10.24-17.92h-10.24z m-133.12 5.12h-10.24c-10.24 5.12-15.36 7.68-15.36 25.6l2.56 2.56c7.68-5.12 20.48-15.36 23.04-28.16z m110.08 43.52c0-7.68 0-7.68 5.12-10.24-12.8-10.24-38.4-23.04-58.88-25.6l-2.56 2.56c-2.56 30.72-7.68 38.4 10.24 58.88 10.24-7.68 30.72-23.04 46.08-25.6z m-721.92 2.56c-2.56 0-5.12 0-10.24 2.56 0 17.92-2.56 33.28-2.56 51.2 5.12 2.56 2.56 2.56 7.68 5.12 2.56 0 5.12 0 7.68-2.56-2.56-15.36-2.56-35.84-2.56-56.32z m576 15.36c-2.56 0-2.56 2.56-5.12 2.56 0 0 0 2.56 2.56 2.56 5.12 0 5.12 0 7.68-2.56-2.56-2.56-2.56-2.56-5.12-2.56zM1044.48 716.8h5.12c7.68 0 12.8-2.56 15.36-5.12s5.12-10.24 5.12-17.92c0-10.24-2.56-15.36-5.12-17.92s-7.68-5.12-15.36-5.12h-5.12v46.08z m0 56.32H1052.16c7.68 0 12.8-2.56 17.92-5.12 2.56-2.56 5.12-10.24 5.12-20.48s-2.56-17.92-5.12-23.04c-2.56-5.12-10.24-5.12-17.92-5.12h-5.12v53.76h-2.56z m-40.96 2.56v-2.56h10.24v-102.4h-10.24v-2.56h69.12c5.12 0 7.68 2.56 10.24 2.56 5.12 2.56 7.68 5.12 10.24 7.68 2.56 2.56 2.56 7.68 2.56 10.24 0 7.68-2.56 12.8-7.68 17.92s-15.36 7.68-25.6 10.24c12.8 0 23.04 5.12 30.72 10.24s10.24 12.8 10.24 20.48c0 5.12-2.56 10.24-5.12 15.36-2.56 5.12-7.68 7.68-15.36 10.24-2.56 0-5.12 2.56-10.24 2.56h-69.12z m130.56-38.4h25.6l-12.8-35.84-12.8 35.84z m-20.48 38.4v-2.56h5.12s2.56-2.56 2.56-5.12l33.28-99.84h10.24l35.84 104.96h5.12v2.56h-43.52v-2.56h7.68l-12.8-30.72h-25.6l-7.68 20.48v5.12c0 2.56 0 2.56 2.56 5.12h5.12v2.56h-17.92z m102.4-104.96h-2.56v-2.56h35.84l53.76 76.8v-61.44c0-5.12 0-7.68-2.56-10.24 0-2.56-2.56-2.56-7.68-2.56h-2.56v-2.56h25.6v2.56h-2.56-2.56c-2.56 0-5.12 0-7.68 2.56 0 2.56-2.56 5.12-2.56 10.24v92.16h-17.92l-58.88-84.48v71.68c0 5.12 0 7.68 2.56 10.24 0 2.56 2.56 2.56 7.68 2.56h5.12v2.56h-25.6v-2.56h2.56c2.56 0 5.12 0 7.68-2.56 0-2.56 2.56-5.12 2.56-10.24v-74.24l-10.24-17.92z m115.2 104.96l10.24-2.56v-102.4h-10.24v-2.56h51.2v2.56h-10.24v48.64l38.4-35.84 2.56-2.56v-2.56c0-2.56 0-2.56-2.56-2.56H1402.88v-2.56h33.28v2.56c-5.12 0-7.68 0-12.8 2.56-2.56 2.56-7.68 5.12-12.8 7.68l-20.48 17.92 43.52 71.68h7.68v2.56h-51.2v-2.56h7.68l-28.16-51.2-2.56 2.56v51.2h10.24v2.56H1331.2v-5.12z m189.44-53.76c0 20.48 2.56 35.84 5.12 43.52s7.68 10.24 15.36 10.24 12.8-2.56 15.36-10.24 5.12-20.48 5.12-43.52c0-20.48-2.56-35.84-5.12-43.52s-7.68-10.24-15.36-10.24-12.8 2.56-15.36 10.24-5.12 23.04-5.12 43.52z m-30.72 0c0-7.68 0-15.36 2.56-23.04s7.68-12.8 12.8-17.92 10.24-10.24 17.92-12.8c5.12-2.56 12.8-5.12 20.48-5.12s12.8 2.56 20.48 5.12c5.12 2.56 12.8 7.68 17.92 12.8s10.24 12.8 12.8 17.92c2.56 7.68 5.12 12.8 5.12 23.04 0 7.68-2.56 15.36-5.12 23.04-2.56 7.68-7.68 12.8-12.8 17.92s-10.24 10.24-17.92 12.8c-5.12 2.56-12.8 5.12-20.48 5.12s-12.8-2.56-20.48-5.12c-5.12-2.56-12.8-7.68-17.92-12.8s-10.24-12.8-12.8-17.92c-2.56-7.68-2.56-15.36-2.56-23.04z m122.88 53.76l10.24-2.56v-102.4h-10.24v-2.56h87.04v28.16h-2.56c-2.56-10.24-5.12-15.36-10.24-20.48-5.12-2.56-12.8-5.12-23.04-5.12h-10.24v48.64h10.24c7.68 0 12.8-2.56 15.36-5.12s5.12-7.68 5.12-15.36h2.56v40.96h-2.56c0-7.68-2.56-12.8-5.12-15.36-2.56-2.56-10.24-5.12-17.92-5.12H1653.76v51.2h10.24v2.56h-51.2v2.56z m230.4-33.28l2.56 33.28h-2.56c0-2.56 0-2.56-2.56-5.12l-2.56-2.56-10.24 5.12c-7.68 2.56-12.8 5.12-20.48 5.12s-15.36 0-20.48-2.56c-7.68-2.56-12.8-5.12-17.92-10.24s-10.24-10.24-12.8-17.92c-2.56-7.68-5.12-12.8-5.12-20.48s2.56-17.92 5.12-25.6 7.68-15.36 15.36-20.48c5.12-5.12 10.24-7.68 15.36-10.24 5.12-2.56 12.8-2.56 17.92-2.56 7.68 0 12.8 2.56 20.48 5.12s10.24 5.12 10.24 5.12c2.56 0 2.56 0 2.56-2.56 0 0 0-2.56 2.56-2.56h2.56v33.28h-2.56c-2.56-10.24-7.68-20.48-12.8-25.6s-12.8-7.68-20.48-7.68c-2.56 0-7.68 0-10.24 2.56-2.56 2.56-5.12 2.56-7.68 5.12s-5.12 7.68-5.12 12.8-2.56 15.36-2.56 28.16v28.16c0 5.12 2.56 10.24 2.56 12.8 2.56 5.12 5.12 7.68 7.68 10.24s7.68 2.56 12.8 2.56c10.24 0 17.92-2.56 23.04-7.68 10.24-7.68 15.36-15.36 15.36-25.6z m23.04 33.28l10.24-2.56v-102.4h-10.24v-2.56h51.2v2.56h-10.24v48.64h30.72v-48.64h-10.24v-2.56h51.2v2.56h-10.24v102.4h10.24v2.56h-51.2v-2.56h10.24v-51.2h-30.72v51.2h10.24v2.56h-51.2z m125.44 0l10.24-2.56v-102.4h-10.24v-2.56h51.2v2.56h-10.24v102.4h10.24v2.56h-51.2z m69.12-104.96h-2.56v-2.56h35.84l53.76 76.8v-61.44c0-5.12 0-7.68-2.56-10.24 0-2.56-2.56-2.56-7.68-2.56h-2.56v-2.56h25.6v2.56h-2.56-2.56c-2.56 0-5.12 0-7.68 2.56 0 2.56-2.56 5.12-2.56 10.24v92.16h-17.92l-58.88-84.48v71.68c0 5.12 0 7.68 2.56 10.24 0 2.56 2.56 2.56 7.68 2.56h5.12v2.56h-25.6v-2.56h2.56c2.56 0 5.12 0 7.68-2.56 0-2.56 2.56-5.12 2.56-10.24v-74.24l-10.24-17.92z m128 66.56h25.6l-12.8-35.84-12.8 35.84z m-20.48 38.4v-2.56h5.12s2.56-2.56 2.56-5.12l33.28-99.84h10.24l35.84 104.96h5.12v2.56h-43.52v-2.56h7.68l-12.8-30.72h-25.6l-7.68 20.48v5.12c0 2.56 0 2.56 2.56 5.12h5.12v2.56h-17.92z" fill="#231815" p-id="778"></path></svg>