<?xml version="1.0" standalone="no"?><!DOCTYPE svg PUBLIC "-//W3C//DTD SVG 1.1//EN" "http://www.w3.org/Graphics/SVG/1.1/DTD/svg11.dtd"><svg t="1596908894287" class="icon" viewBox="0 0 3818 1024" version="1.1" xmlns="http://www.w3.org/2000/svg" p-id="7141" xmlns:xlink="http://www.w3.org/1999/xlink" width="745.703125" height="200"><defs><style type="text/css"></style></defs><path d="M422.122667 647.744a38.656 38.656 0 0 1-51.157334-15.616l-2.538666-5.568-105.642667-231.829333a19.989333 19.989333 0 0 1-1.856-8.149334 19.349333 19.349333 0 0 1 30.933333-15.488l124.650667 88.746667c15.274667 10.026667 34.389333 12.224 51.541333 5.909333L1054.378667 204.8C949.290667 80.938667 776.192 0 580.352 0 259.797333 0 0 216.533333 0 483.626667c0 145.706667 78.186667 276.864 200.512 365.525333 10.197333 7.253333 16.256 18.986667 16.277333 31.488 0 4.288-0.96 8.234667-2.048 12.330667a192248.533333 192248.533333 0 0 1-26.176 97.557333c-1.194667 4.565333-3.093333 9.344-3.093333 14.144a19.328 19.328 0 0 0 19.349333 19.328c4.202667 0 7.616-1.557333 11.157334-3.626667l127.061333-73.301333c9.557333-5.546667 19.669333-8.96 30.826667-8.96 5.909333 0 11.626667 0.917333 17.045333 2.56a686.656 686.656 0 0 0 189.44 26.538667c320.469333 0 580.330667-216.533333 580.330667-483.626667 0-80.896-23.978667-157.077333-66.112-224.106667L426.389333 645.269333l-4.266666 2.474667z" fill="#3BAF36" p-id="7142"></path><path d="M2247.808 415.317333h325.418667v27.498667h-325.418667v-27.52z m0 91.669334h325.418667v29.802666h-325.418667v-29.802666z m8.32 285.653333h308.778667V617.386667h-308.8v175.274666z m279.04-27.498667h-249.258667V644.906667h249.258667v120.256z m-358.4-519.338666c-29.056 102.336-70.272 192.426667-123.733333 270.336 0 0.042667 0.042667 0.064 0.064 0.106666l16.256 28.202667a1135.061333 1135.061333 0 0 0 57.024-94.72v344.896h29.781333V387.84a992.554667 992.554667 0 0 0 48.256-126.08l-27.648-15.957333z m236.053333 75.541333l23.381334-13.44c-4.608-10.666667-24.128-50.645333-30.229334-64.384l-27.477333 15.872c9.664 18.112 18.816 36.48 27.456 55.082667 1.493333 3.072 2.282667 5.354667 2.282667 6.869333h-192.512v29.781333h391.893333v-29.781333H2412.8z m-734.869333-67.541333h27.52v146.666666h57.28v-103.125333h27.498667v130.624h-199.36v-130.624h27.498666v103.125333h59.562667v-146.666666z m-77.909333 233.749333h176.469333v27.477333h-176.469333v-27.498666z m201.557333 159.530667l-45.717333 39.210666v-111.658666h-148.949334v43.52c4.309333 61.653333-10.901333 105.130667-45.610666 130.453333l15.914666 27.605333c42.666667-35.157333 62.528-83.968 59.477334-146.581333v-27.498667h91.669333v66.453334c-1.130667 22.549333-2.24 30.058667-10.304 41.216l17.216 29.781333c15.232-12.245333 41.962667-35.093333 80.042667-68.608l-13.738667-23.893333zM1549.013333 248.106667c-28.437333 58.069333-62.741333 105.941333-102.869333 143.573333l16.746667 29.034667a582.912 582.912 0 0 0 111.893333-157.717334l-25.770667-14.890666z m-3.946666 150.058666C1517.717333 466.517333 1482.026667 525.781333 1438.08 576l15.936 27.605333a1127.68 1127.68 0 0 0 52.053333-65.664v256.661334h27.498667v-302.506667a786.218667 786.218667 0 0 0 38.250667-78.549333l-26.773334-15.381334z m460.458666-16.106666v-27.498667h-130.624c11.093333-33.429333 24.426667-73.386667 28.864-107.669333l-28.864-0.021334c-19.178667 89.898667-47.573333 165.546667-85.226666 227.008l17.386666 30.144 12.842667-25.706666c6.08-10.666667 10.688-19.093333 13.781333-25.194667 9.152 80.981333 25.173333 145.130667 48.106667 192.469333-21.866667 37.866667-54.976 76.437333-98.986667 115.690667l16.533334 28.650667c47.296-44.309333 79.36-82.453333 96.192-114.538667 19.84 35.882667 53.568 78.293333 90.922666 116.266667l16.768-29.056c-39.125333-37.354667-73.002667-78.72-91.648-114.709334 33.578667-61.077333 54.208-149.717333 61.866667-265.813333h32.085333zM1897.813333 613.546667c-19.84-50.432-34.346667-118.4-43.52-203.946667 3.157333-9.429333 6.976-18.624 11.456-27.52h80.213334c-6.144 97.792-22.186667 174.976-48.149334 231.466667z m1675.690667 38.250666c-20.053333-39.552-61.248-108.138667-94.656-158.186666l24.896-12.373334c33.962667 50.069333 75.818667 116.8 95.829333 153.877334l-26.069333 16.682666z m-370.602667 137.642667l7.850667-25.941333c-93.376-13.973333-174.272-40.618667-241.962667-80.192 72.832-48.192 131.669333-111.829333 168.042667-196.48l-19.413333-12.992-6.058667 1.237333h-157.12v-108.757333h238.4v-29.653334H2954.24V234.666667h-29.098667v101.973333h-237.824v29.653333h237.824v108.757334h-161.813333v29.056c34.56 72.917333 87.786667 132.842667 151.466667 177.962666-71.530667 40.341333-155.797333 66.538667-242.624 82.709334l8.469333 27.669333 0.64 1.450667c92.8-18.56 183.210667-48.192 260.224-93.290667 72.192 45.098667 159.530667 75.392 260.245333 90.816l1.152-2.005333z m-405.162666-285.312h296.042666c-33.984 68.565333-86.741333 121.088-151.637333 162.496-62.506667-42.624-111.658667-96.384-144.405333-162.496z m618.666666-265.109333c-35.946667 97.194667-93.653333 190.634667-155.818666 253.717333l12.373333 31.424c0.256 0.490667 0.704 1.152 0.874667 1.578667 26.069333-25.92 50.346667-56.832 73.386666-90.816v358.4h29.12V389.184a942.570667 942.570667 0 0 0 67.946667-141.525333l-27.904-8.64z m301.482667 135.338666V242.133333h-29.12v132.266667h-254.165333v29.653333h254.165333v343.552c0 14.186667-4.842667 17.92-18.816 19.136-11.072 0.512-22.997333 3.136-54.570667 3.328l0.106667 25.941334c43.008 0.256 57.514667-0.490667 73.898667-5.184 19.413333-4.949333 28.501333-14.826667 28.501333-43.861334V404.010667h81.92v-29.653334h-81.92z" fill="#323232" p-id="7143"></path></svg>