<?xml version="1.0" standalone="no"?><!DOCTYPE svg PUBLIC "-//W3C//DTD SVG 1.1//EN" "http://www.w3.org/Graphics/SVG/1.1/DTD/svg11.dtd"><svg t="1597133188828" class="icon" viewBox="0 0 1024 1024" version="1.1" xmlns="http://www.w3.org/2000/svg" p-id="7193" xmlns:xlink="http://www.w3.org/1999/xlink" width="200" height="200"><defs><style type="text/css"></style></defs><path d="M723.691053 1024H299.786898A121.115473 121.115473 0 0 1 178.93245 903.145552V120.854448A121.115473 121.115473 0 0 1 299.786898 0h423.904155a121.115473 121.115473 0 0 1 120.854448 120.854448v783.074178a121.115473 121.115473 0 0 1-120.854448 120.071374zM299.786898 51.160846A69.954627 69.954627 0 0 0 231.137395 120.854448v783.074178a69.954627 69.954627 0 0 0 68.649503 67.866429h423.904155a69.954627 69.954627 0 0 0 69.693602-69.693602V120.854448a69.954627 69.954627 0 0 0-69.693602-69.693602z" fill="#3D7EFF" p-id="7194"></path><path d="M818.965078 767.934744H205.034922a26.102473 26.102473 0 0 1 0-52.204945h613.930156a26.102473 26.102473 0 0 1 0 52.204945zM511.738975 921.417283a52.204945 52.204945 0 1 1 52.204945-52.204946 52.204945 52.204945 0 0 1-52.204945 52.204946z m0-52.204946z" fill="#3D7EFF" p-id="7195"></path></svg>