<?xml version="1.0" standalone="no"?><!DOCTYPE svg PUBLIC "-//W3C//DTD SVG 1.1//EN" "http://www.w3.org/Graphics/SVG/1.1/DTD/svg11.dtd"><svg t="1596908854997" class="icon" viewBox="0 0 2584 1024" version="1.1" xmlns="http://www.w3.org/2000/svg" p-id="5128" xmlns:xlink="http://www.w3.org/1999/xlink" width="504.6875" height="200"><defs><style type="text/css"></style></defs><path d="M2012.405 619.87l-24.308 52.523-24.743-52.524h-23.875l37.332 72.492v50.354h22.138v-50.788l37.33-72.058h-23.874zM1835.3 651.556l16.929 50.788h-34.727l17.798-50.788z m22.138 66.415l8.247 24.743h23.007l-45.579-122.846h-17.797l-45.145 122.846h23.007l8.681-24.743h45.579z m-171.897-39.067h-24.308v-42.106h24.308c12.155 0 19.534 10.852 19.534 21.27 0.434 9.984-6.511 20.836-19.534 20.836z m1.303-59.036h-47.75v122.846h22.139V695.4h25.61c23.875 0 40.37-15.627 40.37-37.765s-16.495-37.766-40.37-37.766zM1527.1 742.715h22.139V619.869H1527.1v122.846z m-155.835-122.846v122.846h74.662v-16.93h-52.524V619.87h-22.138z m-126.318 31.688l16.93 50.788h-34.728l17.798-50.788z m22.138 66.415l8.248 24.743h23.006l-45.145-122.846h-17.797l-45.145 122.846h23.007l8.682-24.743h45.144z m156.27-337.716h-95.064v-33.858h110.257v-21.27h-110.257v-42.975h-49.052c-5.643 0-9.984 4.775-9.55 9.984v32.99h-109.388v21.27h109.389v33.859h-92.46v21.27h184.05s-9.983 39.502-60.77 82.476c-45.145-34.293-60.338-61.206-60.338-61.206h-49.485c19.967 34.293 48.183 62.074 79.003 84.212-28.216 18.232-64.245 35.595-111.56 49.92v25.176s72.492-13.456 142.813-54.694c70.322 40.804 140.643 54.694 140.643 54.694V558.23c-45.144-16.495-81.173-34.293-108.955-51.656 40.804-31.254 76.399-72.058 90.724-126.318z m308.632-94.196h-49.485v51.656h-121.977v20.836h121.977v185.353c-0.434 4.34-3.907 7.38-7.814 7.814h-25.176v21.27h64.244c10.418-0.435 18.231-9.116 18.665-19.1V358.552h19.968v-20.836h-20.402V286.06z m-104.18 107.219c-1.736-3.907-5.643-6.078-9.983-6.078h-41.238l32.122 100.707h48.617l-29.518-94.63z m430.176 176.237l-17.363-58.601c-1.303-3.907-4.775-6.511-8.682-6.511h-46.013l13.457 45.144h-54.26v-87.25h106.35v-20.836h-106.35v-40.804h106.35v-20.836h-265.659v20.836h106.35v40.804h-106.35v20.836h106.35v87.25h-106.35v20.836h272.17v-0.868zM1505.83 283.89l-56.864 133.697h43.408v159.308h47.749V365.497h-17.364l36.03-81.607h-52.959z m335.546 46.447h154.967v30.385h55.563V324.26c0-8.247-6.511-14.758-14.325-14.758h-89.42v-28.65h-57.734v28.65h-103.746v51.221h55.563v-30.385h-0.868z" fill="#111111" p-id="5129"></path><path d="M971.91 580.802c78.135 26.045 95.498 27.347 95.498 27.347V329.034c0-47.749-38.633-86.382-86.816-86.382H612.49c-47.749 0-86.816 38.633-86.816 86.382v365.498c0 47.749 38.633 86.382 86.816 86.382h368.102c47.749 0 86.816-38.633 86.816-86.382v-3.473s-140.642-58.167-211.832-92.46c-47.749 58.167-109.389 93.762-173.199 93.762-108.086 0-144.55-93.762-93.327-155.835 11.286-13.457 29.951-26.48 59.469-33.425 46.013-11.286 119.372 6.946 187.957 29.518 12.589-23.44 23.007-48.183 30.386-74.228H655.464v-21.27H764.42v-37.765H632.024v-21.27h132.395V323.39s0-9.115 9.55-9.115h53.392v63.81H958.02v21.27H827.36v38.199h106.785c-9.984 41.672-25.61 79.871-45.145 113.295 32.123 11.72 61.206 22.573 82.91 29.952z m-314.275-45.579c-13.457 1.303-39.068 7.38-52.958 19.534-41.672 36.029-16.93 102.01 67.282 102.01 49.052 0 97.669-31.254 136.302-80.74-54.26-26.913-100.707-45.579-150.626-40.804z" fill="#00A7EF" p-id="5130"></path></svg>