<?xml version="1.0" standalone="no"?><!DOCTYPE svg PUBLIC "-//W3C//DTD SVG 1.1//EN" "http://www.w3.org/Graphics/SVG/1.1/DTD/svg11.dtd"><svg t="1597133041346" class="icon" viewBox="0 0 1024 1024" version="1.1" xmlns="http://www.w3.org/2000/svg" p-id="6447" xmlns:xlink="http://www.w3.org/1999/xlink" width="200" height="200"><defs><style type="text/css"></style></defs><path d="M413.184 0.32C153.088 0.32 0.64 65.088 0.64 145.024v86.848c0 80 152.192 144.896 412.48 144.896 260.352 0 441.92-64.896 441.92-144.896V145.088c0-80.128-181.568-144.768-441.92-144.768z m-36.48 751.168c-187.264-6.72-296.576-47.104-353.92-101.504-14.912 14.08-22.016 28.608-22.016 43.904v117.12c0 80.64 159.296 146.112 432 146.112 27.264 0 53.824-0.768 80-2.112a319.936 319.936 0 0 1-136.064-203.52z m67.84-292.8h-17.472c-219.072 0-342.464-43.328-404.608-103.104-14.592 14.08-21.76 28.928-21.76 44.16V517.76c0 74.688 134.528 136.64 366.976 145.856a314.624 314.624 0 0 1 76.8-204.928z m564.672 473.92s-188.608-173.888-154.56-146.112c-19.648 30.528-71.936 48.448-102.336 68.288-40.512-39.04 179.52 155.2 179.52 155.2a54.912 54.912 0 0 0 75.392-2.112 54.656 54.656 0 0 0 1.92-75.264z" fill="#2755FF" p-id="6448"></path><path d="M916.224 806.72l-0.256-0.128a256.96 256.96 0 0 0-214.848-396.48 256.704 256.704 0 0 0-248.768 256.64 256.64 256.64 0 0 0 248.768 256.64c51.52 0 99.328-15.36 139.584-41.6l0.32 0.384a260.416 260.416 0 0 0 75.2-75.456z m-215.104 48.512a188.352 188.352 0 1 1 188.16-188.416 188.544 188.544 0 0 1-188.16 188.416z" fill="#2755FF" p-id="6449"></path></svg>